<svg id="Calque_1" data-name="Calque 1" xmlns="http://www.w3.org/2000/svg" xmlns:xlink="http://www.w3.org/1999/xlink" viewBox="0 0 64 48"><defs><style>.cls-1{fill:none;}.cls-2{clip-path:url(#clip-path);}.cls-3{clip-path:url(#clip-path-2);}.cls-4{clip-path:url(#clip-path-3);}.cls-5{clip-path:url(#clip-path-4);}.cls-6{clip-path:url(#clip-path-5);}.cls-7{clip-path:url(#clip-path-11);}.cls-8{clip-path:url(#clip-path-12);}.cls-9{clip-path:url(#clip-path-13);}.cls-10{clip-path:url(#clip-path-14);}.cls-11{clip-path:url(#clip-path-15);}.cls-12{clip-path:url(#clip-path-21);}.cls-13{clip-path:url(#clip-path-22);}.cls-14{fill:#000268;}.cls-15{fill:#fff;}.cls-16{fill:#ff0007;}.cls-17{clip-path:url(#clip-path-23);}.cls-18{clip-path:url(#clip-path-24);}.cls-19{clip-path:url(#clip-path-25);}.cls-20{clip-path:url(#clip-path-26);}.cls-21{clip-path:url(#clip-path-27);}.cls-22{clip-path:url(#clip-path-28);}.cls-23{clip-path:url(#clip-path-29);}.cls-24{clip-path:url(#clip-path-30);}.cls-25{clip-path:url(#clip-path-31);}.cls-26{clip-path:url(#clip-path-32);}.cls-27{clip-path:url(#clip-path-33);}.cls-28{clip-path:url(#clip-path-34);}.cls-29{clip-path:url(#clip-path-35);}.cls-30{clip-path:url(#clip-path-36);}.cls-31{clip-path:url(#clip-path-37);}.cls-32{clip-path:url(#clip-path-38);}.cls-33{clip-path:url(#clip-path-39);}.cls-34{clip-path:url(#clip-path-40);}.cls-35{clip-path:url(#clip-path-41);}.cls-36{clip-path:url(#clip-path-42);}.cls-37{clip-path:url(#clip-path-43);}.cls-38{clip-path:url(#clip-path-44);}.cls-39{clip-path:url(#clip-path-45);}.cls-40{clip-path:url(#clip-path-46);}.cls-41{clip-path:url(#clip-path-47);}.cls-42{clip-path:url(#clip-path-48);}.cls-43{clip-path:url(#clip-path-49);}.cls-44{clip-path:url(#clip-path-50);}.cls-45{clip-path:url(#clip-path-51);}.cls-46{clip-path:url(#clip-path-52);}.cls-47{clip-path:url(#clip-path-53);}.cls-48{clip-path:url(#clip-path-54);}.cls-49{clip-path:url(#clip-path-55);}.cls-50{clip-path:url(#clip-path-56);}.cls-51{clip-path:url(#clip-path-57);}.cls-52{clip-path:url(#clip-path-58);}.cls-53{clip-path:url(#clip-path-59);}.cls-54{clip-path:url(#clip-path-60);}</style><clipPath id="clip-path"><polyline class="cls-1" points="-73.7 -260.24 -70.56 -279.71 -65.54 -279.71 -68.68 -260.24 -73.7 -260.24"/></clipPath><clipPath id="clip-path-2"><path class="cls-1" d="M-50.48-279.23A12.31,12.31,0,0,0-55-280c-5,0-8.46,2.64-8.49,6.42,0,2.8,2.49,4.37,4.4,5.3s2.61,1.56,2.6,2.41c0,1.31-1.56,1.9-3,1.9a10,10,0,0,1-4.73-1l-.64-.31-.71,4.36a15.07,15.07,0,0,0,5.59,1c5.28,0,8.7-2.61,8.74-6.65,0-2.22-1.31-3.9-4.21-5.29-1.75-.91-2.83-1.5-2.82-2.42s.91-1.67,2.88-1.67a8.65,8.65,0,0,1,3.75.75l.45.22.68-4.22"/></clipPath><clipPath id="clip-path-3"><path class="cls-1" d="M-43.8-267.14c.42-1.12,2-5.45,2-5.45s.41-1.13.67-1.86l.33,1.68s1,4.65,1.17,5.63Zm6.2-12.56h-3.88a2.47,2.47,0,0,0-2.63,1.62l-7.46,17.85h5.27s.86-2.4,1.06-2.93h6.43c.15.68.61,2.92.61,2.92h4.66l-4.07-19.47Z"/></clipPath><clipPath id="clip-path-4"><path class="cls-1" d="M-77.91-279.7l-4.91,13.28-.53-2.7a15,15,0,0,0-7-8.17l4.49,17h5.31l7.91-19.44h-5.32"/></clipPath><clipPath id="clip-path-5"><path class="cls-1" d="M-87.38-279.71h-8.1l-.06.4c6.29,1.61,10.46,5.51,12.19,10.19l-1.76-8.95a2.1,2.1,0,0,0-2.27-1.64"/></clipPath><clipPath id="clip-path-11"><polyline class="cls-1" points="-144.28 -260.24 -141.14 -279.71 -136.12 -279.71 -139.26 -260.24 -144.28 -260.24"/></clipPath><clipPath id="clip-path-12"><path class="cls-1" d="M-121.06-279.23a12.31,12.31,0,0,0-4.49-.82c-5,0-8.46,2.64-8.49,6.42,0,2.8,2.5,4.37,4.4,5.3s2.61,1.56,2.6,2.41c0,1.31-1.56,1.9-3,1.9a10.07,10.07,0,0,1-4.73-1l-.64-.31-.7,4.36a15,15,0,0,0,5.59,1c5.27,0,8.7-2.61,8.74-6.65,0-2.22-1.32-3.9-4.22-5.29-1.75-.91-2.83-1.5-2.82-2.42s.91-1.67,2.88-1.67a8.72,8.72,0,0,1,3.76.75l.45.22.68-4.22"/></clipPath><clipPath id="clip-path-13"><path class="cls-1" d="M-114.37-267.14l2-5.45s.41-1.13.67-1.86l.34,1.68,1.16,5.63Zm6.19-12.56h-3.88a2.47,2.47,0,0,0-2.63,1.62l-7.45,17.85h5.27l1.05-2.93h6.43c.15.68.61,2.92.61,2.92h4.66l-4.07-19.47Z"/></clipPath><clipPath id="clip-path-14"><path class="cls-1" d="M-148.49-279.7l-4.91,13.28-.53-2.7a15,15,0,0,0-6.95-8.17l4.49,17h5.31l7.91-19.44h-5.32"/></clipPath><clipPath id="clip-path-15"><path class="cls-1" d="M-158-279.71H-166l-.07.4c6.29,1.61,10.46,5.51,12.19,10.19l-1.76-8.95a2.1,2.1,0,0,0-2.27-1.64"/></clipPath><clipPath id="clip-path-21"><path class="cls-1" d="M467.36-170.56a10.27,10.27,0,0,0,6.44,9.31,24.59,24.59,0,0,1-3.32,6.54c-2,2.8-4.07,5.59-7.34,5.65s-4.24-1.83-7.92-1.83-4.82,1.77-7.85,1.89-5.56-3-7.57-5.83c-4.12-5.71-7.27-16.13-3-23.17a11.78,11.78,0,0,1,9.92-5.76c3.1-.06,6,2,7.92,2s5.45-2.47,9.19-2.11a11.41,11.41,0,0,1,8.77,4.57,10.39,10.39,0,0,0-5.19,8.75m-6-17.1a9.82,9.82,0,0,0,2.49-7.34,10.91,10.91,0,0,0-7.06,3.48,9.38,9.38,0,0,0-2.55,7.12,9,9,0,0,0,7.11-3.26"/></clipPath><clipPath id="clip-path-22"><path class="cls-1" d="M398.66-170.56a10.27,10.27,0,0,0,6.44,9.31,24.59,24.59,0,0,1-3.32,6.54c-2,2.8-4.07,5.59-7.34,5.65s-4.24-1.83-7.92-1.83-4.82,1.77-7.85,1.89-5.56-3-7.57-5.83C367-160.54,363.83-171,368.05-178a11.81,11.81,0,0,1,9.93-5.76c3.1-.06,6,2,7.92,2s5.45-2.47,9.19-2.11a11.41,11.41,0,0,1,8.77,4.57,10.39,10.39,0,0,0-5.19,8.75m-6-17.1a9.82,9.82,0,0,0,2.49-7.34,10.86,10.86,0,0,0-7.06,3.48,9.38,9.38,0,0,0-2.55,7.12,9,9,0,0,0,7.11-3.26"/></clipPath><clipPath id="clip-path-23"><path class="cls-1" d="M275.08,236.94h5l.08,0,.07,0,.08,0,.07,0,.08,0,.07,0,.08,0,.07,0,.08.05.07.06.08.06.07.06.08.07.07.08.07.09a.76.76,0,0,1,.08.11,16.81,16.81,0,0,1,.15.26,1.22,1.22,0,0,1,.07.17,1.53,1.53,0,0,1,.08.26,2.33,2.33,0,0,1,0,1,1.29,1.29,0,0,1-.08.26,1.34,1.34,0,0,1-.15.31.47.47,0,0,1-.07.12l-.08.11-.07.09-.07.08-.08.07-.07.06-.08.06-.07.06-.08.05-.07,0-.08,0-.07,0-.08,0-.07,0-.08,0-.07,0-.08,0h-5v-4.06Zm6-4.63a2.12,2.12,0,0,1,0,.44,2.09,2.09,0,0,1,0,.43,2,2,0,0,1-.08.26.87.87,0,0,1-.07.17s-.05.1-.08.14l-.07.11-.08.1-.07.08-.08.08-.07.06-.08.06-.07.06-.08,0-.07,0-.08,0-.07,0-.08,0-.07,0-.08,0-.07,0-.08,0h-4.6v-3.77h4.53l.07,0,.08,0,.07,0,.08,0,.07,0,.08,0,.07,0,.08,0,.07,0,.08.05.07,0,.08.06.07.07.08.07.07.09.08.09.07.12a.74.74,0,0,1,.08.13.87.87,0,0,1,.07.17,2,2,0,0,1,.08.26Zm9.27-19.56h0V251.5q0,.34,0,.69c0,.19,0,.39-.07.59s-.05.25-.08.38-.05.21-.07.31-.06.19-.08.27-.05.16-.07.23l-.08.21c0,.07-.05.13-.07.2l-.08.18c0,.06,0,.11-.07.17l-.08.15-.07.15-.08.15-.07.13-.08.12-.07.13-.08.12-.07.12a1,1,0,0,0-.08.11l-.07.1-.08.11-.07.09-.08.1-.07.09-.08.09-.07.09-.08.08-.07.09a.6.6,0,0,0-.08.08l-.07.07-.08.08-.07.07-.08.08-.07.06-.08.07-.07.07-.08.06-.07.07-.08.06-.07.06-.08.06-.07.05-.08.06-.07.05-.08.05-.07.06-.07,0-.08.05-.07,0-.08.05-.07,0-.08.05-.07,0-.08,0-.07,0-.08,0-.07,0-.08,0-.07,0-.08,0-.07,0-.08,0-.07,0-.08,0-.07,0-.08,0-.07,0-.08,0-.07,0-.08,0-.07,0-.08,0-.07,0-.08,0-.07,0-.08,0-.07,0-.08,0-.07,0-.08,0h-.07l-.08,0-.07,0h-.08l-.07,0h-.15l-.08,0H271.27v-15.8h13.18l.08,0h.07l.08,0h.07l.08,0h.07l.08,0,.07,0,.08,0,.07,0,.08,0,.07,0,.08,0,.07,0,.08,0,.07,0,.08,0,.07,0,.07,0,.08,0,.07,0,.08,0,.07,0,.08,0,.07,0,.08-.05.07,0,.08-.05.07,0,.08-.05.07-.05.08-.06.07-.06.08-.06.07-.07.08-.07.07-.07.08-.08.07-.08.08-.09.07-.1.08-.1.07-.11a.62.62,0,0,0,.08-.12s.05-.08.07-.13.05-.09.08-.14.05-.11.07-.17,0-.13.08-.2.05-.17.07-.26.06-.26.08-.39a4.07,4.07,0,0,0,0-.5,3.87,3.87,0,0,0,0-.48c0-.13-.05-.25-.08-.38a1.68,1.68,0,0,0-.07-.24l-.08-.2c0-.06-.05-.11-.07-.16s0-.1-.08-.14-.05-.09-.07-.13l-.08-.12-.07-.1-.08-.1-.07-.09-.08-.09-.07-.08-.08-.07-.07-.07-.08-.07L287,237l-.08-.06-.07-.06-.08-.06-.07-.05-.08-.05-.07,0-.08,0-.07-.05-.08,0-.07,0-.08,0-.07,0-.08,0-.07,0-.08,0-.07,0-.07,0-.08,0-.07,0-.08,0-.07,0-.08,0-.07,0-.08,0-.07,0-.08,0-.07,0h-.08l-.07,0-.08,0h-.07l-.08,0h-.07l-.08,0h-.67v-.09h.15l.07,0h.08l.07,0h.08l.07,0,.08,0,.07,0,.08,0,.07,0,.08,0,.07,0,.08,0,.07,0,.08,0,.07,0,.08,0,.07,0,.08,0,.07,0,.08,0,.07,0,.08,0,.07,0,.08,0,.07-.05.07-.05.08-.06.07,0,.08-.06.07-.07.08-.07.07-.07.08-.07.07-.09.08-.08.07-.09.08-.11.07-.11a1,1,0,0,0,.08-.11s0-.09.07-.13a1.09,1.09,0,0,0,.08-.15l.07-.17a1.31,1.31,0,0,0,.08-.21c0-.06.05-.17.07-.25a3.54,3.54,0,0,0,.08-.45c0-.12,0-.24,0-.36s0-.25,0-.38a3.54,3.54,0,0,0-.08-.45c0-.08,0-.17-.07-.26a1.8,1.8,0,0,0-.08-.21.77.77,0,0,0-.07-.16l-.08-.15c0-.05-.05-.09-.07-.13l-.08-.12-.07-.1-.08-.1-.07-.09-.08-.08-.07-.08-.08-.07-.07-.07-.08-.07-.07-.06-.08-.06-.07-.05-.08-.06-.07-.05-.07,0-.08,0-.07,0-.08,0-.07,0-.08,0-.07,0-.08,0-.07,0-.08,0-.07,0-.08,0-.07,0-.08,0-.07,0-.08,0-.07,0-.08,0-.07,0-.08,0h-.07l-.08,0-.07,0H284l-.07,0H271.28v-8a7.63,7.63,0,0,1,.16-1.58c0-.11.05-.21.08-.32s0-.18.07-.28.05-.16.08-.24.05-.14.07-.21l.08-.2c0-.07.05-.12.07-.19l.08-.17.07-.16.08-.15c0-.05.05-.09.07-.14l.08-.14a.83.83,0,0,1,.07-.13l.08-.13a.75.75,0,0,1,.07-.12l.08-.11.07-.11.08-.11.07-.1.08-.1.07-.1.08-.09.07-.09.07-.09.08-.09.07-.08.08-.08.07-.08.08-.07.07-.08.08-.07.07-.07.08-.07.07-.07.08-.06.07-.07.08-.06.07-.06.08-.06.07,0,.08-.06.07-.05.08-.06.07,0,.08-.05.07,0,.08-.05L275,214l.08,0,.07,0,.08,0,.07,0,.08,0,.07,0,.08,0,.07,0,.08,0,.07,0,.08,0,.07,0,.08,0,.07,0,.08,0,.07,0,.08,0,.07,0,.08,0,.07,0,.08,0,.07,0,.08,0,.07,0,.08,0,.07,0,.08,0,.07,0,.08,0h.07l.08,0,.07,0h.08l.07,0h.08l.07,0h.15l.07,0h12.49Z"/></clipPath><clipPath id="clip-path-24"><path class="cls-1" d="M228.4,239.64V220.5a8.38,8.38,0,0,1,.16-1.58,3,3,0,0,1,.08-.32c0-.1.05-.19.07-.28s0-.16.08-.24.05-.14.07-.22l.08-.19c0-.07.05-.13.07-.19s.05-.11.08-.17l.07-.16.08-.15c0-.05,0-.1.07-.14l.08-.14.07-.13.08-.13.07-.12.08-.11.07-.11a1,1,0,0,1,.08-.11l.07-.1.08-.1a.86.86,0,0,1,.07-.1l.08-.09.07-.09.08-.09.07-.09.08-.08.07-.08.08-.08.07-.08.08-.07.07-.07.08-.07.07-.07.07-.07.08-.06.07-.06.08-.07.07-.06.08-.06.07-.06.08-.05.07,0,.08-.06.07-.05.08,0,.07-.05L232,214l.07,0,.08,0,.07-.05.08,0,.07,0,.08,0,.07,0,.08,0,.07,0,.08,0,.07,0,.08,0,.07,0,.08,0,.07,0,.08,0,.07,0,.08,0,.07,0,.08,0,.07,0,.08,0,.07,0,.08,0,.07,0,.08,0,.07,0,.08,0,.07,0,.08,0h.07l.08,0,.07,0,.08,0h.15l.07,0h.15l.08,0h12.53v38.75a8.26,8.26,0,0,1-.06,1c0,.16,0,.31-.07.46s0,.24-.08.35-.05.2-.07.29,0,.17-.08.25-.05.15-.07.22l-.08.21c0,.07-.05.12-.07.18l-.08.18c0,.06,0,.11-.07.16l-.08.16s0,.09-.07.14l-.08.14-.07.13-.08.13-.07.12-.08.12-.07.11-.08.11-.07.1-.08.1a.86.86,0,0,1-.07.1l-.08.1-.07.09-.08.09-.07.08-.08.09-.07.08-.08.08-.07.07-.08.08-.07.07-.08.07-.07.07-.08.07-.07.06-.08.07-.07.06-.08.06-.07.06-.08.06-.07.05-.08.06-.07.05-.08.05-.07,0L244,258l-.07.05-.08.05-.07.05-.08,0-.07,0-.08.05-.07,0-.08,0-.07,0-.08,0-.07,0-.07,0-.08,0-.07,0-.08,0-.07,0-.08,0-.07,0-.08,0-.07,0-.08,0-.07,0-.08,0-.07,0-.08,0-.07,0-.08,0-.07,0-.08,0-.07,0-.08,0-.07,0h-.08l-.07,0-.08,0h-.07l-.08,0h-.07l-.08,0H228.4V242.92l.16,0,.08,0,.07,0h.08l.07,0,.08,0,.07,0h.08l.07,0,.08,0h.07l.08,0h.07l.08,0,.07,0h.08l.07,0h.08l.07,0h.15l.08,0h.07l.08,0h.15l.07,0h.15l.08,0H231l.08,0h.6l.07,0H232l.07,0h7.79l.08,0h.15l.07,0h.08l.07,0h.08l.07,0h.08l.07,0,.08,0,.07,0h.08l.07,0,.08,0,.07,0,.08,0,.07,0,.08,0,.07,0,.08,0,.07,0,.08,0,.07,0,.07,0,.08,0,.07,0,.08,0,.07,0,.08,0,.07,0,.08,0,.07,0,.08,0,.07,0,.08,0,.07,0,.08,0,.07,0,.08,0,.07,0,.08,0,.07,0,.08-.05.07,0,.08,0,.07,0,.08,0,.07-.05.08,0,.07-.05.08-.05.07-.06.08-.05L244,242l.08-.06.07-.06.08-.07.07-.07.08-.06.07-.08.08-.07.07-.08.08-.08.07-.09.08-.09.07-.1.08-.1.07-.1.08-.11.07-.12.08-.13c0-.05,0-.09.07-.14l.08-.15.07-.16.08-.18c0-.06.05-.13.07-.2a2.09,2.09,0,0,1,.08-.23c0-.08.05-.19.07-.28s.05-.23.08-.35,0-.36.07-.54a6.62,6.62,0,0,0,0-.77v-9h-6.66l-.06,9c0,.14,0,.27,0,.41a4.46,4.46,0,0,1-.07.51c0,.1,0,.2-.08.29s-.05.16-.07.23-.05.13-.08.19a1.22,1.22,0,0,0-.07.17l-.08.14c0,.05,0,.09-.07.13l-.08.12-.07.11-.08.1-.07.09-.08.09-.07.08-.08.07-.07.07-.08.07-.07.06-.08.06-.07.06-.08,0-.07.05-.08,0-.07,0-.08,0-.07,0-.08,0-.07,0-.08,0-.07,0-.08,0-.07,0-.08,0-.07,0-.08,0-.07,0-.08,0-.07,0-.08,0h-.07l-.08,0h-.07l-.08,0h-3l-.08,0H233l-.06,0-.08,0h-.07l-.08,0h-.07l-.08,0h-.07l-.08,0-.07,0h-.08l-.07,0-.08,0-.07,0-.08,0-.07,0h-.08l-.07,0-.08,0-.07,0-.08,0-.07,0-.08,0-.07,0-.08,0-.07,0-.08,0-.07,0-.08,0-.07,0-.08,0-.07,0-.08,0-.07,0-.08,0-.07,0-.08,0-.07,0-.08,0-.07,0-.08,0-.07,0-.08,0-.07,0-.08,0-.07,0-.08,0-.07,0-.08,0-.07,0-.08,0-.07,0-.08,0-.07,0-.08,0-.07,0-.08,0-.07,0-.08,0-.07,0Z"/></clipPath><clipPath id="clip-path-25"><path class="cls-1" d="M250,230.51l-.16.13V220.49a7.54,7.54,0,0,1,.16-1.57c0-.11.05-.22.07-.33s0-.18.08-.27.05-.16.07-.24.05-.15.08-.22.05-.13.07-.2l.08-.18c0-.06,0-.12.07-.17s.05-.11.08-.16l.07-.15.08-.15.07-.13.08-.13.07-.12.08-.12.07-.12.08-.11.07-.11.08-.1.07-.1.08-.1.07-.09.08-.09.07-.09.08-.08.07-.09.08-.08.07-.08.08-.07.07-.08.07-.07.08-.07.07-.07.08-.06.07-.07.08-.06.07-.07.08-.06.07-.06.08-.05.07-.06.08,0,.07-.06.08-.05.07,0,.08-.05.07-.05.08,0,.07,0,.08,0,.07,0,.08,0,.07,0,.08,0,.07,0,.08,0,.07,0,.08,0,.07,0,.08,0,.07,0,.08,0,.07,0,.08,0,.07,0,.08,0,.07,0,.08,0,.07,0,.08,0,.07,0,.08,0,.07,0,.08,0,.07,0h.08l.07,0,.08,0,.07,0,.08,0H256l.08,0h.07l.08,0h.15l.07,0H269v38.75a8.26,8.26,0,0,1-.06,1c0,.16-.05.31-.08.46s-.05.24-.07.35,0,.2-.08.29l-.07.25c0,.08-.05.15-.08.22a1.72,1.72,0,0,0-.07.21,1.59,1.59,0,0,1-.08.18,1.34,1.34,0,0,0-.07.18l-.08.16-.07.16-.08.14-.07.14-.08.13-.07.13-.08.12-.07.12-.08.11-.07.11-.08.1-.07.1-.08.1-.07.09-.08.1-.07.08-.08.09-.07.09-.08.08-.07.08-.08.07-.07.08-.08.07-.07.07-.08.07-.07.07-.08.06-.07.07-.08.06-.07.06-.08.06-.07.06-.08.05-.07.06-.08.05-.07.05-.08,0-.07.05-.08.05-.07.05-.08.05-.07,0-.08,0-.07.05-.08,0-.07,0-.08,0-.07,0-.08,0-.07,0-.08,0-.07,0-.07,0-.08,0-.07,0-.08,0-.07,0-.08,0-.07,0-.08,0-.07,0-.08,0-.07,0-.08,0-.07,0-.08,0-.07,0-.08,0-.07,0-.08,0-.07,0h-.08l-.07,0-.08,0h-.15l-.07,0H249.85V241.36l.16.13.07.06.08.06.07,0,.08.06.07.05.08,0,.07.06.08.05.07,0,.08.05.07,0,.08,0,.07,0,.07,0,.08,0,.07,0,.08,0,.07,0,.08,0,.07,0,.08,0,.07,0,.08,0,.07,0,.08,0,.07,0,.08,0,.07,0,.08,0,.07,0,.08,0,.07,0,.08,0,.07,0,.08,0,.07,0,.08,0,.07,0,.08,0,.07,0,.08,0,.07,0,.08,0,.07,0,.08,0,.07,0,.08,0,.07,0,.08,0,.07,0,.08,0,.07,0,.08,0,.07,0,.08,0h.07l.08,0,.07,0h.08l.07,0,.08,0h.07l.08,0h.07l.08,0H255l.07,0h.23l.07,0h8.31l.08,0h.3l.07,0h.23l.07,0h.15l.08,0h.15l.07,0H265l.07,0h.07l.08,0h.15l.07,0h.08l.07,0h.08l.07,0,.08,0h.07l.08,0H266l.08,0,.07,0h.08l.07,0,.08,0h.07l.08,0,.07,0,.08,0h.07l.08,0v-3.28l-.08,0-.07,0-.08,0-.07,0-.08,0-.07,0-.08,0-.07,0-.08,0-.07,0-.08,0-.07,0-.08,0-.07,0-.08,0-.07,0-.08,0-.07,0-.08,0-.07,0-.08,0-.07,0-.08,0-.07,0-.07,0-.08,0-.07,0-.08,0-.07,0-.08,0-.07,0-.08,0-.07,0-.08,0-.07,0-.08,0-.07,0-.08,0-.07,0-.08,0-.07,0-.08,0-.07,0-.08,0-.07,0-.08,0-.07,0h-.08l-.07,0-.08,0H263l-.08,0-.07,0-.08,0h-.15l-.07,0h-.08l-.07,0h-.15l-.08,0h-3.59l-.07,0h-.08l-.07,0-.08,0h-.07l-.07,0-.08,0-.07,0-.08,0-.07,0-.08,0-.07,0-.08,0-.07,0-.08,0-.07,0-.08,0-.07,0-.08,0-.07,0-.08,0-.07,0-.08,0-.07,0-.08,0-.07,0-.08,0-.07,0-.08-.05-.07,0-.08-.06-.07-.05-.08-.06-.07,0-.08-.06-.07-.06-.08-.07-.07-.07-.08-.07-.07-.08-.08-.07-.07-.09-.08-.08-.07-.09-.08-.1-.07-.1a1,1,0,0,0-.08-.11L255,239l-.08-.13-.07-.13s0-.1-.08-.14l-.07-.16-.08-.18c0-.06-.05-.13-.07-.2s-.05-.15-.08-.23-.05-.18-.07-.27-.05-.24-.08-.36,0-.36-.07-.55,0-.44,0-.67,0-.45,0-.67,0-.37.07-.55.05-.24.08-.35,0-.18.07-.27.05-.16.08-.23,0-.13.07-.2a1.59,1.59,0,0,1,.08-.18c0-.06.05-.11.07-.16l.08-.15.07-.12L255,233l.07-.12.08-.11.07-.1.08-.1.07-.09.08-.09.07-.08.08-.08.07-.07.08-.07.07-.07.08-.07.07-.06.08-.06.07-.06.08-.05.07,0,.08-.05.07,0,.08-.05.07,0,.08-.05.07,0,.08,0,.07,0,.08,0,.07,0,.08,0,.07,0,.08,0,.07,0,.08,0,.07,0,.08,0,.07,0,.08,0,.07,0,.08,0,.07,0,.08,0,.07,0,.08,0h.07l.07,0,.08,0,.07,0h.15l.08,0h3.36l.08,0h.22l.08,0h.15l.07,0h.08l.07,0,.08,0H263l.08,0,.07,0h.08l.07,0,.08,0,.07,0,.08,0,.07,0,.08,0,.07,0,.08,0,.07,0,.08,0,.07,0,.08,0,.07,0,.08,0,.07,0,.08,0,.07,0,.08,0,.07,0,.08,0,.07,0,.08,0,.07,0,.08,0,.07,0,.07,0,.08,0,.07,0,.08,0,.07,0,.08,0,.07,0,.08,0,.07,0,.08,0,.07,0,.08,0,.07,0,.08,0,.07,0,.08,0,.07,0,.08,0,.07,0,.08,0,.07,0,.08,0,.07,0,.08,0v-3.28h-.08l-.07,0-.08,0-.07,0-.08,0h-.07l-.08,0-.07,0h-.08l-.07,0H266l-.07,0-.08,0h-.07l-.08,0-.07,0h-.08l-.07,0h-.08l-.07,0h-.15l-.08,0h-.07l-.07,0h-.08l-.07,0h-.15l-.08,0h-.15l-.07,0h-.15l-.08,0h-.3l-.07,0h-8.24l-.08,0h-.3l-.07,0H255l-.08,0h-.07l-.08,0h-.07l-.08,0h-.07l-.07,0-.08,0h-.07l-.08,0-.07,0h-.08l-.07,0-.08,0-.07,0-.08,0-.07,0-.08,0-.07,0-.08,0-.07,0-.08,0-.07,0-.08,0-.07,0-.08,0-.07,0-.08,0-.07,0-.08,0-.07,0-.08,0-.07,0-.08,0-.07,0-.08,0-.07,0-.08,0-.07,0-.08,0-.07,0-.08,0-.07,0-.08,0-.07,0-.08,0-.07,0-.08,0-.07,0-.08,0-.07,0-.08,0-.07,0-.08,0-.07,0-.08.05-.07,0-.08.05-.07.05-.08,0-.07.06-.08.05-.07,0-.08.06-.07.06-.08.06Z"/></clipPath><clipPath id="clip-path-26"><path class="cls-1" d="M205.25,236.94h5l.08,0,.07,0,.08,0,.07,0,.08,0,.07,0,.08,0,.07,0,.08.05.07.06.08.06.07.06.08.07.07.08.08.09.07.11a.62.62,0,0,1,.08.12s.05.09.07.14a1.3,1.3,0,0,1,.08.17c0,.09.05.18.07.26a1.95,1.95,0,0,1,0,1,2.5,2.5,0,0,1-.07.26.89.89,0,0,1-.08.17.46.46,0,0,1-.07.14l-.08.12-.07.11-.08.09-.07.08-.08.07-.07.06-.08.06-.07.06-.08.05-.07,0-.08,0-.07,0-.08,0-.07,0-.08,0-.07,0-.08,0h-5v-4.06Zm6-4.63a1.92,1.92,0,0,1,0,.87,2,2,0,0,1-.07.26c0,.06,0,.12-.08.17l-.07.14a1,1,0,0,1-.08.11.86.86,0,0,1-.07.1l-.08.08-.07.08-.08.06-.07.06-.08.06-.07,0-.08,0-.07,0-.08,0-.07,0-.08,0-.07,0-.08,0-.07,0h-4.61v-3.77h4.53l.08,0,.07,0,.08,0,.07,0,.08,0,.07,0,.08,0,.07,0,.08,0,.07.05.08,0,.07.06.08.07.07.07.08.09.07.09.08.12a.76.76,0,0,1,.07.13s0,.11.08.17a2,2,0,0,1,.07.26Zm9.27-19.56h0V251.5a5.32,5.32,0,0,1,0,.69c0,.19,0,.39-.07.59s-.05.25-.08.38a2.82,2.82,0,0,1-.07.31c0,.11,0,.19-.08.27a1.55,1.55,0,0,1-.07.23l-.07.21-.08.2a1.34,1.34,0,0,0-.07.18l-.08.17a1,1,0,0,0-.07.15l-.08.15-.07.15-.08.13-.07.12-.08.13-.07.12-.08.12-.07.11-.08.1-.07.11-.08.09-.07.1-.08.09-.07.09-.08.09-.07.08-.08.09-.07.08-.08.07-.07.08-.08.07-.07.08-.08.06-.07.07-.08.07-.07.06-.08.07-.07.06-.08.06-.07.06-.08.05-.07.06-.08.05-.07.05-.08.06-.07,0L217,258l-.07,0-.08.05-.07,0-.08.05-.07,0-.08,0-.07,0-.08,0-.07,0-.08,0-.07,0-.08,0-.07,0-.08,0-.07,0-.08,0-.07,0-.08,0-.07,0-.08,0-.07,0-.07,0-.08,0-.07,0-.08,0-.07,0-.08,0-.07,0-.08,0-.07,0-.08,0-.07,0h-.08l-.07,0-.08,0h-.07l-.08,0h-.15l-.07,0H201.44v-15.8h13.18l.08,0h.07l.08,0h.07l.08,0h.07l.08,0,.07,0,.08,0,.07,0,.08,0,.07,0,.08,0,.07,0,.08,0,.07,0,.08,0,.07,0,.08,0,.07,0,.08,0,.07,0,.08,0,.07,0,.08,0,.07-.05.08,0,.07-.05.08,0,.07-.05.08-.05.07-.06.08-.06.07-.06.08-.07.07-.07.08-.07.07-.08.08-.08.07-.09.08-.1a.86.86,0,0,0,.07-.1,1,1,0,0,0,.08-.11.63.63,0,0,0,.07-.12l.08-.13s.05-.09.07-.14l.08-.17c0-.06,0-.13.07-.2l.08-.26c0-.13,0-.26.07-.39a4.07,4.07,0,0,0,0-.5,3.87,3.87,0,0,0,0-.48c0-.13,0-.25-.07-.38s-.05-.17-.08-.24-.05-.13-.07-.2l-.08-.16s0-.1-.07-.14l-.08-.13a1.27,1.27,0,0,0-.07-.12l-.08-.1a.86.86,0,0,0-.07-.1l-.08-.09-.07-.09-.08-.08-.07-.07-.08-.07-.07-.07-.08-.06-.07-.06-.08-.06-.07-.06-.08-.05-.07-.05-.08,0-.07,0-.08-.05-.07,0-.08,0-.07,0-.08,0-.07,0-.08,0-.07,0-.08,0-.07,0-.08,0-.07,0-.08,0-.07,0-.08,0-.07,0-.08,0-.07,0-.08,0-.07,0h-.08l-.07,0-.08,0h-.07l-.08,0h-.07l-.08,0H214v-.09h.14l.08,0h.07l.07,0h.08l.07,0,.08,0,.07,0,.08,0,.07,0,.08,0,.07,0,.08,0,.07,0,.08,0,.07,0,.08,0,.07,0,.08,0,.07,0,.08,0,.07,0,.08,0,.07,0,.08,0L216,235l.08-.05.07-.06.08,0,.07-.06.08-.07.07-.07.08-.07.07-.07.08-.09.07-.08.08-.09.07-.11A1,1,0,0,0,217,234l.07-.11.08-.13.07-.15s.05-.12.08-.17.05-.14.07-.21.05-.17.08-.25a3.5,3.5,0,0,0,.07-.45c0-.12,0-.24,0-.36s0-.25,0-.38a3.5,3.5,0,0,0-.07-.45c0-.08-.05-.17-.08-.26s0-.14-.07-.21l-.08-.16-.07-.15-.08-.13-.07-.12-.08-.1-.07-.1-.08-.09-.07-.08-.08-.08-.07-.07-.08-.07-.07-.07-.08-.06-.07-.06-.08-.05-.07-.06-.08-.05-.07,0-.08,0-.07,0-.08,0-.07,0-.08,0-.07,0-.08,0-.07,0-.08,0-.07,0-.08,0-.07,0-.08,0-.07,0-.08,0-.07,0-.08,0-.07,0-.08,0h-.07l-.08,0-.07,0h-.07l-.08,0H201.45v-8a8.38,8.38,0,0,1,.16-1.58c0-.11,0-.21.08-.32s.05-.18.07-.28l.08-.24a1.72,1.72,0,0,0,.07-.21l.08-.2a1.46,1.46,0,0,0,.07-.19l.08-.17.07-.16.08-.15.07-.14.08-.14.07-.13.08-.13.07-.12.08-.11.07-.11.08-.11.07-.1.08-.1.07-.1.08-.09.07-.09.08-.09.07-.09.08-.08.07-.08.08-.08.07-.07.08-.08.07-.07.08-.07.07-.07.08-.07.07-.06.08-.07.07-.06.08-.06.07-.06.08,0,.07-.06.08-.05.07-.06.08,0,.07-.05.08,0,.07-.05.08-.05.07,0,.08,0,.07,0,.08,0,.07,0,.08,0,.07,0,.08,0,.07,0,.08,0,.07,0,.08,0,.07,0,.08,0,.07,0,.07,0,.08,0,.07,0,.08,0,.07,0,.08,0,.07,0,.08,0,.07,0,.08,0,.07,0,.08,0,.07,0,.08,0h.07l.08,0,.07,0h.08l.07,0h.08l.07,0H208l.08,0h12.48Z"/></clipPath><clipPath id="clip-path-27"><path class="cls-1" d="M158.58,239.64V220.5a7.63,7.63,0,0,1,.16-1.58,3,3,0,0,1,.07-.32,2.29,2.29,0,0,1,.08-.28,1.68,1.68,0,0,1,.07-.24l.08-.22a1.46,1.46,0,0,1,.07-.19c0-.07,0-.13.08-.19s0-.11.07-.17l.08-.16a1,1,0,0,1,.07-.15c0-.05.05-.1.08-.14a.91.91,0,0,1,.07-.14.83.83,0,0,0,.07-.13l.08-.13.07-.12.08-.11.07-.11A1,1,0,0,1,160,216l.07-.1.08-.1a.86.86,0,0,1,.07-.1l.08-.09.07-.09.08-.09.07-.09.08-.08.07-.08.08-.08.07-.08.08-.07.07-.07.08-.07.07-.07.08-.07.07-.06.08-.06.07-.07.08-.06.07-.06.08-.06.07-.05.08,0,.07-.06.08-.05.07,0,.08-.05.07-.05.08,0,.07,0,.08-.05.07,0,.08,0,.07,0,.08,0,.07,0,.08,0,.07,0,.08,0,.07,0,.08,0,.07,0,.08,0,.07,0,.08,0,.07,0,.08,0,.07,0,.08,0,.07,0,.08,0,.07,0,.08,0,.07,0,.08,0,.07,0,.07,0,.08,0h.07l.08,0,.07,0,.08,0h.15l.07,0h.15l.08,0h12.54v38.75a6.63,6.63,0,0,1-.07,1c0,.16,0,.31-.07.46a3.59,3.59,0,0,1-.08.35,2.46,2.46,0,0,1-.07.29c0,.09-.05.17-.08.25s0,.15-.07.22l-.08.21a1,1,0,0,1-.07.18l-.08.18a.77.77,0,0,1-.07.16l-.08.16a.91.91,0,0,1-.07.14l-.08.14-.07.13-.08.13-.07.12-.08.12-.07.11-.07.11-.08.1-.07.1-.08.1a.36.36,0,0,0-.07.1l-.08.09-.07.09-.08.08-.07.09-.08.08-.07.08-.08.07-.07.08-.08.07-.07.07-.08.07-.07.07-.08.06-.07.07-.08.06-.07.06-.08.06-.07.06-.08.05-.07.06-.08.05-.07.05-.08,0-.07.05-.08.05-.07.05-.08.05-.07,0-.08,0-.07.05-.08,0-.07,0-.08,0-.07,0-.08,0-.07,0-.08,0-.07,0-.08,0-.07,0-.08,0-.07,0-.08,0-.07,0-.08,0-.07,0-.08,0-.07,0-.08,0-.07,0-.08,0-.07,0-.08,0-.07,0-.08,0-.07,0h-.08l-.07,0-.07,0h-.08l-.07,0h-.08l-.07,0H158.58V242.92l.16,0,.07,0,.08,0H159l.08,0,.07,0,.08,0h.07l.08,0,.07,0h.08l.07,0h.07l.08,0,.07,0h.08l.07,0H160l.07,0h.15l.08,0h.07l.08,0h.15l.07,0h.15l.08,0h.3l.07,0h.6l.08,0h.22l.08,0h7.79l.07,0h.15l.07,0h.08l.07,0h.08l.07,0h.08l.07,0,.08,0,.07,0H171l.07,0,.08,0,.07,0,.08,0,.07,0,.08,0,.07,0,.08,0,.07,0,.08,0,.07,0,.08,0,.07,0,.08,0,.07,0,.08,0,.07,0,.08,0,.07,0,.08,0,.07,0,.08,0,.07,0,.08,0,.07,0,.08,0,.07,0,.08,0,.07,0,.08,0,.07-.05.08,0,.07,0,.08,0,.07,0,.08-.05.07,0,.08-.05.07-.05.08-.06.07-.05.08-.06.07-.06.08-.06.07-.07.08-.07.07-.06.08-.08.07-.07.08-.08.07-.08.07-.09.08-.09.07-.1.08-.1a.61.61,0,0,0,.07-.1l.08-.11a.75.75,0,0,0,.07-.12l.08-.13c0-.05.05-.09.07-.14l.08-.15.07-.16.08-.18c0-.06,0-.13.07-.2a2.09,2.09,0,0,0,.08-.23l.07-.28c0-.12.06-.23.08-.35a5,5,0,0,0,.07-.54,6.62,6.62,0,0,0,0-.77v-9h-6.66l-.06,9a2.82,2.82,0,0,1,0,.41,4.46,4.46,0,0,1-.07.51,2.45,2.45,0,0,1-.08.29,1.55,1.55,0,0,1-.07.23,1.08,1.08,0,0,1-.08.19c0,.06-.05.11-.07.17l-.08.14c0,.05-.05.09-.07.13l-.08.12-.07.11-.08.1-.07.09-.08.09-.07.08-.08.07-.07.07-.08.07-.07.06-.07.06-.08.06-.07,0-.08.05-.07,0-.08,0-.07,0-.08,0-.07,0-.08,0-.07,0-.08,0-.07,0-.08,0-.07,0-.08,0-.07,0-.08,0-.07,0-.08,0-.07,0h-.08l-.07,0h-.08l-.07,0h-3l-.07,0h-.08l-.06,0-.08,0h-.07l-.08,0h-.07l-.08,0h-.07l-.08,0-.07,0h-.08l-.07,0-.08,0-.07,0-.08,0-.07,0h-.08l-.07,0-.08,0-.07,0-.08,0-.07,0-.07,0-.08,0-.07,0-.08,0-.07,0-.08,0-.07,0-.08,0-.07,0-.08,0-.07,0-.08,0-.07,0-.08,0-.07,0-.08,0-.07,0-.08,0-.07,0-.08,0-.07,0-.08,0-.07,0-.08,0-.07,0-.08,0-.07,0-.08,0-.07,0-.08,0-.07,0-.08,0-.07,0-.08,0-.07,0-.08,0-.07,0-.08,0Z"/></clipPath><clipPath id="clip-path-28"><path class="cls-1" d="M180.18,230.51l-.16.13V220.49a7.54,7.54,0,0,1,.16-1.57c0-.11,0-.22.08-.33a1.76,1.76,0,0,1,.07-.27c0-.09,0-.16.08-.24a1.42,1.42,0,0,1,.07-.22l.08-.2a1,1,0,0,1,.07-.18c0-.06.05-.12.07-.17s.05-.11.08-.16a1,1,0,0,0,.07-.15l.08-.15.07-.13.08-.13.07-.12.08-.12.07-.12.08-.11.07-.11.08-.1.07-.1.08-.1.07-.09.08-.09.07-.09.08-.08.07-.09.08-.08.07-.08.08-.07.07-.08.08-.07.07-.07.08-.07.07-.06.08-.07.07-.06.08-.07.07-.06.08-.06.07-.05.08-.06.07,0,.08-.06.07-.05.08,0,.07-.05.08-.05.07,0,.08,0,.07,0,.08,0,.07,0,.08,0,.07,0,.08,0,.07,0,.08,0,.07,0,.08,0,.07,0,.08,0,.07,0,.08,0,.07,0,.08,0,.07,0,.08,0,.07,0,.08,0,.07,0,.08,0,.07,0,.07,0,.08,0,.07,0h.08l.07,0,.08,0,.07,0,.08,0h.07l.08,0h.07l.08,0h.15l.07,0h12.54v38.75a8.26,8.26,0,0,1-.06,1c0,.16,0,.31-.08.46s0,.24-.07.35,0,.2-.08.29-.05.17-.07.25-.05.15-.08.22-.05.13-.07.21a1.59,1.59,0,0,1-.08.18l-.07.18-.08.16-.07.16-.08.14-.07.14-.08.13-.07.13-.08.12-.07.12-.08.11-.07.11-.08.1-.07.1-.07.1-.08.09-.07.1-.08.08-.07.09-.08.09-.07.08-.08.08-.07.07-.08.08-.07.07-.08.07-.07.07-.08.07-.07.06-.08.07-.07.06-.08.06-.07.06-.08.06-.07.05-.08.06-.07.05-.08.05-.07,0-.08.05-.07.05-.08.05-.07.05-.08,0-.07,0-.08.05-.07,0-.08,0-.07,0-.08,0-.07,0-.08,0-.07,0-.08,0-.07,0-.08,0-.07,0-.08,0-.07,0-.08,0-.07,0-.08,0-.07,0-.08,0-.07,0-.08,0-.07,0-.08,0-.07,0-.08,0-.07,0-.08,0-.07,0h-.08l-.07,0-.08,0h-.14l-.08,0H180V241.36l.16.13.07.06.08.06.07,0,.08.06.07.05.08,0,.07.06.08.05.07,0,.08.05.07,0,.08,0,.07,0,.08,0,.07,0,.08,0,.07,0,.08,0,.07,0,.08,0,.07,0,.08,0,.07,0,.08,0,.07,0,.08,0,.07,0,.08,0,.07,0,.08,0,.07,0,.08,0,.07,0,.08,0,.07,0,.08,0,.07,0,.08,0,.07,0,.08,0,.07,0,.08,0,.07,0,.08,0,.07,0,.08,0,.07,0,.08,0,.07,0,.08,0,.07,0,.08,0,.07,0,.07,0,.08,0h.07l.08,0,.07,0h.08l.07,0,.08,0h.07l.08,0H185l.08,0h.15l.07,0h.23l.07,0h8.31l.08,0h.3l.07,0h.23l.07,0h.15l.08,0H195l.07,0h.08l.07,0h.08l.07,0h.15l.08,0h.07l.08,0h.07l.08,0,.07,0h.08l.07,0h.08l.07,0,.08,0h.07l.08,0,.07,0h.08l.07,0,.08,0,.07,0H197l.07,0v-3.28l-.07,0-.08,0-.07,0-.08,0-.07,0-.08,0-.07,0-.08,0-.07,0-.08,0-.07,0-.08,0-.07,0-.08,0-.07,0-.08,0-.07,0-.08,0-.07,0-.08,0-.07,0-.08,0-.07,0-.08,0-.07,0-.08,0-.07,0-.08,0-.07,0-.08,0-.07,0-.08,0-.07,0-.08,0-.07,0-.08,0-.07,0-.08,0-.07,0-.08,0-.07,0-.08,0-.07,0-.08,0-.07,0-.08,0-.07,0h-.07l-.08,0-.07,0h-.08l-.07,0-.08,0-.07,0h-.15l-.08,0h-.07l-.08,0h-.15l-.07,0H188.8l-.08,0h-.07l-.08,0-.07,0h-.08l-.07,0-.08,0-.07,0-.08,0-.07,0-.08,0-.07,0-.08,0-.07,0-.08,0-.07,0-.08,0-.07,0-.08,0-.07,0-.08,0-.07,0-.08,0-.07,0-.08,0-.07,0-.08,0-.07,0-.07-.05-.08,0-.07-.06-.08-.05-.07-.06-.08,0-.07-.06-.08-.06L186,240l-.08-.07-.07-.07-.08-.08-.07-.07-.08-.09-.07-.08-.08-.09-.07-.1-.08-.1-.07-.11-.08-.12-.07-.13-.08-.13-.07-.14c0-.05,0-.11-.08-.16l-.07-.18c0-.06-.05-.13-.08-.2s-.05-.15-.07-.23-.05-.18-.08-.27,0-.24-.07-.36a4.85,4.85,0,0,1-.08-.55c0-.21,0-.44,0-.67s0-.45,0-.67a4.85,4.85,0,0,1,.08-.55c0-.12,0-.24.07-.35s.05-.18.08-.27a1.25,1.25,0,0,1,.07-.23l.08-.2a1.71,1.71,0,0,1,.07-.18l.08-.16.07-.15a1.25,1.25,0,0,1,.08-.12l.07-.13.08-.12.07-.11.08-.1.07-.1.08-.09.07-.09.08-.08.07-.08.08-.07.07-.07L186,232l.07-.07.08-.06.07-.06.08-.06.07-.05.08,0,.07-.05.08,0,.07-.05.07,0,.08-.05.07,0,.08,0,.07,0,.08,0,.07,0,.08,0,.07,0,.08,0,.07,0,.08,0,.07,0,.08,0,.07,0,.08,0,.07,0,.08,0,.07,0,.08,0,.07,0,.08,0h.07l.08,0,.07,0,.08,0h.15l.07,0h3.37l.07,0h.23l.07,0h.15l.08,0h.07l.08,0,.07,0h.08l.07,0,.08,0h.07l.08,0,.07,0,.07,0,.08,0,.07,0,.08,0,.07,0,.08,0,.07,0,.08,0,.07,0,.08,0,.07,0,.08,0,.07,0,.08,0,.07,0,.08,0,.07,0,.08,0,.07,0,.08,0,.07,0,.08,0,.07,0,.08,0,.07,0,.08,0,.07,0,.08,0,.07,0,.08,0,.07,0,.08,0,.07,0,.08,0,.07,0,.08,0,.07,0,.08,0,.07,0,.08,0,.07,0,.08,0,.07,0,.08,0,.07,0,.08,0,.07,0v-3.28H197l-.08,0-.07,0-.08,0-.07,0h-.08l-.07,0-.08,0h-.07l-.08,0h-.07l-.08,0-.07,0H196l-.07,0-.08,0h-.07l-.08,0h-.07l-.08,0h-.15l-.07,0h-.08l-.07,0h-.08l-.07,0h-.15l-.08,0h-.15l-.07,0h-.15l-.08,0H194l-.07,0h-8.24l-.07,0h-.3l-.08,0h-.15l-.07,0H185l-.07,0h-.08l-.07,0h-.08l-.07,0-.08,0h-.07l-.08,0-.07,0h-.08l-.07,0-.08,0-.07,0-.08,0-.07,0-.08,0-.07,0-.08,0-.07,0-.08,0-.07,0-.08,0-.07,0-.08,0-.07,0-.08,0-.07,0-.07,0-.08,0-.07,0-.08,0-.07,0-.08,0-.07,0-.08,0-.07,0-.08,0-.07,0-.08,0-.07,0-.08,0-.07,0-.08,0-.07,0-.08,0-.07,0-.08,0-.07,0-.08,0-.07,0-.08,0-.07,0-.08,0-.07.05-.08,0-.07.05-.08.05-.07,0-.08.06-.07.05-.08,0-.07.06-.08.06-.07.06Z"/></clipPath><clipPath id="clip-path-29"><path class="cls-1" d="M239.57,349.5a.28.28,0,0,0-.3-.3h-1.05a.36.36,0,0,0-.38.32,0,0,0,0,0,0,.05v1.68c0,.24.14.36.42.37h1a.36.36,0,0,0,.25-.1.24.24,0,0,0,.11-.2V349.5Zm-3.09-.24a1.38,1.38,0,0,1,.32-1,1.34,1.34,0,0,1,.4-.23,1.24,1.24,0,0,1,.5-.1h1.93a1.13,1.13,0,0,1,1.29,1.24v2.54a1,1,0,0,1-.38.76,1.27,1.27,0,0,1-.88.34h-1.83v1.83h-1.35v-5.42Z"/></clipPath><clipPath id="clip-path-30"><path class="cls-1" d="M243.36,351.37a.2.2,0,0,0,.11.17.41.41,0,0,0,.24.08h1c.23,0,.36-.09.36-.25V351c0-.19-.12-.29-.37-.29h-1a.46.46,0,0,0-.28.06.36.36,0,0,0-.07.26v.31Zm1.75-1.9c0-.18-.11-.27-.36-.26H242V348h3.06c.89,0,1.34.4,1.36,1.16v2.58a1.1,1.1,0,0,1-.34.81,1.21,1.21,0,0,1-.88.34h-1.85c-.9,0-1.36-.38-1.37-1.1v-1a1.08,1.08,0,0,1,1-1.16h2.08v-.12Z"/></clipPath><clipPath id="clip-path-31"><path class="cls-1" d="M250.24,353.44a.45.45,0,0,0,.28-.1.27.27,0,0,0,.11-.19v-.3H248.9a1.6,1.6,0,0,1-.54-.07,1.34,1.34,0,0,1-.43-.26,1.26,1.26,0,0,1-.38-.91V348h1.35v3.26q0,.39.36.39h1a.45.45,0,0,0,.29-.1.25.25,0,0,0,.12-.2V348H252v5.39a1.4,1.4,0,0,1-.34,1,1.24,1.24,0,0,1-.92.37h-3.15v-1.24h2.7"/></clipPath><clipPath id="clip-path-32"><path class="cls-1" d="M253,351.61h2.4c.22,0,.34-.08.34-.23v-.11a.2.2,0,0,0,0-.11.23.23,0,0,0-.2-.14h-1.19a1.46,1.46,0,0,1-.91-.32,1,1,0,0,1-.4-.72v-.92c0-.72.46-1.08,1.32-1.1h2.79v1.24h-2.36c-.28,0-.42.08-.42.23v.12c0,.15.14.23.43.23H256a1.2,1.2,0,0,1,.81.33,1,1,0,0,1,.35.76v.9a1.2,1.2,0,0,1-.39.76,1.09,1.09,0,0,1-.38.25,1.58,1.58,0,0,1-.53.07H253v-1.24"/></clipPath><clipPath id="clip-path-33"><path class="cls-1" d="M259.46,351.37a.18.18,0,0,0,.11.17.41.41,0,0,0,.24.08h1c.24,0,.36-.09.36-.25V351c0-.19-.12-.29-.37-.29h-1a.48.48,0,0,0-.28.06.41.41,0,0,0-.07.26v.31Zm1.75-1.9c0-.18-.11-.27-.36-.26h-2.72V348h3.06c.89,0,1.35.4,1.36,1.16v2.58a1.14,1.14,0,0,1-.34.81,1.2,1.2,0,0,1-.88.34h-1.85c-.9,0-1.36-.38-1.37-1.1v-1a1.08,1.08,0,0,1,1-1.16h2.08v-.12Z"/></clipPath><clipPath id="clip-path-34"><path class="cls-1" d="M263.65,347.27a1,1,0,0,1,.41-.8,1.67,1.67,0,0,1,1-.32H266v1.19h-.53c-.28,0-.43.13-.43.37V348H266v1.24H265v3.65h-1.35v-5.59"/></clipPath><clipPath id="clip-path-35"><path class="cls-1" d="M269.79,349.45v0a.18.18,0,0,0-.08-.16.46.46,0,0,0-.23-.06h-.94a.51.51,0,0,0-.3.09.29.29,0,0,0-.14.23v.5l1.7-.57Zm-1.67,1.74v.08a.36.36,0,0,0,.09.24.23.23,0,0,0,.18.11h2.77v1.23h-3a1.94,1.94,0,0,1-.63-.07,1,1,0,0,1-.43-.23,1.06,1.06,0,0,1-.3-.4,1.58,1.58,0,0,1-.08-.57v-2.47a1.09,1.09,0,0,1,1.05-1.15,1.15,1.15,0,0,1,.26,0h1.82a1.14,1.14,0,0,1,1.28.93,1,1,0,0,1,0,.25v1l-3.05,1.06Z"/></clipPath><clipPath id="clip-path-36"><path class="cls-1" d="M274,352.85a2.59,2.59,0,0,1-.56-.05,1.29,1.29,0,0,1-.54-.22,1.18,1.18,0,0,1-.38-.48,1.36,1.36,0,0,1-.11-.6v-2.3a1.4,1.4,0,0,1,.06-.5,1.1,1.1,0,0,1,.29-.42,1.28,1.28,0,0,1,.51-.29,2.2,2.2,0,0,1,.57-.05h2.07v.29h-2a1.53,1.53,0,0,0-.84.19.84.84,0,0,0-.32.74v2.3a1.36,1.36,0,0,0,.09.48.89.89,0,0,0,.28.39,1.16,1.16,0,0,0,.44.19,2.42,2.42,0,0,0,.47,0H276v.29H274"/></clipPath><clipPath id="clip-path-37"><path class="cls-1" d="M281.26,349.86h-2.71a1.08,1.08,0,0,0-.76.27.9.9,0,0,0-.29.72v.73a1.6,1.6,0,0,0,.05.39.59.59,0,0,0,.25.33,1.28,1.28,0,0,0,.78.26h1.65a.92.92,0,0,0,1-.74.89.89,0,0,0,0-.23v-1.73Zm.32,1.66a2.63,2.63,0,0,1,0,.49,1,1,0,0,1-.27.45,1.46,1.46,0,0,1-1,.39h-1.61a1.53,1.53,0,0,1-1-.33,1.12,1.12,0,0,1-.41-.92v-.74a1.2,1.2,0,0,1,1.12-1.29h3v-.33a1.08,1.08,0,0,0-.26-.7.87.87,0,0,0-.39-.26,2.22,2.22,0,0,0-.51-.06h-2.93v-.29H280a5.34,5.34,0,0,1,.69.05,1,1,0,0,1,.29.11.87.87,0,0,1,.27.23,1.4,1.4,0,0,1,.36,1v2.22Z"/></clipPath><clipPath id="clip-path-38"><path class="cls-1" d="M284.62,348.22c-.75,0-1.12.38-1.11,1.1v3.53h-.32v-3.53a1.2,1.2,0,0,1,1.07-1.38,1.41,1.41,0,0,1,.41,0H285v.29h-.41"/></clipPath><clipPath id="clip-path-39"><path class="cls-1" d="M290.08,348.23h-2.56a1.7,1.7,0,0,0-.5,0,.88.88,0,0,0-.44.25.86.86,0,0,0-.26.37,1.17,1.17,0,0,0-.06.45v2.25a.8.8,0,0,0,.37.77,1.72,1.72,0,0,0,.4.14,1.7,1.7,0,0,0,.5.05h1.12a1.8,1.8,0,0,0,1-.25.92.92,0,0,0,.41-.84v-3.24Zm.32,3.26c0,.93-.58,1.38-1.66,1.36h-1.2a3.16,3.16,0,0,1-.68-.05,1.35,1.35,0,0,1-.59-.34A1.11,1.11,0,0,1,286,352a1.66,1.66,0,0,1-.06-.54v-2.1a1.3,1.3,0,0,1,1.22-1.42,1.61,1.61,0,0,1,.38,0h2.54v-1.6h.32v5.15Z"/></clipPath><clipPath id="clip-path-40"><path class="cls-1" d="M229,347.78a1.92,1.92,0,0,1,.32-.09,2.11,2.11,0,0,1,4,0,1.53,1.53,0,0,1,.75.32,2.36,2.36,0,0,0,0-.46,2.79,2.79,0,0,0-5.49.12c0,.12,0,.23,0,.35a1.7,1.7,0,0,1,.44-.24"/></clipPath><clipPath id="clip-path-41"><path class="cls-1" d="M229.62,348a1.16,1.16,0,0,0-.49.1,1.27,1.27,0,0,0-.41.23,1.43,1.43,0,0,0-.32,1v2.3a1.43,1.43,0,0,0,.32,1,1.27,1.27,0,0,0,.41.23,1.16,1.16,0,0,0,.49.1h3.3a1.13,1.13,0,0,0,1.29-1.24v-2.4a1.13,1.13,0,0,0-1.29-1.24Z"/></clipPath><clipPath id="clip-path-42"><path class="cls-1" d="M272.94,572.49a2.53,2.53,0,0,0,2.54-2.54h0a2.54,2.54,0,0,0-2.54-2.54h0a2.54,2.54,0,1,0,0,5.08Zm-19.49,1.38a18,18,0,0,1-2.94,5V568.56l-5.33,1.05v18.76h5.33v-5.8a20.2,20.2,0,0,1,2.3,5.8h6.38c-.63-2.63-3.39-7.46-3.39-7.46a23.32,23.32,0,0,0,3.74-7Zm14-.19c-4.77.15-7.19,2.29-7.19,6.54v8.16h5.2v-6.65c0-2.55.34-3.64,3.36-3.75v-4.23a7,7,0,0,0-1.37-.07Zm-31.2,2.26c-.65-.05-2.16-.14-2.16-1.5,0-1.64,2.17-1.64,3-1.64a17.58,17.58,0,0,1,4.61.82s.74.26,1.37.52l.06,0v-4.49l-.08,0a18.5,18.5,0,0,0-6.76-1.07c-5.82,0-7.88,3.39-7.88,6.29,0,1.68.72,5.62,7.38,6.07.57,0,2.07.12,2.07,1.53,0,1.16-1.23,1.84-3.29,1.84a16.33,16.33,0,0,1-5.79-1.12v4.63a27,27,0,0,0,6.88.78c5.69,0,8.23-3.21,8.23-6.38,0-3.61-2.85-6-7.63-6.27Zm34.11,12.44h5.16V573.89h-5.16Zm14.88-18.89v18.89h5.16V568.57l-5.16.92Zm-7.54,0,5.16-.92v19.8H277.7V569.49Z"/></clipPath><clipPath id="clip-path-43"><path class="cls-1" d="M203.53,572.49a2.53,2.53,0,0,0,2.55-2.54h0a2.55,2.55,0,0,0-2.55-2.54h0a2.54,2.54,0,0,0,0,5.08ZM184,573.87a18,18,0,0,1-2.94,5V568.56l-5.32,1.05v18.76h5.32v-5.8a20.23,20.23,0,0,1,2.31,5.8h6.38c-.63-2.63-3.39-7.46-3.39-7.46a23.29,23.29,0,0,0,3.73-7Zm14-.19c-4.77.15-7.2,2.29-7.2,6.54v8.16h5.21v-6.65c0-2.55.33-3.64,3.35-3.75v-4.23a6.89,6.89,0,0,0-1.36-.07Zm-31.21,2.26c-.65-.05-2.16-.14-2.16-1.5,0-1.64,2.18-1.64,3-1.64a17.72,17.72,0,0,1,4.62.82s.74.26,1.37.52l.06,0v-4.49l-.08,0a18.53,18.53,0,0,0-6.76-1.07c-5.82,0-7.88,3.39-7.88,6.29,0,1.68.72,5.62,7.38,6.07.56,0,2.06.12,2.06,1.53,0,1.16-1.23,1.84-3.29,1.84a16.42,16.42,0,0,1-5.79-1.12v4.63a27,27,0,0,0,6.88.78c5.69,0,8.24-3.21,8.24-6.38,0-3.61-2.85-6-7.63-6.27ZM201,588.38h5.17V573.89H201Zm14.88-18.89v18.89H221V568.57l-5.17.92Zm-7.53,0,5.16-.92v19.8H208.3V569.49Z"/></clipPath><clipPath id="clip-path-44"><path class="cls-1" d="M385.49,669a23.16,23.16,0,0,1,10.15,2.34,15.36,15.36,0,0,1,1.45.75L395,674l-3.21-3.28-5.42,4.78L383.12,672,373,681l6.46,7.06L377,690.3l6.36,7.08-2.52,2.2,9.09,10,5.4-4.93L400,710a25.56,25.56,0,0,1-3,2,23.05,23.05,0,1,1-11.43-43"/></clipPath><clipPath id="clip-path-45"><polyline class="cls-1" points="381.27 690.55 386.78 685.62 391.74 691.09 386.24 696.03 381.28 690.56"/></clipPath><clipPath id="clip-path-46"><polyline class="cls-1" points="385.19 700 390.7 695.07 395.66 700.54 390.15 705.47 385.19 699.99"/></clipPath><clipPath id="clip-path-47"><polyline class="cls-1" points="377.33 681.21 382.84 676.28 387.8 681.75 382.29 686.68 377.33 681.21"/></clipPath><clipPath id="clip-path-48"><polyline class="cls-1" points="387.44 678.55 391.57 674.86 395.28 678.96 391.14 682.67 387.44 678.56"/></clipPath><clipPath id="clip-path-49"><polyline class="cls-1" points="394.78 695.47 398.92 691.76 402.62 695.87 398.49 699.57 394.77 695.47"/></clipPath><clipPath id="clip-path-50"><polyline class="cls-1" points="398.42 703.75 402.55 700.05 406.27 704.15 402.14 707.85 398.43 703.75"/></clipPath><clipPath id="clip-path-51"><polyline class="cls-1" points="400.08 684.77 402.84 682.3 405.32 685.04 402.56 687.5 400.08 684.77"/></clipPath><clipPath id="clip-path-52"><polyline class="cls-1" points="396.56 676.64 399.31 674.18 401.8 676.92 399.04 679.38 396.56 676.64"/></clipPath><clipPath id="clip-path-53"><polyline class="cls-1" points="403.6 692.89 406.36 690.43 408.84 693.17 406.08 695.63 403.6 692.89"/></clipPath><clipPath id="clip-path-54"><polyline class="cls-1" points="391.25 686.81 395.38 683.1 399.09 687.2 394.95 690.91 391.23 686.81"/></clipPath><clipPath id="clip-path-55"><path class="cls-1" d="M590.59,347.81a1.3,1.3,0,0,1-1.3-1.3v-5.74h-.48c-3,0-4.08.49-4.08,3.19v16.76a4.69,4.69,0,0,1-.64,2.61c-.81,1.25-2.41,1.81-5,1.82s-4.17-.57-5-1.82a4.78,4.78,0,0,1-.64-2.61V344c0-2.7-1.1-3.19-4.08-3.19h-.93c-3,0-4.08.49-4.08,3.19v16.76a12.58,12.58,0,0,0,1.78,6.82c2.27,3.56,6.67,5.46,12.91,5.46h0c6.24,0,10.64-1.9,12.91-5.46a12.58,12.58,0,0,0,1.78-6.82v-12.9h-3.24"/></clipPath><clipPath id="clip-path-56"><path class="cls-1" d="M604.33,338.56h-4.89a1,1,0,0,1-1-1v-4.95a1,1,0,0,1,1-1h4.89a1,1,0,0,1,1,1v4.95a1,1,0,0,1-1,1"/></clipPath><clipPath id="clip-path-57"><path class="cls-1" d="M597.82,331.67H594.5a.65.65,0,0,1-.65-.65v-3.36a.65.65,0,0,1,.65-.66h3.32a.65.65,0,0,1,.65.66V331a.65.65,0,0,1-.65.65"/></clipPath><clipPath id="clip-path-58"><path class="cls-1" d="M597.17,337.78h-6.58a1.3,1.3,0,0,0-1.3,1.3V340h.46c3,0,4.08.49,4.08,3.2v3.85h3.34a1.3,1.3,0,0,0,1.3-1.3v-6.67a1.3,1.3,0,0,0-1.3-1.3"/></clipPath><clipPath id="clip-path-59"><path class="cls-1" d="M176.65,342.09a10.59,10.59,0,0,1,1.94-.58c1.26-5.19,6.35-8.88,12.23-8.86s11,3.68,12.23,8.87a9.5,9.5,0,0,1,4.58,2,14.45,14.45,0,0,0-.12-2.79c-.84-7.78-8.09-13.69-16.74-13.65-8.94,0-16.33,6.28-16.77,14.35a19.46,19.46,0,0,0,0,2.16,11.16,11.16,0,0,1,2.64-1.47"/></clipPath><clipPath id="clip-path-60"><path class="cls-1" d="M180.52,343.23a8.08,8.08,0,0,0-3,.61,8.26,8.26,0,0,0-2.47,1.41,8.45,8.45,0,0,0-1.93,5.87v14a8.41,8.41,0,0,0,1.93,5.86,9.16,9.16,0,0,0,5.47,2h20.14q7.8-.07,7.92-7.61V350.83q-.12-7.54-7.92-7.6Z"/></clipPath></defs><title>giropay</title><g id="giropay"><g id="layer1"><path id="_92653320" data-name=" 92653320" class="cls-14" d="M1,15.45a4.81,4.81,0,0,1,4.81-4.78H58.19A4.81,4.81,0,0,1,63,15.45v17.1a4.8,4.8,0,0,1-4.8,4.78H5.81A4.79,4.79,0,0,1,1,32.56H1Z"/><path id="_92186184" data-name=" 92186184" class="cls-15" d="M3,15.62V32.39a3,3,0,0,0,3,3H33.42V12.63H6a3,3,0,0,0-3,3Zm37.54,8.3c0,1.07-.52,1.8-1.4,1.8A1.57,1.57,0,0,1,37.7,24c0-1,.57-1.75,1.41-1.75a1.49,1.49,0,0,1,1.41,1.58.28.28,0,0,1,0,.09ZM35.38,30h2.31V26.41h0a2.35,2.35,0,0,0,2.12,1.09c2,0,3.06-1.64,3.06-3.62,0-1.63-1-3.39-2.87-3.39a2.68,2.68,0,0,0-2.5,1.37h0V20.65H35.37v9.4Zm10.68-4.82c0-.65.62-.89,1.4-.89.35,0,.68,0,1,0A1.51,1.51,0,0,1,47,25.94c-.53,0-.95-.25-.95-.72Zm4.67,2.12a8.35,8.35,0,0,1-.12-1.58v-2.5c0-2-1.48-2.77-3.19-2.77a6.93,6.93,0,0,0-2.67.47l0,1.57a4.26,4.26,0,0,1,2.13-.5c.84,0,1.52.24,1.54,1.16a7.89,7.89,0,0,0-1.08-.1c-1.23,0-3.46.25-3.46,2.29,0,1.46,1.18,2.11,2.51,2.11a2.29,2.29,0,0,0,2.12-1.21h0c0,.35,0,.69,0,1.06h2.11Zm1,2.7a6.36,6.36,0,0,0,1.44.16c2.12,0,2.63-1.64,3.28-3.32L59,20.65H56.64L55.26,25h0L53.8,20.65H51.31L54,27.5a1.18,1.18,0,0,1-1.17.93,3.09,3.09,0,0,1-.91-.14Z"/><path id="_47303032" data-name=" 47303032" class="cls-16" d="M8.63,23.94c0-.92.45-1.68,1.31-1.68a1.46,1.46,0,0,1,1.48,1.45v.14A1.57,1.57,0,0,1,10,25.56H9.94C9.25,25.57,8.63,25,8.63,23.94Zm5-3.3h-2.1v1.21h0a2.63,2.63,0,0,0-2.28-1.36c-2.08,0-3,1.49-3,3.49s1.15,3.37,3,3.37a2.62,2.62,0,0,0,2.26-1.15h0v.37c0,1.31-.72,1.94-2.05,1.94A4.6,4.6,0,0,1,7.18,28l-.12,1.82a7.69,7.69,0,0,0,2.56.43c2.7,0,4-.89,4-3.64Zm3.91-2.79H15.26v1.7h2.31Zm-2.32,9.5h2.32V20.64H15.26ZM24,20.56a5,5,0,0,0-.78-.07,2.06,2.06,0,0,0-2,1.39h0V20.65h-2.1v6.7h2.32V24.53c0-1.32.6-2.1,1.68-2.1a2.62,2.62,0,0,1,.79.07Zm4,5.32c-1.07,0-1.5-.89-1.5-1.88s.43-1.89,1.5-1.89S29.51,23,29.51,24s-.44,1.88-1.5,1.88Zm0,1.62c2.22,0,3.9-1.29,3.9-3.5s-1.68-3.52-3.9-3.52S24.11,21.77,24.11,24s1.68,3.5,3.9,3.5Z"/></g></g></svg>