<svg id="Calque_1" data-name="Calque 1" xmlns="http://www.w3.org/2000/svg" xmlns:xlink="http://www.w3.org/1999/xlink" viewBox="0 0 64 48"><defs><style>.cls-1{fill:none;}.cls-2{clip-path:url(#clip-path);}.cls-3{clip-path:url(#clip-path-2);}.cls-4{clip-path:url(#clip-path-3);}.cls-5{clip-path:url(#clip-path-4);}.cls-6{clip-path:url(#clip-path-5);}.cls-7{clip-path:url(#clip-path-11);}.cls-8{clip-path:url(#clip-path-12);}.cls-9{clip-path:url(#clip-path-13);}.cls-10{clip-path:url(#clip-path-14);}.cls-11{clip-path:url(#clip-path-15);}.cls-12{clip-path:url(#clip-path-21);}.cls-13{clip-path:url(#clip-path-22);}.cls-14{clip-path:url(#clip-path-23);}.cls-15{clip-path:url(#clip-path-24);}.cls-16{clip-path:url(#clip-path-25);}.cls-17{clip-path:url(#clip-path-26);}.cls-18{clip-path:url(#clip-path-27);}.cls-19{clip-path:url(#clip-path-28);}.cls-20{clip-path:url(#clip-path-29);}.cls-21{clip-path:url(#clip-path-30);}.cls-22{clip-path:url(#clip-path-31);}.cls-23{clip-path:url(#clip-path-32);}.cls-24{clip-path:url(#clip-path-33);}.cls-25{clip-path:url(#clip-path-34);}.cls-26{clip-path:url(#clip-path-35);}.cls-27{clip-path:url(#clip-path-36);}.cls-28{clip-path:url(#clip-path-37);}.cls-29{clip-path:url(#clip-path-38);}.cls-30{clip-path:url(#clip-path-39);}.cls-31{clip-path:url(#clip-path-40);}.cls-32{clip-path:url(#clip-path-41);}.cls-33{clip-path:url(#clip-path-42);}.cls-34{clip-path:url(#clip-path-43);}.cls-35{clip-path:url(#clip-path-44);}.cls-36{clip-path:url(#clip-path-45);}.cls-37{clip-path:url(#clip-path-46);}.cls-38{clip-path:url(#clip-path-47);}.cls-39{clip-path:url(#clip-path-48);}.cls-40{clip-path:url(#clip-path-49);}.cls-41{clip-path:url(#clip-path-50);}.cls-42{clip-path:url(#clip-path-51);}.cls-43{clip-path:url(#clip-path-52);}.cls-44{clip-path:url(#clip-path-53);}.cls-45{clip-path:url(#clip-path-54);}.cls-46{clip-path:url(#clip-path-55);}.cls-47{clip-path:url(#clip-path-56);}.cls-48{clip-path:url(#clip-path-57);}.cls-49{clip-path:url(#clip-path-58);}.cls-50{clip-path:url(#clip-path-59);}.cls-51{clip-path:url(#clip-path-60);}.cls-52{clip-path:url(#clip-path-61);}.cls-53{clip-path:url(#clip-path-62);}.cls-54{clip-path:url(#clip-path-63);}.cls-55{clip-path:url(#clip-path-64);}.cls-56{clip-path:url(#clip-path-65);}.cls-57{clip-path:url(#clip-path-66);}.cls-58{clip-path:url(#clip-path-67);}.cls-59{clip-path:url(#clip-path-68);}.cls-60{clip-path:url(#clip-path-69);}.cls-61{clip-path:url(#clip-path-70);}.cls-62{clip-path:url(#clip-path-71);}.cls-63{clip-path:url(#clip-path-72);}.cls-64{clip-path:url(#clip-path-73);}.cls-65{clip-path:url(#clip-path-74);}.cls-66{clip-path:url(#clip-path-75);}.cls-67{clip-path:url(#clip-path-76);}.cls-68{clip-path:url(#clip-path-77);}.cls-69{clip-path:url(#clip-path-78);}.cls-70{clip-path:url(#clip-path-79);}.cls-71{clip-path:url(#clip-path-80);}.cls-72{clip-path:url(#clip-path-81);}.cls-73{clip-path:url(#clip-path-82);}.cls-74{clip-path:url(#clip-path-83);}.cls-75{clip-path:url(#clip-path-84);}.cls-76{clip-path:url(#clip-path-85);}.cls-77{clip-path:url(#clip-path-86);}.cls-78{clip-path:url(#clip-path-87);}.cls-79{clip-path:url(#clip-path-88);}.cls-80{clip-path:url(#clip-path-89);}.cls-81{fill:#fff;}.cls-82{fill:#c06;}</style><clipPath id="clip-path"><polyline class="cls-1" points="-301.1 -260.24 -297.96 -279.71 -292.94 -279.71 -296.08 -260.24 -301.1 -260.24"/></clipPath><clipPath id="clip-path-2"><path class="cls-1" d="M-277.88-279.23a12.37,12.37,0,0,0-4.5-.82c-5,0-8.45,2.64-8.48,6.42,0,2.8,2.49,4.37,4.39,5.3s2.62,1.56,2.61,2.41c0,1.31-1.56,1.9-3,1.9a10,10,0,0,1-4.73-1l-.65-.31-.7,4.36a15.07,15.07,0,0,0,5.59,1c5.28,0,8.7-2.61,8.74-6.65,0-2.22-1.32-3.9-4.21-5.29-1.76-.91-2.83-1.5-2.82-2.42s.91-1.67,2.87-1.67a8.66,8.66,0,0,1,3.76.75l.45.22.68-4.22"/></clipPath><clipPath id="clip-path-3"><path class="cls-1" d="M-271.2-267.14c.42-1.12,2-5.45,2-5.45s.41-1.13.66-1.86l.34,1.68s1,4.65,1.16,5.63ZM-265-279.7h-3.87a2.49,2.49,0,0,0-2.64,1.62L-279-260.23h5.27s.86-2.4,1.06-2.93h6.43c.15.68.61,2.92.61,2.92h4.65L-265-279.7Z"/></clipPath><clipPath id="clip-path-4"><path class="cls-1" d="M-305.31-279.7l-4.92,13.28-.52-2.7a15,15,0,0,0-6.95-8.17l4.49,17h5.31l7.9-19.44h-5.31"/></clipPath><clipPath id="clip-path-5"><path class="cls-1" d="M-314.79-279.71h-8.09l-.07.4c6.3,1.61,10.47,5.51,12.2,10.19l-1.76-8.95a2.1,2.1,0,0,0-2.28-1.64"/></clipPath><clipPath id="clip-path-11"><polyline class="cls-1" points="-371.68 -260.24 -368.54 -279.71 -363.52 -279.71 -366.66 -260.24 -371.68 -260.24"/></clipPath><clipPath id="clip-path-12"><path class="cls-1" d="M-348.46-279.23a12.31,12.31,0,0,0-4.49-.82c-5,0-8.46,2.64-8.49,6.42,0,2.8,2.49,4.37,4.4,5.3s2.61,1.56,2.6,2.41c0,1.31-1.56,1.9-3,1.9a10,10,0,0,1-4.73-1l-.64-.31-.71,4.36a15.07,15.07,0,0,0,5.59,1c5.28,0,8.7-2.61,8.74-6.65,0-2.22-1.31-3.9-4.21-5.29-1.75-.91-2.83-1.5-2.82-2.42s.91-1.67,2.88-1.67a8.65,8.65,0,0,1,3.75.75l.45.22.68-4.22"/></clipPath><clipPath id="clip-path-13"><path class="cls-1" d="M-341.78-267.14c.42-1.12,2-5.45,2-5.45s.41-1.13.67-1.86l.33,1.68s1,4.65,1.17,5.63Zm6.2-12.56h-3.88a2.47,2.47,0,0,0-2.63,1.62l-7.46,17.85h5.27s.86-2.4,1.06-2.93h6.43c.15.68.61,2.92.61,2.92h4.66l-4.07-19.47Z"/></clipPath><clipPath id="clip-path-14"><path class="cls-1" d="M-375.89-279.7l-4.91,13.28-.53-2.7a15,15,0,0,0-6.95-8.17l4.49,17h5.31l7.91-19.44h-5.32"/></clipPath><clipPath id="clip-path-15"><path class="cls-1" d="M-385.36-279.71h-8.1l-.06.4c6.29,1.61,10.46,5.51,12.19,10.19l-1.76-8.95a2.1,2.1,0,0,0-2.27-1.64"/></clipPath><clipPath id="clip-path-21"><path class="cls-1" d="M171.26-170.56a10.25,10.25,0,0,0,6.44,9.31,24.59,24.59,0,0,1-3.32,6.54c-2,2.8-4.07,5.59-7.34,5.65s-4.25-1.83-7.92-1.83-4.82,1.77-7.85,1.89-5.56-3-7.58-5.83c-4.12-5.71-7.27-16.13-3-23.17a11.8,11.8,0,0,1,9.93-5.76c3.1-.06,6,2,7.92,2s5.45-2.47,9.18-2.11a11.41,11.41,0,0,1,8.78,4.57,10.37,10.37,0,0,0-5.19,8.75m-6-17.1a9.83,9.83,0,0,0,2.5-7.34,10.91,10.91,0,0,0-7.07,3.48,9.37,9.37,0,0,0-2.54,7.12,9,9,0,0,0,7.11-3.26"/></clipPath><clipPath id="clip-path-22"><path class="cls-1" d="M47.67,236.94h5l.07,0,.08,0,.07,0,.08,0,.07,0,.08,0,.07,0,.08,0,.07.05.08.06.07.06.08.06.07.07a.6.6,0,0,0,.08.08l.07.09.08.11a.63.63,0,0,1,.07.12s0,.09.08.14a1.22,1.22,0,0,1,.07.17c0,.09.06.18.08.26a2.08,2.08,0,0,1-.08,1.22c0,.06,0,.12-.07.17A.87.87,0,0,1,54,240a1.27,1.27,0,0,1-.07.12l-.08.11-.07.09-.08.08-.07.07-.08.06-.07.06-.08.06-.07.05-.08,0-.07,0-.08,0-.07,0-.08,0-.07,0-.08,0-.07,0h-5v-4.06Zm6-4.63a2.12,2.12,0,0,1,0,.44,2.09,2.09,0,0,1,0,.43,2,2,0,0,1-.08.26c0,.06,0,.12-.07.17s0,.1-.08.14l-.07.11-.08.1-.07.08-.08.08-.07.06-.08.06-.07.06-.08,0-.07,0-.08,0-.07,0-.08,0-.07,0-.08,0-.07,0-.08,0h-4.6v-3.77H52.2l.07,0,.08,0,.07,0,.08,0,.07,0,.08,0,.07,0,.08,0,.07,0,.08.05.07,0,.08.06.07.07.08.07.07.09.08.09.07.12.08.13s.05.11.07.17a2,2,0,0,1,.08.26ZM63,212.75h0V251.5q0,.34,0,.69c0,.19,0,.39-.08.59s0,.25-.07.38a2.81,2.81,0,0,1-.08.31c0,.11-.05.19-.07.27s-.05.16-.08.23a1.29,1.29,0,0,1-.07.21l-.08.2a1.34,1.34,0,0,1-.07.18l-.08.17a1,1,0,0,1-.07.15l-.08.15a1,1,0,0,1-.07.15.83.83,0,0,0-.07.13l-.08.12-.07.13-.08.12-.07.12a1,1,0,0,0-.08.11l-.07.1-.08.11-.07.09-.08.1-.07.09-.08.09-.07.09-.08.08-.07.09-.08.08-.07.07-.08.08-.07.07-.08.08-.07.06-.08.07-.07.07-.08.06-.07.07-.08.06-.07.06-.08.06-.07.05-.08.06-.07.05-.08.05-.07.06-.08,0-.07.05-.08,0-.07.05-.08,0-.07.05-.08,0-.07,0-.08,0-.07,0-.08,0-.07,0-.08,0-.07,0-.08,0-.07,0-.08,0-.07,0-.08,0-.07,0-.08,0-.07,0-.08,0-.07,0-.08,0-.07,0-.08,0-.07,0-.08,0-.07,0-.08,0-.07,0-.07,0-.08,0H57l-.08,0-.07,0h-.08l-.07,0h-.15l-.08,0H43.87v-15.8H57.05l.07,0h.08l.07,0h.08l.07,0h.08l.07,0,.08,0,.07,0,.08,0,.07,0,.08,0,.07,0,.08,0,.07,0,.08,0,.07,0,.08,0,.07,0,.08,0,.07,0,.08,0,.07,0,.08,0,.07,0,.08-.05.07,0,.08-.05.07,0,.08-.05.07-.05.08-.06.07-.06.08-.06.07-.07.08-.07.07-.07.08-.08.07-.08.08-.09.07-.1.08-.1.07-.11a.62.62,0,0,0,.08-.12s0-.08.07-.13l.08-.14c0-.05,0-.11.07-.17l.08-.2c0-.07.05-.17.07-.26s.06-.26.08-.39a4.07,4.07,0,0,0,0-.5,3.87,3.87,0,0,0,0-.48c0-.13,0-.25-.08-.38s0-.17-.07-.24l-.08-.2-.07-.16s0-.1-.08-.14l-.07-.13-.08-.12a.61.61,0,0,1-.07-.1l-.08-.1-.07-.09-.08-.09-.07-.08-.08-.07-.07-.07-.08-.07L59.6,237l-.08-.06-.07-.06-.08-.06-.07-.05-.08-.05-.07,0-.08,0-.07-.05-.08,0-.07,0-.08,0-.07,0-.08,0-.07,0-.08,0-.07,0-.08,0-.07,0-.08,0-.07,0-.08,0-.07,0-.08,0-.07,0-.08,0-.07,0-.08,0H57.5l-.08,0-.07,0h-.08l-.07,0h-.08l-.07,0h-.67v-.09h.14l.08,0h.07l.08,0h.07l.08,0,.07,0,.08,0,.07,0,.08,0,.07,0,.08,0,.07,0,.08,0,.07,0,.08,0,.07,0,.08,0,.07,0,.08,0,.07,0,.08,0,.07,0,.08,0,.07,0,.08-.05.07-.05.08-.06.07,0,.08-.06.07-.07.08-.07.07-.07.08-.07.07-.09.08-.08.07-.09.08-.11.07-.11a1,1,0,0,0,.08-.11s0-.09.07-.13l.08-.15.07-.17.08-.21c0-.06,0-.17.07-.25a3.54,3.54,0,0,0,.08-.45c0-.12,0-.24,0-.36s0-.25,0-.38a3.54,3.54,0,0,0-.08-.45c0-.08,0-.17-.07-.26l-.08-.21-.07-.16-.08-.15c0-.05-.05-.09-.07-.13l-.08-.12-.07-.1-.08-.1-.07-.09-.08-.08-.07-.08-.08-.07-.07-.07-.08-.07-.07-.06-.08-.06-.07-.05-.08-.06-.07-.05-.08,0-.07,0-.08,0-.07,0-.08,0-.07,0-.08,0-.07,0-.08,0-.07,0-.08,0-.07,0-.08,0-.07,0-.08,0-.07,0-.08,0-.07,0-.08,0-.07,0h-.08l-.07,0-.08,0H56.6l-.08,0H43.88v-8A7.63,7.63,0,0,1,44,219c0-.11.05-.21.07-.32s0-.18.08-.28.05-.16.07-.24l.08-.21c0-.08,0-.13.07-.2l.08-.19c0-.06,0-.11.07-.17l.08-.16.07-.15.08-.14.07-.14.08-.13.07-.13.08-.12.07-.11.08-.11.07-.11.08-.1.07-.1.08-.1.07-.09.08-.09.07-.09.08-.09.07-.08.08-.08.07-.08.08-.07.07-.08.08-.07.07-.07.08-.07.07-.07.08-.06.07-.07.08-.06.07-.06.08-.06.07,0,.08-.06.07-.05.08-.06.07,0,.08-.05.07,0,.08-.05.07-.05.08,0,.07,0,.08,0,.07,0,.08,0,.07,0,.08,0,.07,0,.07,0,.08,0,.07,0,.08,0,.07,0,.08,0,.07,0,.08,0,.07,0,.08,0,.07,0,.08,0,.07,0,.08,0,.07,0,.08,0,.07,0,.08,0,.07,0,.08,0,.07,0h.08l.07,0,.08,0H50l.08,0h.07l.08,0h.15l.07,0H63Z"/></clipPath><clipPath id="clip-path-23"><path class="cls-1" d="M1,239.64V220.5a7.63,7.63,0,0,1,.16-1.58,3,3,0,0,1,.08-.32,2.29,2.29,0,0,1,.07-.28c0-.09.05-.16.07-.24l.08-.22a1.46,1.46,0,0,0,.07-.19c0-.07.05-.13.08-.19a.87.87,0,0,0,.07-.17l.08-.16.07-.15c0-.05,0-.1.08-.14a.91.91,0,0,0,.07-.14l.08-.13a.54.54,0,0,0,.07-.13l.08-.12.07-.11.08-.11.07-.11.08-.1.07-.1.08-.1.07-.09.08-.09.07-.09.08-.09.07-.08.08-.08.07-.08.08-.08.07-.07.08-.07.07-.07.08-.07.07-.07.08-.06.07-.06.08-.07.07-.06.08-.06.07-.06.08-.05.07,0,.08-.06.07-.05.08,0,.07-.05.08-.05.07,0,.08,0,.07-.05.08,0,.07,0,.08,0,.07,0,.08,0,.07,0,.08,0,.07,0,.08,0,.07,0,.08,0,.07,0,.08,0,.07,0,.08,0,.07,0,.07,0,.08,0,.07,0,.08,0,.07,0,.08,0,.07,0,.08,0,.07,0,.08,0,.07,0h.08L7,213l.08,0,.07,0H7.3l.08,0h.15l.07,0H20.14v38.75a8.26,8.26,0,0,1-.06,1c0,.16,0,.31-.08.46s0,.24-.07.35-.05.2-.08.29-.05.17-.07.25-.05.15-.08.22-.05.13-.07.21l-.08.18-.07.18-.08.16c0,.06,0,.1-.07.16l-.08.14-.07.14-.08.13-.07.13-.08.12-.07.12-.08.11-.07.11-.08.1-.07.1a.39.39,0,0,1-.08.1l-.07.1-.08.09-.07.09-.07.08-.08.09-.07.08-.08.08-.07.07-.08.08-.07.07-.08.07-.07.07-.08.07-.07.06-.08.07-.07.06-.08.06-.07.06-.08.06-.07.05-.08.06-.07.05-.08.05-.07,0-.08.05-.07.05-.08.05-.07.05-.08,0-.07,0-.08.05-.07,0-.08,0-.07,0-.08,0-.07,0-.08,0-.07,0-.08,0-.07,0-.08,0-.07,0-.08,0-.07,0-.08,0-.07,0-.08,0-.07,0-.08,0-.07,0-.08,0-.07,0-.08,0-.07,0-.08,0-.07,0-.08,0h-.07l-.08,0-.07,0h-.08l-.07,0h-.08l-.07,0H1V242.92l.16,0,.08,0,.07,0h.07l.08,0,.07,0,.08,0h.07l.08,0,.07,0h.08l.07,0h.08l.07,0,.08,0h.07l.08,0h.07l.08,0h.15l.07,0h.08l.07,0H3l.08,0h.15l.07,0h.3l.08,0h.6l.07,0h.23l.07,0h7.79l.07,0h.15l.08,0h.07l.08,0H13l.08,0h.07l.08,0,.07,0,.08,0h.07l.08,0,.07,0,.08,0,.07,0,.08,0,.07,0,.08,0,.07,0,.08,0,.07,0,.08,0,.07,0,.08,0,.07,0,.08,0,.07,0,.08,0,.07,0,.08,0,.07,0,.08,0,.07,0,.08,0,.07,0,.08,0,.07,0,.08,0,.07,0,.08,0,.07,0,.08-.05.07,0,.08,0,.07,0,.08,0,.07-.05.08,0,.07-.05.08-.05.07-.06.08-.05.07-.06.08-.06.07-.06.07-.07.08-.07.07-.06.08-.08.07-.07.08-.08.07-.08.08-.09.07-.09.08-.1.07-.1.08-.1.07-.11.08-.12s.05-.09.07-.13l.08-.14.07-.15c0-.05,0-.11.08-.16l.07-.18a1.19,1.19,0,0,0,.08-.2l.07-.23c0-.08.05-.19.08-.28s.05-.23.07-.35a5,5,0,0,0,.08-.54c0-.26,0-.51,0-.77v-9H11.91l-.05,9c0,.14,0,.27,0,.41a4.5,4.5,0,0,1-.08.51,2.46,2.46,0,0,1-.07.29,1.55,1.55,0,0,1-.08.23,1.07,1.07,0,0,1-.07.19l-.08.17s-.05.09-.07.14l-.08.13-.07.12-.08.11a.86.86,0,0,0-.07.1L11,240l-.07.09a.6.6,0,0,0-.08.08l-.07.07-.08.07-.07.07-.08.06-.07.06-.08.06-.07,0-.08.05-.07,0-.08,0-.07,0-.08,0-.07,0-.07,0-.08,0-.07,0-.08,0-.07,0-.08,0-.07,0-.08,0-.07,0-.08,0-.07,0-.08,0H8.92l-.08,0H8.77l-.08,0h-3l-.08,0H5.56l-.07,0-.07,0H5.34l-.07,0H5.19l-.07,0H5l-.07,0-.08,0H4.82l-.08,0-.07,0-.08,0-.07,0-.08,0H4.37l-.08,0-.07,0-.08,0-.07,0-.08,0-.07,0-.08,0-.07,0-.08,0-.07,0-.08,0-.07,0-.08,0-.07,0-.07,0-.08,0-.07,0-.08,0-.07,0-.08,0-.07,0-.08,0-.07,0-.08,0-.07,0-.08,0-.07,0-.08,0-.07,0-.08,0-.07,0-.08,0-.07,0-.08,0-.07,0-.08,0-.07,0-.08,0-.07,0-.08,0-.07,0-.08,0-.07,0Z"/></clipPath><clipPath id="clip-path-24"><path class="cls-1" d="M22.6,230.51l-.16.13V220.49a8.28,8.28,0,0,1,.16-1.57c0-.11,0-.22.08-.33s.05-.18.07-.27l.08-.24c0-.08.05-.15.07-.22l.08-.2.07-.18c0-.06.05-.12.08-.17l.07-.16.08-.15a1,1,0,0,0,.07-.15l.08-.13.07-.13.08-.12.07-.12.08-.12.07-.11.08-.11.07-.1.08-.1.07-.1.08-.09.07-.09.08-.09.07-.08.08-.09.07-.08.08-.08.07-.07.08-.08.07-.07.08-.07.07-.07.08-.06.07-.07.08-.06.07-.07.08-.06.07-.06.08-.05.07-.06.08,0,.07-.06.08-.05.07,0L26,214l.07-.05.08,0,.07,0,.08,0,.07,0,.08,0,.07,0,.08,0,.07,0,.08,0,.07,0,.08,0,.07,0,.08,0,.07,0,.08,0,.07,0,.07,0,.08,0,.07,0,.08,0,.07,0,.08,0,.07,0,.08,0,.07,0,.08,0,.07,0,.08,0h.07l.08,0,.07,0,.08,0,.07,0h.08l.07,0h.08l.07,0H29l.08,0H41.59v38.75a8.26,8.26,0,0,1-.07,1c0,.16,0,.31-.07.46a3.59,3.59,0,0,1-.08.35,1.77,1.77,0,0,1-.07.29c0,.1,0,.17-.08.25s0,.15-.07.22l-.08.21a1.71,1.71,0,0,1-.07.18l-.08.18c0,.06-.05.11-.07.16l-.08.16-.07.14-.08.14-.07.13-.08.13-.07.12-.08.12-.07.11-.08.11-.07.1-.08.1-.07.1-.08.09-.07.1-.08.08-.07.09-.08.09-.07.08-.08.08-.07.07-.07.08-.08.07-.07.07-.08.07-.07.07-.08.06-.07.07-.08.06-.07.06-.08.06-.07.06-.08.05-.07.06-.08.05-.07.05-.08,0-.07.05-.08.05-.07.05-.08.05-.07,0-.08,0-.07.05-.08,0-.07,0-.08,0-.07,0-.08,0-.07,0-.08,0-.07,0-.08,0-.07,0-.08,0-.07,0-.08,0-.07,0-.08,0-.07,0-.08,0-.07,0-.08,0-.07,0-.08,0L36,259l-.08,0-.07,0-.08,0-.07,0-.08,0h-.07l-.08,0-.07,0h-.15l-.08,0H22.44V241.36l.16.13.08.06.07.06.08,0,.07.06.08.05.07,0,.08.06.07.05.08,0,.07.05.08,0,.07,0,.08,0,.07,0,.08,0,.07,0,.08,0,.07,0,.08,0,.07,0,.08,0,.07,0,.08,0,.07,0,.08,0,.07,0,.08,0,.07,0,.08,0,.07,0,.08,0,.07,0,.08,0,.07,0,.08,0,.07,0,.08,0,.07,0,.08,0,.07,0,.08,0,.07,0,.08,0,.07,0,.08,0,.07,0,.07,0,.08,0,.07,0,.08,0,.07,0,.08,0,.07,0,.08,0,.07,0h.08l.07,0,.08,0H27l.08,0,.07,0h.08l.07,0h.08l.07,0h.15l.08,0h.22l.08,0h8.31l.07,0h.3l.08,0H37l.08,0h.15l.07,0h.15l.08,0h.07l.08,0h.07l.08,0H38l.07,0h.08l.07,0h.08l.07,0,.08,0h.07l.08,0h.07l.08,0,.07,0h.08l.07,0,.08,0h.07l.08,0,.07,0,.08,0h.07l.07,0v-3.28l-.07,0-.07,0-.08,0-.07,0-.08,0-.07,0-.08,0-.07,0-.08,0-.07,0-.08,0-.07,0-.08,0-.07,0-.08,0-.07,0-.08,0-.07,0-.08,0-.07,0-.08,0-.07,0-.08,0-.07,0-.08,0-.07,0-.08,0-.07,0-.08,0-.07,0-.08,0-.07,0-.08,0-.07,0-.08,0-.07,0-.08,0-.07,0-.08,0-.07,0-.08,0-.07,0-.08,0-.07,0-.08,0L36,241l-.08,0h-.07l-.08,0-.07,0h-.08l-.07,0-.08,0-.07,0h-.15l-.07,0h-.08l-.07,0h-.15l-.08,0H31.22l-.07,0h-.08l-.07,0-.08,0h-.07l-.08,0-.07,0-.08,0-.07,0-.08,0-.07,0-.08,0-.07,0-.08,0-.07,0-.08,0-.07,0-.08,0-.07,0-.08,0-.07,0-.08,0-.07,0-.08,0-.07,0-.08,0-.07,0-.08,0-.07-.05-.08,0-.07-.06-.08-.05-.07-.06-.08,0-.07-.06-.07-.06-.08-.07-.07-.07-.08-.07-.07-.08-.08-.07-.07-.09-.08-.08-.07-.09-.08-.1-.07-.1a1,1,0,0,0-.08-.11l-.07-.12-.08-.13-.07-.13s-.05-.1-.08-.14l-.07-.16-.08-.18c0-.06-.05-.13-.07-.2a1.55,1.55,0,0,1-.08-.23c0-.08-.05-.18-.07-.27s-.06-.24-.08-.36a4.86,4.86,0,0,1-.07-.55c0-.21,0-.44,0-.67s0-.45,0-.67a4.86,4.86,0,0,1,.07-.55,3.59,3.59,0,0,1,.08-.35,2.68,2.68,0,0,1,.07-.27c0-.09,0-.16.08-.23a1.18,1.18,0,0,1,.07-.2,1.59,1.59,0,0,1,.08-.18c0-.06.05-.11.07-.16l.08-.15.07-.12.08-.13.07-.12.08-.11a.61.61,0,0,1,.07-.1l.08-.1.07-.09.08-.09.07-.08.08-.08.07-.07.08-.07.07-.07.08-.07.07-.06.07-.06.08-.06.07-.05.08,0,.07-.05.08,0,.07-.05.08,0,.07-.05.08,0,.07,0,.08,0,.07,0,.08,0,.07,0,.08,0,.07,0,.08,0,.07,0,.08,0,.07,0,.08,0,.07,0,.08,0,.07,0,.08,0,.07,0,.08,0,.07,0h.08l.07,0,.08,0,.07,0h.15l.08,0h3.36l.08,0H35l.08,0h.15l.07,0h.08l.07,0,.07,0h.08l.07,0,.08,0h.07l.08,0,.07,0,.08,0,.07,0,.08,0,.07,0,.08,0,.07,0,.08,0,.07,0,.08,0,.07,0,.08,0,.07,0,.08,0,.07,0,.08,0,.07,0,.08,0,.07,0,.08,0,.07,0,.08,0,.07,0,.08,0,.07,0,.08,0,.07,0,.08,0,.07,0,.08,0,.07,0,.08,0,.07,0,.08,0,.07,0,.08,0,.07,0,.08,0,.07,0,.08,0,.07,0,.08,0,.07,0,.08,0,.07,0,.08,0,.07,0,.07,0v-3.28h-.07l-.07,0-.08,0-.07,0-.08,0H39l-.08,0-.07,0h-.08l-.07,0h-.08l-.07,0-.08,0h-.07l-.08,0-.07,0h-.08l-.07,0H38l-.07,0h-.15l-.08,0h-.07l-.08,0h-.07l-.08,0h-.15l-.07,0h-.15l-.08,0h-.15l-.07,0h-.3l-.08,0H28.15l-.08,0h-.3l-.07,0h-.15l-.08,0H27.4l-.08,0h-.07l-.08,0H27.1l-.08,0-.07,0h-.08l-.07,0-.08,0h-.07l-.08,0-.07,0-.08,0-.07,0-.08,0-.07,0-.08,0-.07,0-.08,0-.07,0-.08,0-.07,0-.08,0-.07,0-.08,0-.07,0-.08,0-.07,0-.08,0-.07,0-.08,0-.07,0-.08,0-.07,0-.07,0-.08,0-.07,0-.08,0-.07,0-.08,0-.07,0-.08,0-.07,0-.08,0-.07,0-.08,0-.07,0-.08,0-.07,0-.08,0-.07,0-.08,0-.07,0-.08.05-.07,0-.08.05-.07.05-.08,0-.07.06-.08.05-.07,0-.08.06-.07.06-.08.06Z"/></clipPath><clipPath id="clip-path-25"><path class="cls-1" d="M-22.15,236.94h5l.08,0,.07,0,.08,0,.07,0,.08,0,.07,0,.08,0,.07,0,.08.05.07.06.08.06.07.06.08.07.07.08.08.09.07.11a.62.62,0,0,1,.08.12s.05.09.07.14l.08.17c0,.09,0,.18.07.26a2,2,0,0,1,0,.48,2,2,0,0,1,0,.48,2.5,2.5,0,0,1-.07.26c0,.06-.05.12-.08.17l-.07.14-.08.12-.07.11-.08.09-.07.08-.08.07-.07.06-.08.06-.07.06-.08.05-.07,0-.08,0-.07,0-.08,0-.07,0-.08,0-.07,0-.08,0h-5v-4.06Zm6-4.63a2.12,2.12,0,0,1,.05.44,2.1,2.1,0,0,1-.05.43,2,2,0,0,1-.08.26.87.87,0,0,1-.07.17.64.64,0,0,1-.08.14l-.07.11-.08.1-.07.08-.08.08-.07.06-.08.06-.07.06-.08,0-.07,0-.08,0-.07,0-.08,0-.07,0-.08,0-.07,0-.07,0h-4.61v-3.77h4.53l.08,0,.07,0,.07,0,.08,0,.07,0,.08,0,.07,0,.08,0,.07,0,.08.05.07,0,.08.06.07.07.08.07.07.09.08.09.07.12a.41.41,0,0,1,.08.13.87.87,0,0,1,.07.17,2,2,0,0,1,.08.26Zm9.27-19.56h0V251.5q0,.34,0,.69c0,.19,0,.39-.07.59s-.05.25-.08.38,0,.21-.07.31,0,.19-.08.27,0,.16-.07.23l-.08.21c0,.07-.05.13-.07.2l-.08.18c0,.06,0,.11-.07.17l-.08.15-.07.15-.08.15-.07.13-.08.12-.07.13-.08.12-.07.12a1,1,0,0,0-.08.11l-.07.1-.08.11-.07.09-.08.1-.07.09-.08.09-.07.09-.08.08-.07.09-.08.08-.07.07-.08.08-.07.07-.08.08-.07.06-.08.07-.07.07-.07.06-.08.07-.07.06-.08.06-.07.06-.08.05-.07.06-.08.05-.07.05-.08.06-.07,0-.08.05-.07,0-.08.05-.07,0-.08.05-.07,0-.08,0-.07,0-.08,0-.07,0-.08,0-.07,0-.08,0-.07,0-.08,0-.07,0-.08,0-.07,0-.08,0-.07,0-.08,0-.07,0-.08,0-.07,0-.08,0-.07,0-.08,0-.07,0-.08,0-.07,0-.08,0-.07,0-.08,0h-.07l-.08,0-.07,0h-.08l-.07,0h-.15l-.08,0H-26v-15.8h13.18l.08,0h.07l.08,0h.07l.08,0h.07l.08,0,.07,0,.08,0,.07,0,.08,0,.07,0,.08,0,.07,0,.08,0,.07,0,.08,0,.07,0,.08,0,.07,0,.08,0,.07,0,.08,0,.07,0,.08,0,.07-.05.08,0,.07-.05.07,0,.08-.05.07-.05.08-.06.07-.06.08-.06.07-.07.08-.07L-10,242l.08-.08.07-.08.08-.09.07-.1.08-.1.07-.11a.62.62,0,0,0,.08-.12s.05-.08.07-.13a.64.64,0,0,0,.08-.14c0-.05.05-.11.07-.17a1.19,1.19,0,0,0,.08-.2c0-.07,0-.17.07-.26a2.7,2.7,0,0,0,.08-.39,4.07,4.07,0,0,0,0-.5,3.87,3.87,0,0,0,0-.48,2.57,2.57,0,0,0-.08-.38,1.68,1.68,0,0,0-.07-.24,1.67,1.67,0,0,0-.08-.2.77.77,0,0,0-.07-.16s-.05-.1-.08-.14-.05-.09-.07-.13l-.08-.12-.07-.1-.08-.1-.07-.09-.08-.09-.07-.08-.08-.07-.07-.07-.08-.07-.07-.06-.08-.06-.07-.06-.08-.06-.07-.05-.08-.05-.07,0-.07,0-.08-.05-.07,0-.08,0-.07,0-.08,0-.07,0-.08,0-.07,0-.08,0-.07,0-.08,0-.07,0-.08,0-.07,0-.08,0-.07,0-.08,0-.07,0-.08,0-.07,0h-.08l-.07,0-.08,0h-.07l-.08,0h-.07l-.08,0h-.67v-.09h.15l.07,0h.08l.07,0H-13l.07,0,.08,0,.07,0,.08,0,.07,0,.08,0,.07,0,.08,0,.07,0,.08,0,.07,0,.08,0,.07,0,.08,0,.07,0,.08,0,.07,0,.08,0,.07,0,.08,0,.07-.05.08-.05.07-.06.08,0,.07-.06.08-.07.07-.07.08-.07.07-.07.08-.09.07-.08.07-.09.08-.11a.41.41,0,0,0,.07-.11.44.44,0,0,0,.08-.11s.05-.09.07-.13a1.09,1.09,0,0,0,.08-.15l.07-.17a1.31,1.31,0,0,0,.08-.21c0-.06.05-.17.07-.25a3.54,3.54,0,0,0,.08-.45c0-.12,0-.24,0-.36s0-.25,0-.38a3.54,3.54,0,0,0-.08-.45c0-.08,0-.17-.07-.26a1.8,1.8,0,0,0-.08-.21.77.77,0,0,0-.07-.16l-.08-.15a.54.54,0,0,0-.07-.13l-.08-.12a.61.61,0,0,0-.07-.1l-.08-.1-.07-.09-.07-.08-.08-.08-.07-.07-.08-.07-.07-.07-.08-.06-.07-.06-.08-.05-.07-.06-.08-.05-.07,0-.08,0-.07,0-.08,0-.07,0-.08,0-.07,0-.08,0-.07,0-.08,0-.07,0-.08,0-.07,0-.08,0-.07,0-.08,0-.07,0-.08,0-.07,0-.08,0H-13l-.08,0-.07,0h-.08l-.07,0H-25.95v-8a8.38,8.38,0,0,1,.16-1.58c0-.11.05-.21.08-.32s.05-.18.07-.28l.08-.24c0-.07,0-.14.07-.21l.08-.2c0-.07.05-.12.07-.19l.08-.17.07-.16.08-.15c0-.05.05-.09.07-.14l.08-.14.07-.13.08-.13.07-.12.08-.11.07-.11.08-.11.07-.1.08-.1.07-.1.08-.09.07-.09.08-.09.07-.09.08-.08.07-.08.08-.08.07-.07.08-.08.07-.07.08-.07.07-.07.07-.07.08-.06.07-.07.08-.06.07-.06.08-.06.07,0,.08-.06.07-.05.08-.06.07,0,.08-.05.07,0,.08-.05.07-.05.08,0,.07,0,.08,0,.07,0,.08,0,.07,0,.08,0,.07,0,.08,0,.07,0,.08,0,.07,0,.08,0,.07,0,.08,0,.07,0,.08,0,.07,0,.08,0,.07,0,.08,0,.07,0,.08,0,.07,0,.08,0,.07,0,.08,0,.07,0,.08,0H-20l.08,0,.07,0h.08l.07,0h.08l.07,0h.15l.08,0H-6.86Z"/></clipPath><clipPath id="clip-path-26"><path class="cls-1" d="M-68.83,239.64V220.5a8.38,8.38,0,0,1,.16-1.58c0-.11,0-.22.08-.32s0-.19.07-.28,0-.16.08-.24,0-.14.07-.22l.08-.19c0-.07.05-.13.07-.19s0-.11.08-.17l.07-.16L-68,217c0-.05,0-.1.07-.14l.08-.14.07-.13.08-.13.07-.12.08-.11.07-.11a1,1,0,0,1,.08-.11l.07-.1.08-.1a.86.86,0,0,1,.07-.1l.08-.09.07-.09.08-.09.07-.09.08-.08.07-.08.08-.08.07-.08.08-.07.07-.07.08-.07.07-.07.08-.07.07-.06.08-.06.07-.07.08-.06.07-.06.08-.06.07-.05.08,0,.07-.06.07-.05.08,0,.07-.05.08-.05.07,0,.08,0,.07-.05.08,0,.07,0,.08,0,.07,0,.08,0,.07,0,.08,0,.07,0,.08,0,.07,0,.08,0,.07,0,.08,0,.07,0,.08,0,.07,0,.08,0,.07,0,.08,0,.07,0,.08,0,.07,0,.08,0,.07,0,.08,0,.07,0,.08,0h.07l.08,0,.07,0,.08,0h.15l.07,0h.15l.08,0h12.53v38.75a8.26,8.26,0,0,1-.06,1c0,.16,0,.31-.07.46s0,.24-.08.35-.05.2-.07.29-.05.17-.08.25-.05.15-.07.22l-.08.21c0,.07,0,.12-.07.18l-.08.18c0,.06,0,.11-.07.16l-.08.16-.07.14-.08.14-.07.13-.08.13-.07.12-.08.12-.07.11-.08.11-.07.1-.08.1a.86.86,0,0,1-.07.1l-.08.1-.07.09-.08.09-.07.08-.08.09-.07.08-.08.08-.07.07-.08.08-.07.07-.08.07-.07.07-.08.07-.07.06-.08.07-.07.06-.08.06-.07.06-.08.06-.07.05-.08.06-.07.05-.08.05-.07,0-.08.05-.07.05-.07.05-.08.05-.07,0-.08,0-.07.05-.08,0-.07,0-.08,0-.07,0-.08,0-.07,0-.08,0-.07,0-.08,0-.07,0-.08,0-.07,0-.08,0-.07,0-.08,0-.07,0-.08,0-.07,0-.08,0-.07,0-.08,0-.07,0-.08,0-.07,0-.08,0-.07,0h-.08l-.07,0-.08,0h-.07l-.08,0H-56l-.08,0H-68.83V242.92l.16,0,.08,0,.07,0h.08l.07,0,.08,0,.07,0h.08l.07,0,.08,0h.07l.08,0h.07l.08,0,.07,0h.08l.07,0h.08l.07,0h.15l.08,0H-67l.08,0h.15l.07,0h.15l.08,0h.3l.07,0h.6l.07,0h.23l.07,0h7.79l.08,0h.15l.07,0H-57l.07,0h.08l.07,0h.08l.07,0,.08,0,.07,0h.08l.07,0,.08,0,.07,0,.08,0,.07,0,.08,0,.07,0,.08,0,.07,0,.08,0,.07,0,.08,0,.07,0,.08,0,.07,0,.08,0,.07,0,.08,0,.07,0,.08,0,.07,0,.07,0,.08,0,.07,0,.08,0,.07,0,.08,0,.07,0,.08,0,.07,0,.08-.05.07,0,.08,0,.07,0,.08,0,.07-.05.08,0,.07-.05.08-.05.07-.06.08-.05.07-.06.08-.06.07-.06.08-.07.07-.07.08-.06.07-.08.08-.07.07-.08.08-.08.07-.09.08-.09.07-.1.08-.1.07-.1.08-.11.07-.12.08-.13c0-.05.05-.09.07-.14l.08-.15.07-.16.08-.18c0-.06,0-.13.07-.2a2.09,2.09,0,0,1,.08-.23l.07-.28c0-.12,0-.23.08-.35s0-.36.07-.54a6.62,6.62,0,0,0,0-.77v-9h-6.66l-.06,9c0,.14,0,.27,0,.41a4.46,4.46,0,0,1-.07.51,2.45,2.45,0,0,1-.08.29c0,.08,0,.16-.07.23s0,.13-.08.19a1.22,1.22,0,0,0-.07.17l-.08.14c0,.05-.05.09-.07.13l-.08.12-.07.11-.08.1-.07.09-.08.09-.07.08-.08.07-.07.07-.08.07-.07.06-.08.06-.07.06-.08,0-.07.05-.08,0-.07,0-.08,0-.07,0-.08,0-.07,0-.08,0-.07,0-.08,0-.07,0-.08,0-.07,0-.08,0-.07,0-.08,0-.07,0-.08,0h-.07l-.08,0h-.07l-.08,0h-3l-.07,0h-.08l-.06,0-.08,0h-.07l-.08,0h-.07l-.08,0h-.07l-.08,0-.07,0H-65l-.07,0-.08,0-.07,0-.08,0-.07,0h-.08l-.07,0-.08,0-.07,0-.08,0-.07,0-.08,0-.07,0-.08,0-.07,0-.08,0-.07,0-.08,0-.07,0-.08,0-.07,0-.08,0-.07,0-.08,0-.07,0-.08,0-.07,0-.08,0-.07,0-.08,0-.07,0-.08,0-.07,0-.08,0-.07,0-.08,0-.07,0-.08,0-.07,0-.08,0-.07,0-.07,0-.08,0-.07,0-.08,0-.07,0-.08,0-.07,0-.08,0Z"/></clipPath><clipPath id="clip-path-27"><path class="cls-1" d="M-47.22,230.51l-.16.13V220.49a7.54,7.54,0,0,1,.16-1.57c0-.11,0-.22.07-.33s0-.18.08-.27,0-.16.07-.24,0-.15.08-.22.05-.13.07-.2l.08-.18c0-.06.05-.12.07-.17s.05-.11.08-.16l.07-.15.08-.15.07-.13.08-.13.07-.12.08-.12.07-.12.08-.11.07-.11.08-.1.07-.1.08-.1.07-.09.08-.09.07-.09.08-.08.07-.09.08-.08.07-.08.08-.07L-45,215l.08-.07.07-.07.08-.07.07-.06.08-.07.07-.06.08-.07.07-.06.08-.06.07-.05.07-.06.08,0,.07-.06.08-.05.07,0,.08-.05.07-.05.08,0,.07,0,.08,0,.07,0,.08,0,.07,0,.08,0,.07,0,.08,0,.07,0,.08,0,.07,0,.08,0,.07,0,.08,0,.07,0,.08,0,.07,0,.08,0,.07,0,.08,0,.07,0,.08,0,.07,0,.08,0,.07,0,.08,0,.07,0h.08l.07,0,.08,0,.07,0,.08,0h.07l.08,0h.07l.08,0h.15l.07,0h12.54v38.75a8.26,8.26,0,0,1-.06,1c0,.16-.05.31-.08.46s-.05.24-.07.35-.05.2-.08.29l-.07.25c0,.08,0,.15-.08.22s-.05.13-.07.21a1.59,1.59,0,0,1-.08.18l-.07.18-.08.16L-29,255l-.08.14-.07.14-.08.13-.07.13-.08.12-.07.12-.08.11-.07.11-.08.1-.07.1-.08.1-.07.09-.08.1-.07.08-.08.09-.07.09-.08.08-.07.08-.08.07-.07.08-.08.07-.07.07-.08.07-.07.07-.08.06-.07.07-.08.06-.07.06-.08.06-.07.06-.08.05-.07.06-.08.05-.07.05-.08,0-.07.05-.08.05-.07.05-.08.05-.07,0-.08,0-.07.05-.07,0-.08,0-.07,0-.08,0-.07,0-.08,0-.07,0-.08,0-.07,0-.08,0-.07,0-.08,0-.07,0-.08,0-.07,0-.08,0-.07,0-.08,0-.07,0-.08,0-.07,0-.08,0-.07,0-.08,0-.07,0-.08,0-.07,0h-.08l-.07,0-.08,0h-.15l-.07,0H-47.38V241.36l.16.13.07.06.08.06.07,0,.08.06.07.05.08,0,.07.06.08.05.07,0,.08.05.07,0,.08,0,.07,0,.08,0,.07,0,.08,0,.07,0,.08,0,.07,0,.08,0,.07,0,.08,0,.07,0,.07,0,.08,0,.07,0,.08,0,.07,0,.08,0,.07,0,.08,0,.07,0,.08,0,.07,0,.08,0,.07,0,.08,0,.07,0,.08,0,.07,0,.08,0,.07,0,.08,0,.07,0,.08,0,.07,0,.08,0,.07,0,.08,0,.07,0,.08,0,.07,0,.08,0,.07,0,.08,0H-43l.08,0,.07,0h.08l.07,0,.08,0h.07l.08,0h.07l.08,0h.15l.07,0h.23l.07,0h8.31l.08,0h.3l.07,0h.23l.07,0h.15l.08,0h.15l.07,0h.08l.07,0h.08l.07,0h.15l.08,0h.07l.08,0h.07l.08,0,.07,0h.07l.08,0h.07l.08,0,.07,0H-31l.07,0,.08,0h.07l.08,0,.07,0,.08,0h.07l.08,0v-3.28l-.08,0-.07,0-.08,0-.07,0-.08,0-.07,0-.08,0-.07,0-.08,0-.07,0-.08,0-.07,0-.08,0-.07,0-.07,0-.08,0-.07,0-.08,0-.07,0-.08,0-.07,0-.08,0-.07,0-.08,0-.07,0-.08,0-.07,0-.08,0-.07,0-.08,0-.07,0-.08,0-.07,0-.08,0-.07,0-.08,0-.07,0-.08,0-.07,0-.08,0-.07,0-.08,0-.07,0-.08,0-.07,0-.08,0-.07,0H-34l-.07,0-.08,0h-.07l-.08,0-.07,0-.08,0h-.15l-.07,0h-.08l-.07,0h-.15l-.08,0H-38.6l-.08,0h-.07l-.08,0-.07,0H-39l-.07,0-.08,0-.07,0-.08,0-.07,0-.08,0-.07,0-.08,0-.07,0-.08,0-.07,0-.08,0-.07,0-.08,0-.07,0-.08,0-.07,0-.08,0-.07,0-.08,0-.07,0-.08,0-.07,0-.08-.05-.07,0-.08-.06-.07-.05-.08-.06-.07,0-.08-.06-.07-.06-.08-.07-.07-.07-.08-.07-.07-.08-.08-.07-.07-.09-.08-.08-.07-.09-.08-.1-.07-.1a1,1,0,0,0-.08-.11l-.07-.12-.08-.13-.07-.13s0-.1-.08-.14l-.07-.16-.08-.18c0-.06-.05-.13-.07-.2s-.05-.15-.08-.23-.05-.18-.07-.27-.05-.24-.08-.36,0-.36-.07-.55,0-.44,0-.67,0-.45,0-.67,0-.37.07-.55.05-.24.08-.35,0-.18.07-.27,0-.16.08-.23,0-.13.07-.2a1.59,1.59,0,0,1,.08-.18l.07-.16.08-.15s.05-.09.07-.12l.08-.13.07-.12.08-.11.07-.1.08-.1.07-.09.08-.09.07-.08.08-.08.07-.07.08-.07.07-.07.08-.07.07-.06.08-.06.07-.06.08-.05.07,0,.08-.05.07,0,.08-.05.07,0,.08-.05.07,0,.08,0,.07,0,.08,0,.07,0,.08,0,.07,0,.08,0,.07,0,.08,0,.07,0,.08,0,.07,0,.08,0,.07,0,.08,0,.07,0,.08,0,.07,0,.08,0H-39l.08,0,.07,0,.08,0h.15l.07,0h3.36l.08,0h.22l.08,0h.15l.07,0h.08l.07,0,.08,0h.07l.08,0,.07,0H-34l.07,0,.08,0,.07,0,.08,0,.07,0,.08,0,.07,0,.08,0,.07,0,.08,0,.07,0,.08,0,.07,0,.08,0,.07,0,.08,0,.07,0,.08,0,.07,0,.08,0,.07,0,.08,0,.07,0,.08,0,.07,0,.08,0,.07,0,.08,0,.07,0,.08,0,.07,0,.08,0,.07,0,.08,0,.07,0,.07,0,.08,0,.07,0,.08,0,.07,0,.08,0,.07,0,.08,0,.07,0,.08,0,.07,0,.08,0,.07,0,.08,0v-3.28h-.08l-.07,0-.08,0-.07,0-.08,0h-.07l-.08,0-.07,0H-31l-.07,0h-.08l-.07,0-.08,0h-.07l-.07,0-.08,0h-.07l-.08,0h-.07l-.08,0H-32l-.07,0h-.08l-.07,0h-.08l-.07,0h-.15l-.08,0h-.15l-.07,0H-33l-.08,0h-.3l-.07,0h-8.24l-.08,0H-42l-.08,0h-.15l-.07,0h-.08l-.07,0h-.08l-.07,0h-.08l-.07,0-.08,0h-.07l-.08,0-.07,0h-.08l-.07,0-.08,0-.07,0-.08,0-.07,0-.08,0-.07,0-.08,0-.07,0-.08,0-.07,0-.08,0-.07,0-.08,0-.07,0-.08,0-.07,0-.08,0-.07,0-.08,0-.07,0-.08,0-.07,0-.08,0-.07,0-.08,0-.07,0-.08,0-.07,0-.08,0-.07,0-.08,0-.07,0-.08,0-.07,0-.08,0-.07,0-.08,0-.07,0-.08,0-.07,0-.08,0-.07,0-.08.05-.07,0-.08.05-.07.05-.07,0-.08.06-.07.05-.08,0-.07.06-.08.06-.07.06Z"/></clipPath><clipPath id="clip-path-28"><path class="cls-1" d="M12.17,349.5a.29.29,0,0,0-.31-.3h-1a.37.37,0,0,0-.39.32v1.73c0,.24.15.36.43.37h1a.36.36,0,0,0,.25-.1.21.21,0,0,0,.1-.2V349.5Zm-3.09-.24a1.38,1.38,0,0,1,.32-1,1.23,1.23,0,0,1,.4-.23,1.19,1.19,0,0,1,.49-.1h1.93a1.13,1.13,0,0,1,1.3,1.24v2.54a1,1,0,0,1-.38.76,1.27,1.27,0,0,1-.88.34H10.43v1.83H9.08v-5.42Z"/></clipPath><clipPath id="clip-path-29"><path class="cls-1" d="M16,351.37a.2.2,0,0,0,.11.17.38.38,0,0,0,.24.08h1c.23,0,.35-.09.36-.25V351c0-.19-.12-.29-.37-.29h-1a.45.45,0,0,0-.28.06.36.36,0,0,0-.07.26v.31Zm1.75-1.9c0-.18-.11-.27-.36-.26H14.63V348h3.06c.89,0,1.34.4,1.36,1.16v2.58a1.14,1.14,0,0,1-.34.81,1.23,1.23,0,0,1-.88.34H16c-.9,0-1.36-.38-1.37-1.1v-1a1.06,1.06,0,0,1,1-1.16h2.08v-.12Z"/></clipPath><clipPath id="clip-path-30"><path class="cls-1" d="M22.84,353.44a.48.48,0,0,0,.28-.1.26.26,0,0,0,.1-.19v-.3H21.5a1.6,1.6,0,0,1-.54-.07,1.34,1.34,0,0,1-.43-.26,1.46,1.46,0,0,1-.29-.41,1.23,1.23,0,0,1-.09-.5V348H21.5v3.26q0,.39.36.39h.95a.45.45,0,0,0,.3-.1.25.25,0,0,0,.12-.2V348h1.33v5.39a1.45,1.45,0,0,1-.34,1,1.24,1.24,0,0,1-.92.37H20.15v-1.24h2.69"/></clipPath><clipPath id="clip-path-31"><path class="cls-1" d="M25.62,351.61H28c.22,0,.33-.08.34-.23v-.11a.2.2,0,0,0,0-.11c-.06-.09-.12-.14-.2-.14H27a1.46,1.46,0,0,1-.91-.32.92.92,0,0,1-.4-.72v-.92c0-.72.45-1.08,1.32-1.1h2.79v1.24H27.38c-.27,0-.41.08-.41.23v.12c0,.15.14.23.42.23h1.19a1.17,1.17,0,0,1,.81.33,1,1,0,0,1,.36.76v.9a1.21,1.21,0,0,1-.4.76,1.05,1.05,0,0,1-.37.25,1.6,1.6,0,0,1-.54.07H25.62v-1.24"/></clipPath><clipPath id="clip-path-32"><path class="cls-1" d="M32.06,351.37a.18.18,0,0,0,.11.17.41.41,0,0,0,.24.08h1c.23,0,.36-.09.36-.25V351c0-.19-.12-.29-.37-.29h-1a.46.46,0,0,0-.28.06.36.36,0,0,0-.07.26v.31Zm1.75-1.9c0-.18-.11-.27-.36-.26H30.73V348h3.06c.89,0,1.34.4,1.36,1.16v2.58a1.14,1.14,0,0,1-.34.81,1.21,1.21,0,0,1-.88.34H32.08c-.9,0-1.36-.38-1.37-1.1v-1a1.07,1.07,0,0,1,1-1.16h2.08v-.12Z"/></clipPath><clipPath id="clip-path-33"><path class="cls-1" d="M36.25,347.27a.94.94,0,0,1,.41-.8,1.65,1.65,0,0,1,1-.32h.85v1.19H38c-.28,0-.43.13-.43.37V348h.95v1.24H37.6v3.65H36.24v-5.59"/></clipPath><clipPath id="clip-path-34"><path class="cls-1" d="M42.39,349.45v0a.21.21,0,0,0-.08-.16.48.48,0,0,0-.24-.06h-.94a.5.5,0,0,0-.29.09.27.27,0,0,0-.14.23v.5l1.69-.57Zm-1.67,1.74v.08a.36.36,0,0,0,.09.24.23.23,0,0,0,.17.11h2.78v1.23H40.81a1.94,1.94,0,0,1-.63-.07,1,1,0,0,1-.43-.23,1,1,0,0,1-.3-.4,1.84,1.84,0,0,1-.09-.57v-2.47a1.09,1.09,0,0,1,1-1.15,1.22,1.22,0,0,1,.27,0h1.82a1.14,1.14,0,0,1,1.28.93,1,1,0,0,1,0,.25v1l-3.05,1.06Z"/></clipPath><clipPath id="clip-path-35"><path class="cls-1" d="M46.62,352.85a2.71,2.71,0,0,1-.56-.05,1.25,1.25,0,0,1-.53-.22,1.1,1.1,0,0,1-.38-.48,1.36,1.36,0,0,1-.11-.6v-2.3a1.4,1.4,0,0,1,.06-.5,1,1,0,0,1,.29-.42,1.32,1.32,0,0,1,.5-.29,2.28,2.28,0,0,1,.58-.05h2.07v.29h-2a1.51,1.51,0,0,0-.84.19.84.84,0,0,0-.32.74v2.3a1.61,1.61,0,0,0,.08.48,1,1,0,0,0,.29.39,1.16,1.16,0,0,0,.44.19,2.42,2.42,0,0,0,.47,0h1.93v.29h-2"/></clipPath><clipPath id="clip-path-36"><path class="cls-1" d="M53.86,349.86H51.15a1.12,1.12,0,0,0-.77.27.89.89,0,0,0-.28.72v.73a1.23,1.23,0,0,0,0,.39.59.59,0,0,0,.25.33,1.26,1.26,0,0,0,.78.26h1.64a.92.92,0,0,0,1-.74.89.89,0,0,0,0-.23v-1.73Zm.32,1.66a2.63,2.63,0,0,1,0,.49,1,1,0,0,1-.27.45,1.46,1.46,0,0,1-1,.39H51.21a1.55,1.55,0,0,1-1-.33,1.14,1.14,0,0,1-.4-.92v-.74a1.2,1.2,0,0,1,1.12-1.29h3v-.33a1,1,0,0,0-.26-.7.79.79,0,0,0-.38-.26,2.22,2.22,0,0,0-.51-.06H49.79v-.29h2.77a5.36,5.36,0,0,1,.7.05,1,1,0,0,1,.29.11,1.18,1.18,0,0,1,.27.23,1.45,1.45,0,0,1,.36,1v2.22Z"/></clipPath><clipPath id="clip-path-37"><path class="cls-1" d="M57.22,348.22c-.76,0-1.13.38-1.11,1.1v3.53h-.33v-3.53a1.21,1.21,0,0,1,1.08-1.38,1.41,1.41,0,0,1,.41,0h.36v.29h-.41"/></clipPath><clipPath id="clip-path-38"><path class="cls-1" d="M62.68,348.23H60.12a1.67,1.67,0,0,0-.5,0,1,1,0,0,0-.45.25.84.84,0,0,0-.25.37,1.17,1.17,0,0,0-.06.45v2.25a.8.8,0,0,0,.37.77,1.72,1.72,0,0,0,.4.14,1.67,1.67,0,0,0,.5.05h1.12a1.8,1.8,0,0,0,1-.25.94.94,0,0,0,.41-.84v-3.24Zm.32,3.26c0,.93-.58,1.38-1.66,1.36h-1.2a3.12,3.12,0,0,1-.68-.05,1.29,1.29,0,0,1-.59-.34,1,1,0,0,1-.27-.47,1.67,1.67,0,0,1-.07-.54v-2.1a1.32,1.32,0,0,1,1.22-1.42,1.7,1.7,0,0,1,.39,0h2.54v-1.6H63v5.15Z"/></clipPath><clipPath id="clip-path-39"><path class="cls-1" d="M1.58,347.78a1.68,1.68,0,0,1,.32-.09,2,2,0,0,1,2-1.46,2,2,0,0,1,2,1.46,1.54,1.54,0,0,1,.74.32,1.78,1.78,0,0,0,0-.46,2.64,2.64,0,0,0-2.74-2.23,2.63,2.63,0,0,0-2.74,2.35c0,.12,0,.23,0,.35a1.82,1.82,0,0,1,.43-.24"/></clipPath><clipPath id="clip-path-40"><path class="cls-1" d="M2.22,348a1.24,1.24,0,0,0-.5.1,1.23,1.23,0,0,0-.4.23,1.38,1.38,0,0,0-.32,1v2.3a1.38,1.38,0,0,0,.32,1,1.23,1.23,0,0,0,.4.23,1.24,1.24,0,0,0,.5.1H5.51a1.14,1.14,0,0,0,1.3-1.24v-2.4A1.13,1.13,0,0,0,5.51,348Z"/></clipPath><clipPath id="clip-path-41"><path class="cls-1" d="M451.9,346.21a.73.73,0,0,1-.73-.73v-3.22h-.27c-1.67,0-2.29.27-2.29,1.79v9.4a2.71,2.71,0,0,1-.35,1.47c-.46.7-1.36,1-2.79,1s-2.34-.32-2.79-1a2.62,2.62,0,0,1-.36-1.47v-9.4c0-1.52-.62-1.79-2.29-1.79h-.53c-1.66,0-2.28.27-2.28,1.79v9.4a6.87,6.87,0,0,0,1,3.83c1.27,2,3.74,3.06,7.24,3.06h0c3.51,0,6-1.06,7.25-3.06a7,7,0,0,0,1-3.83v-7.24h-1.82"/></clipPath><clipPath id="clip-path-42"><path class="cls-1" d="M459.61,341h-2.74a.55.55,0,0,1-.54-.55V337.7a.54.54,0,0,1,.54-.54h2.74a.54.54,0,0,1,.54.54v2.77a.55.55,0,0,1-.54.55"/></clipPath><clipPath id="clip-path-43"><path class="cls-1" d="M456,337.15H454.1a.36.36,0,0,1-.37-.36V334.9a.37.37,0,0,1,.37-.37H456a.37.37,0,0,1,.36.37v1.89a.36.36,0,0,1-.36.36"/></clipPath><clipPath id="clip-path-44"><path class="cls-1" d="M408.8,348c0,2.23-.57,3.44-3.58,3.44H400.6v-5.76c0-.8.29-1.1,1.09-1.1h3.53c2.27,0,3.58.56,3.58,3.41Zm-3.58-5.73h-4c-2.13,0-3.08.95-3.08,3.08V359c0,.82.27,1.08,1.09,1.08h.27c.83,0,1.09-.26,1.09-1.08V353.7h4.62c4.11,0,6-1.82,6-5.72s-1.91-5.73-6-5.73Z"/></clipPath><clipPath id="clip-path-45"><path class="cls-1" d="M419.85,354v1.88c0,1.53-.57,2.41-3.47,2.41-1.92,0-2.85-.69-2.85-2.12s.93-2.17,3.33-2.17Zm-3.47-7.78a14.59,14.59,0,0,0-2.95.27c-.66.15-.94.33-.94,1.09v.21a1.13,1.13,0,0,0,.14.65.56.56,0,0,0,.52.25,1.52,1.52,0,0,0,.42-.06,15.06,15.06,0,0,1,2.92-.29c2.39,0,3.36.66,3.36,2.28V352h-3c-3.87,0-5.67,1.3-5.67,4.11s1.86,4.21,5.24,4.21c4,0,5.8-1.37,5.8-4.43v-5.34c0-3-1.91-4.4-5.83-4.4Z"/></clipPath><clipPath id="clip-path-46"><path class="cls-1" d="M435.44,346.82a1,1,0,0,0-.81-.25h-.25a1.11,1.11,0,0,0-1.28.89s0,.09,0,.13l-2.23,9.3c-.28,1.15-.67,1.36-1.35,1.36s-1.15-.2-1.47-1.36l-2.54-9.3a1.14,1.14,0,0,0-1.23-1H424a.74.74,0,0,0-.84,1.11l2.56,9.38c.48,1.79,1.05,3.28,3.19,3.28a3.56,3.56,0,0,0,1.07-.16c-.65,2-1.31,2.93-3.25,3.13-.39,0-.65.09-.79.28a1,1,0,0,0-.06.74l.05.24c.12.55.31.9.94.9H427c2.9-.19,4.45-1.75,5.36-5.39l3.1-12.4a1,1,0,0,0-.05-.85"/></clipPath><clipPath id="clip-path-47"><path class="cls-1" d="M455.6,340.58h-3.7a.73.73,0,0,0-.73.73v.52h.26c1.67,0,2.29.27,2.29,1.79v2.16h1.87a.73.73,0,0,0,.73-.73v-3.74a.73.73,0,0,0-.73-.73"/></clipPath><clipPath id="clip-path-48"><path class="cls-1" d="M45.54,572.49A2.53,2.53,0,0,0,48.08,570h0a2.54,2.54,0,0,0-2.54-2.54h0a2.54,2.54,0,1,0,0,5.08Zm-19.49,1.38a18,18,0,0,1-2.95,5V568.56l-5.32,1.05v18.76H23.1v-5.8a19.94,19.94,0,0,1,2.31,5.8h6.38c-.63-2.63-3.39-7.46-3.39-7.46a23.55,23.55,0,0,0,3.74-7Zm14-.19c-4.77.15-7.19,2.29-7.19,6.54v8.16h5.2v-6.65c0-2.55.33-3.64,3.36-3.75v-4.23a7,7,0,0,0-1.37-.07Zm-31.2,2.26c-.66-.05-2.17-.14-2.17-1.5,0-1.64,2.18-1.64,3-1.64a17.65,17.65,0,0,1,4.62.82s.74.26,1.37.52l.06,0v-4.49l-.08,0a18.53,18.53,0,0,0-6.76-1.07C3.06,568.57,1,572,1,574.86c0,1.68.72,5.62,7.38,6.07.57,0,2.06.12,2.06,1.53,0,1.16-1.22,1.84-3.29,1.84a16.42,16.42,0,0,1-5.79-1.12v4.63a27.06,27.06,0,0,0,6.88.78c5.69,0,8.24-3.21,8.24-6.38,0-3.61-2.85-6-7.63-6.27ZM43,588.38h5.16V573.89H43Zm14.88-18.89v18.89H63V568.57l-5.16.92Zm-7.54,0,5.16-.92v19.8H50.3V569.49Z"/></clipPath><clipPath id="clip-path-49"><path class="cls-1" d="M-23.87,572.49A2.53,2.53,0,0,0-21.32,570h0a2.55,2.55,0,0,0-2.55-2.54h0A2.54,2.54,0,0,0-26.41,570,2.54,2.54,0,0,0-23.87,572.49Zm-19.49,1.38a18,18,0,0,1-2.94,5V568.56l-5.33,1.05v18.76h5.33v-5.8a19.92,19.92,0,0,1,2.3,5.8h6.38c-.63-2.63-3.39-7.46-3.39-7.46a23.32,23.32,0,0,0,3.74-7Zm14-.19c-4.77.15-7.19,2.29-7.19,6.54v8.16h5.21v-6.65c0-2.55.33-3.64,3.35-3.75v-4.23a7,7,0,0,0-1.37-.07Zm-31.2,2.26c-.65-.05-2.16-.14-2.16-1.5,0-1.64,2.17-1.64,3-1.64a17.72,17.72,0,0,1,4.62.82s.74.26,1.37.52l.06,0v-4.49l-.08,0a18.53,18.53,0,0,0-6.76-1.07c-5.82,0-7.88,3.39-7.88,6.29,0,1.68.71,5.62,7.38,6.07.56,0,2.06.12,2.06,1.53,0,1.16-1.23,1.84-3.29,1.84A16.37,16.37,0,0,1-68,583.18v4.63a27,27,0,0,0,6.88.78c5.69,0,8.24-3.21,8.24-6.38,0-3.61-2.85-6-7.63-6.27Zm34.11,12.44h5.16V573.89h-5.16Zm14.88-18.89v18.89H-6.4V568.57l-5.17.92Zm-7.53,0,5.15-.92v19.8H-19.1V569.49Z"/></clipPath><clipPath id="clip-path-50"><path class="cls-1" d="M158.09,669a23.16,23.16,0,0,1,10.15,2.34c.48.22,1,.47,1.45.75L167.55,674l-3.2-3.28-5.42,4.78L155.72,672l-10.08,9,6.46,7.06-2.54,2.22,6.37,7.08-2.53,2.2,9.1,10,5.39-4.93,4.67,5.28a24.89,24.89,0,0,1-3.06,2,23,23,0,1,1-11.42-43"/></clipPath><clipPath id="clip-path-51"><polyline class="cls-1" points="153.87 690.55 159.37 685.62 164.34 691.09 158.84 696.03 153.88 690.56"/></clipPath><clipPath id="clip-path-52"><polyline class="cls-1" points="157.78 700 163.29 695.07 168.26 700.54 162.75 705.47 157.79 699.99"/></clipPath><clipPath id="clip-path-53"><polyline class="cls-1" points="149.92 681.21 155.43 676.28 160.4 681.75 154.89 686.68 149.92 681.21"/></clipPath><clipPath id="clip-path-54"><polyline class="cls-1" points="160.03 678.55 164.17 674.86 167.87 678.96 163.74 682.67 160.03 678.56"/></clipPath><clipPath id="clip-path-55"><polyline class="cls-1" points="167.38 695.47 171.51 691.76 175.22 695.87 171.09 699.57 167.37 695.47"/></clipPath><clipPath id="clip-path-56"><polyline class="cls-1" points="171.01 703.75 175.15 700.05 178.87 704.15 174.74 707.85 171.03 703.75"/></clipPath><clipPath id="clip-path-57"><polyline class="cls-1" points="172.68 684.77 175.43 682.3 177.91 685.04 175.16 687.5 172.68 684.77"/></clipPath><clipPath id="clip-path-58"><polyline class="cls-1" points="169.16 676.64 171.91 674.18 174.39 676.92 171.64 679.38 169.16 676.64"/></clipPath><clipPath id="clip-path-59"><polyline class="cls-1" points="176.2 692.89 178.96 690.43 181.44 693.17 178.68 695.63 176.2 692.89"/></clipPath><clipPath id="clip-path-60"><polyline class="cls-1" points="163.84 686.81 167.98 683.1 171.68 687.2 167.55 690.91 163.83 686.81"/></clipPath><clipPath id="clip-path-61"><path class="cls-1" d="M250.06,684.31a7.57,7.57,0,0,1,3.4.78c.16.07.32.16.48.25l-.71.63-1.07-1.1-1.81,1.6-1.08-1.16-3.37,3,2.16,2.36-.85.74,2.13,2.37-.84.74,3,3.36,1.8-1.65L254.9,698a7.8,7.8,0,0,1-1,.67,7.62,7.62,0,0,1-3.82,1,7.69,7.69,0,1,1,0-15.38"/></clipPath><clipPath id="clip-path-62"><polyline class="cls-1" points="248.65 691.51 250.49 689.87 252.15 691.7 250.31 693.35 248.65 691.52"/></clipPath><clipPath id="clip-path-63"><polyline class="cls-1" points="249.96 694.67 251.81 693.03 253.47 694.86 251.62 696.5 249.96 694.67"/></clipPath><clipPath id="clip-path-64"><polyline class="cls-1" points="247.33 688.39 249.18 686.74 250.84 688.57 248.99 690.22 247.33 688.39"/></clipPath><clipPath id="clip-path-65"><polyline class="cls-1" points="250.72 687.5 252.1 686.27 253.34 687.64 251.96 688.88 250.72 687.5"/></clipPath><clipPath id="clip-path-66"><polyline class="cls-1" points="253.17 693.16 254.55 691.92 255.79 693.29 254.41 694.53 253.17 693.16"/></clipPath><clipPath id="clip-path-67"><polyline class="cls-1" points="254.39 695.93 255.77 694.69 257.01 696.06 255.63 697.3 254.39 695.93"/></clipPath><clipPath id="clip-path-68"><polyline class="cls-1" points="254.94 689.58 255.87 688.76 256.7 689.67 255.77 690.5 254.94 689.58"/></clipPath><clipPath id="clip-path-69"><polyline class="cls-1" points="253.77 686.86 254.69 686.04 255.52 686.95 254.6 687.78 253.77 686.86"/></clipPath><clipPath id="clip-path-70"><polyline class="cls-1" points="256.12 692.3 257.04 691.48 257.87 692.39 256.95 693.21 256.12 692.3"/></clipPath><clipPath id="clip-path-71"><polyline class="cls-1" points="251.99 690.26 253.37 689.02 254.61 690.39 253.23 691.63 251.98 690.26"/></clipPath><clipPath id="clip-path-72"><polyline class="cls-1" points="199.49 690.67 199.43 690.67 198.26 695.05 197.31 695.05 195.87 688.83 196.86 688.83 197.85 693.47 197.91 693.47 199.06 688.83 199.85 688.83 201.08 693.47 201.14 693.47 202.04 688.83 203.08 688.83 201.65 695.05 200.69 695.05 199.49 690.67"/></clipPath><clipPath id="clip-path-73"><path class="cls-1" d="M207,694.09v.67a3.19,3.19,0,0,1-1.57.4c-1.48,0-2.1-.91-2.1-2.3s.69-2.3,2-2.3c1.1,0,1.78.71,1.78,2.14V693h-2.88c0,1.05.43,1.51,1.35,1.51a2.61,2.61,0,0,0,1.4-.45Zm-2.73-1.65h2c0-.92-.49-1.29-1-1.29s-1,.41-1,1.29Z"/></clipPath><clipPath id="clip-path-74"><path class="cls-1" d="M208.86,690.88a2.58,2.58,0,0,1,1.19-.32c1.1,0,1.69.76,1.69,2.16,0,1.64-.8,2.44-2.08,2.44a4.09,4.09,0,0,1-1.72-.43V688.6l.92-.22Zm0,3.52a1.87,1.87,0,0,0,.81.14c.65,0,1.15-.4,1.15-1.82,0-1.11-.41-1.47-1-1.47a1.79,1.79,0,0,0-1,.28v2.87Z"/></clipPath><clipPath id="clip-path-75"><polyline class="cls-1" points="215.76 693.74 215.8 693.74 217.7 688.83 218.79 688.83 218.79 695.05 217.84 695.05 217.84 690.54 217.76 690.54 215.95 695.05 215.39 695.05 213.58 690.64 213.5 690.64 213.5 695.05 212.71 695.05 212.71 688.83 213.78 688.83 215.76 693.74"/></clipPath><clipPath id="clip-path-76"><path class="cls-1" d="M219.77,692.86c0-1.54.85-2.3,2-2.3s2,.76,2,2.3-.8,2.3-2,2.3S219.77,694.36,219.77,692.86Zm3.1,0c0-1.19-.48-1.69-1.09-1.69s-1.08.5-1.08,1.69.46,1.68,1.08,1.68S222.87,694.06,222.87,692.86Z"/></clipPath><clipPath id="clip-path-77"><path class="cls-1" d="M224.64,691.21a4.59,4.59,0,0,1,2.26-.65c1.06,0,1.46.41,1.46,1.32v3.17h-.92v-3c0-.7-.35-.82-.8-.82a2.42,2.42,0,0,0-1.08.32v3.47h-.92v-3.84"/></clipPath><clipPath id="clip-path-78"><path class="cls-1" d="M232.84,694.09v.67a3.18,3.18,0,0,1-1.56.4c-1.49,0-2.1-.91-2.1-2.3s.68-2.3,2-2.3c1.11,0,1.79.71,1.79,2.14V693h-2.89c0,1.05.44,1.51,1.35,1.51a2.59,2.59,0,0,0,1.4-.45Zm-2.73-1.65h2c0-.92-.49-1.29-1-1.29s-.95.41-1,1.29Z"/></clipPath><clipPath id="clip-path-79"><path class="cls-1" d="M236.42,690.71h.94l-1.6,4.39c-.44,1.21-1,1.84-2,1.84v-.72c.6,0,1-.48,1.18-1.12l-1.7-4.39h1l1.13,3.23h.05l1-3.23"/></clipPath><clipPath id="clip-path-80"><path class="cls-1" d="M363.19,347.81a1.3,1.3,0,0,1-1.3-1.3v-5.74h-.48c-3,0-4.08.49-4.08,3.19v16.76a4.78,4.78,0,0,1-.64,2.61c-.81,1.25-2.41,1.81-5,1.82s-4.17-.57-5-1.82a4.69,4.69,0,0,1-.64-2.61V344c0-2.7-1.11-3.19-4.08-3.19h-.94c-3,0-4.07.49-4.07,3.19v16.76a12.4,12.4,0,0,0,1.78,6.82c2.27,3.56,6.66,5.46,12.91,5.46h0c6.25,0,10.64-1.9,12.91-5.46a12.5,12.5,0,0,0,1.79-6.82v-12.9h-3.24"/></clipPath><clipPath id="clip-path-81"><path class="cls-1" d="M376.93,338.56H372a1,1,0,0,1-1-1v-4.95a1,1,0,0,1,1-1h4.89a1,1,0,0,1,1,1v4.95a1,1,0,0,1-1,1"/></clipPath><clipPath id="clip-path-82"><path class="cls-1" d="M370.41,331.67H367.1a.66.66,0,0,1-.66-.65v-3.36a.66.66,0,0,1,.66-.66h3.31a.65.65,0,0,1,.66.66V331a.65.65,0,0,1-.66.65"/></clipPath><clipPath id="clip-path-83"><path class="cls-1" d="M369.77,337.78h-6.58a1.3,1.3,0,0,0-1.3,1.3V340h.46c3,0,4.08.49,4.08,3.2v3.85h3.34a1.3,1.3,0,0,0,1.3-1.3v-6.67a1.3,1.3,0,0,0-1.3-1.3"/></clipPath><clipPath id="clip-path-84"><path class="cls-1" d="M-50.75,342.09a10.59,10.59,0,0,1,1.94-.58c1.26-5.19,6.35-8.88,12.23-8.86s11,3.68,12.23,8.87a9.5,9.5,0,0,1,4.58,2,14.45,14.45,0,0,0-.12-2.79c-.84-7.78-8.1-13.69-16.74-13.65-8.94,0-16.33,6.28-16.77,14.35a17.31,17.31,0,0,0,0,2.16,10.78,10.78,0,0,1,2.64-1.47"/></clipPath><clipPath id="clip-path-85"><path class="cls-1" d="M-46.88,343.23a8,8,0,0,0-3,.61,8.26,8.26,0,0,0-2.47,1.41,8.51,8.51,0,0,0-1.94,5.87v14A8.47,8.47,0,0,0-52.35,371a8.19,8.19,0,0,0,2.47,1.43,8.24,8.24,0,0,0,3,.61h20.14c5.19-.05,7.84-2.58,7.92-7.61V350.83q-.12-7.54-7.92-7.6Z"/></clipPath><clipPath id="clip-path-86"><path class="cls-1" d="M211.76-174.47a5,5,0,0,0,3.13,4.53,11.82,11.82,0,0,1-1.61,3.19c-1,1.37-2,2.73-3.58,2.75s-2.07-.88-3.85-.88-2.35.86-3.83.91-2.71-1.47-3.69-2.83c-2-2.78-3.54-7.86-1.48-11.29a5.75,5.75,0,0,1,4.83-2.8c1.51,0,2.94,1,3.86,1s2.66-1.2,4.47-1a5.52,5.52,0,0,1,4.27,2.23,5,5,0,0,0-2.52,4.26m-2.94-8.33a4.8,4.8,0,0,0,1.21-3.57,5.31,5.31,0,0,0-3.44,1.7,4.56,4.56,0,0,0-1.24,3.46,4.42,4.42,0,0,0,3.47-1.59"/></clipPath><clipPath id="clip-path-87"><path class="cls-1" d="M220.63-184.41c.6-.1,1.27-.19,2-.27s1.6-.12,2.4-.12a10.74,10.74,0,0,1,3.24.44,5.79,5.79,0,0,1,2.23,1.25,5,5,0,0,1,1.17,1.73,5.66,5.66,0,0,1,.42,2.3,6.07,6.07,0,0,1-.57,2.75,5.73,5.73,0,0,1-1.58,2,6.58,6.58,0,0,1-2.38,1.19,10.44,10.44,0,0,1-3,.4,11.45,11.45,0,0,1-2.47-.21v8.71h-1.46Zm1.47,10.15a6.06,6.06,0,0,0,1.19.21c.43,0,.9.06,1.4.06a6.66,6.66,0,0,0,4.36-1.27A4.51,4.51,0,0,0,230.6-179a4.78,4.78,0,0,0-.4-2.05,3.71,3.71,0,0,0-1.16-1.44,5.41,5.41,0,0,0-1.78-.85,8.38,8.38,0,0,0-2.28-.28,16.38,16.38,0,0,0-1.72.07c-.48.05-.87.11-1.16.17v9.1Z"/></clipPath><clipPath id="clip-path-88"><path class="cls-1" d="M243.78-167.73c0,.58,0,1.17,0,1.75a10.53,10.53,0,0,0,.19,1.69h-1.38l-.21-2.05h-.07a4.84,4.84,0,0,1-.72.84,5.45,5.45,0,0,1-1,.78,5.27,5.27,0,0,1-1.32.55,5.79,5.79,0,0,1-1.61.22,5.06,5.06,0,0,1-1.92-.35,4,4,0,0,1-1.36-.91,3.79,3.79,0,0,1-.8-1.28,4.27,4.27,0,0,1-.26-1.45,4.39,4.39,0,0,1,2.23-4,12.58,12.58,0,0,1,6.74-1.33v-.4a9.51,9.51,0,0,0-.11-1.31,3.88,3.88,0,0,0-.49-1.41,3.16,3.16,0,0,0-1.12-1.12,4,4,0,0,0-2-.45,6.57,6.57,0,0,0-1.92.29,6.34,6.34,0,0,0-1.73.8l-.47-1.07a7.14,7.14,0,0,1,2.06-.95,8.73,8.73,0,0,1,2.22-.29,5.48,5.48,0,0,1,2.55.52,4.19,4.19,0,0,1,1.54,1.33,4.86,4.86,0,0,1,.77,1.83,10.38,10.38,0,0,1,.2,2v5.71ZM242.31-172a20.49,20.49,0,0,0-2.48.09,9.37,9.37,0,0,0-2.4.53,4.6,4.6,0,0,0-1.81,1.2,3,3,0,0,0-.72,2.08,2.74,2.74,0,0,0,.91,2.26,3.2,3.2,0,0,0,2,.73,5,5,0,0,0,1.63-.25,4,4,0,0,0,1.25-.65,4.09,4.09,0,0,0,.89-.92,4.08,4.08,0,0,0,.54-1.06,3.79,3.79,0,0,0,.16-.88v-3.14Z"/></clipPath><clipPath id="clip-path-89"><path class="cls-1" d="M246.65-178.79l3.82,9.43c.21.52.4,1.06.59,1.62s.35,1.06.5,1.52h.06c.15-.44.32-.94.5-1.49s.4-1.13.63-1.71l3.56-9.37h1.56l-4.34,10.63c-.44,1.13-.85,2.15-1.23,3.07s-.78,1.74-1.18,2.48a18.54,18.54,0,0,1-1.2,2,8.3,8.3,0,0,1-1.36,1.48,7.29,7.29,0,0,1-1.61,1.1c-.49.24-.82.38-1,.44l-.51-1.18q.64-.28,1.26-.63a7,7,0,0,0,1.34-1,11.9,11.9,0,0,0,1.23-1.43,10.2,10.2,0,0,0,1.21-2.16,2.45,2.45,0,0,0,.18-.64,1.7,1.7,0,0,0-.18-.63l-5.41-13.45h1.56Z"/></clipPath></defs><path class="cls-81" d="M4.91,3.66V44.34a3.55,3.55,0,0,0,3.54,3.54h24.3C51.13,47.88,59.09,37.6,59.09,24S51.13.12,32.75.12H8.45A3.55,3.55,0,0,0,4.91,3.66Z"/><path class="cls-82" d="M21.17,10.1V40.16H34.26c11.88,0,17-6.71,17-16.2,0-9.08-5.15-16.12-17-16.12H23.44A2.27,2.27,0,0,0,21.17,10.1Z"/><path d="M32.75,44.64H11.61a3.4,3.4,0,0,1-3.39-3.4V6.77a3.39,3.39,0,0,1,3.39-3.39H32.75c20.06,0,23,12.9,23,20.58C55.8,37.3,47.61,44.64,32.75,44.64ZM11.61,4.51A2.26,2.26,0,0,0,9.35,6.77V41.24a2.26,2.26,0,0,0,2.26,2.27H32.75c14.13,0,21.92-6.94,21.92-19.55C54.67,7,40.93,4.51,32.75,4.51Z"/><path class="cls-81" d="M25.78,19.91a3.92,3.92,0,0,1,1.29.21,2.76,2.76,0,0,1,1,.66,3.32,3.32,0,0,1,.69,1.1,4.5,4.5,0,0,1,.25,1.55,5.61,5.61,0,0,1-.19,1.46,3.49,3.49,0,0,1-.6,1.15,3.24,3.24,0,0,1-1,.76,3.73,3.73,0,0,1-1.44.28h-3.1V19.89h3.07Zm-.11,5.86a2.24,2.24,0,0,0,.67-.11,1.26,1.26,0,0,0,.57-.37,2.07,2.07,0,0,0,.41-.67,2.93,2.93,0,0,0,.16-1,4.11,4.11,0,0,0-.11-1,1.93,1.93,0,0,0-.35-.75,1.62,1.62,0,0,0-.64-.47,2.56,2.56,0,0,0-1-.16H24.27v4.53h1.4Z"/><path class="cls-81" d="M35.44,19.91v1.33H31.65v1.54h3.49V24H31.65v1.75h3.88v1.33H30.08V19.89h5.36Z"/><path class="cls-81" d="M40.86,19.91l2.69,7.19H41.91l-.55-1.6H38.67l-.57,1.6H36.51l2.7-7.19ZM41,24.32l-.9-2.64h0l-.94,2.64Z"/><path class="cls-81" d="M46.12,19.91v5.86h3.5V27.1H44.54V19.91Z"/><circle cx="15.26" cy="23.5" r="3.31"/><path d="M17.76,40.16h0a5,5,0,0,1-5-5V31.24a2.51,2.51,0,0,1,2.51-2.51h0a2.51,2.51,0,0,1,2.52,2.51v8.92Z"/></svg>