<svg id="Calque_1" data-name="Calque 1" xmlns="http://www.w3.org/2000/svg" xmlns:xlink="http://www.w3.org/1999/xlink" viewBox="0 0 64 64"><defs><style>.cls-1{fill:none;}.cls-2{clip-path:url(#clip-path);}.cls-3{clip-path:url(#clip-path-2);}.cls-4{clip-path:url(#clip-path-3);}.cls-5{clip-path:url(#clip-path-4);}.cls-6{clip-path:url(#clip-path-5);}.cls-7{clip-path:url(#clip-path-11);}.cls-8{clip-path:url(#clip-path-12);}.cls-9{clip-path:url(#clip-path-13);}.cls-10{clip-path:url(#clip-path-14);}.cls-11{clip-path:url(#clip-path-15);}.cls-12{clip-path:url(#clip-path-16);}.cls-13{clip-path:url(#clip-path-17);}.cls-14{clip-path:url(#clip-path-18);}.cls-15{clip-path:url(#clip-path-19);}.cls-16{clip-path:url(#clip-path-20);}.cls-17{clip-path:url(#clip-path-21);}.cls-18{clip-path:url(#clip-path-22);}.cls-19{clip-path:url(#clip-path-23);}.cls-20{clip-path:url(#clip-path-24);}.cls-21{clip-path:url(#clip-path-25);}.cls-22{clip-path:url(#clip-path-26);}.cls-23{clip-path:url(#clip-path-27);}.cls-24{clip-path:url(#clip-path-28);}.cls-25{clip-path:url(#clip-path-29);}.cls-26{clip-path:url(#clip-path-30);}.cls-27{clip-path:url(#clip-path-31);}.cls-28{clip-path:url(#clip-path-32);}.cls-29{clip-path:url(#clip-path-33);}.cls-30{clip-path:url(#clip-path-34);}.cls-31{clip-path:url(#clip-path-35);}.cls-32{clip-path:url(#clip-path-36);}.cls-33{clip-path:url(#clip-path-37);}.cls-34{clip-path:url(#clip-path-38);}.cls-35{clip-path:url(#clip-path-39);}.cls-36{clip-path:url(#clip-path-40);}.cls-37{clip-path:url(#clip-path-41);}.cls-38{clip-path:url(#clip-path-42);}.cls-39{clip-path:url(#clip-path-43);}.cls-40{clip-path:url(#clip-path-44);}.cls-41{clip-path:url(#clip-path-45);}.cls-42{clip-path:url(#clip-path-46);}.cls-43{clip-path:url(#clip-path-47);}.cls-44{clip-path:url(#clip-path-48);}.cls-45{clip-path:url(#clip-path-49);}.cls-46{clip-path:url(#clip-path-50);}.cls-47{clip-path:url(#clip-path-51);}.cls-48{clip-path:url(#clip-path-52);}.cls-49{clip-path:url(#clip-path-53);}.cls-50{clip-path:url(#clip-path-54);}.cls-51{clip-path:url(#clip-path-55);}.cls-52{clip-path:url(#clip-path-56);}.cls-53{clip-path:url(#clip-path-57);}.cls-54{clip-path:url(#clip-path-58);}.cls-55{clip-path:url(#clip-path-59);}.cls-56{clip-path:url(#clip-path-60);}.cls-57{clip-path:url(#clip-path-61);}.cls-58{clip-path:url(#clip-path-62);}.cls-59{clip-path:url(#clip-path-63);}.cls-60{clip-path:url(#clip-path-64);}.cls-61{clip-path:url(#clip-path-65);}.cls-62{clip-path:url(#clip-path-66);}.cls-63{clip-path:url(#clip-path-67);}.cls-64{clip-path:url(#clip-path-68);}.cls-65{clip-path:url(#clip-path-69);}.cls-66{clip-path:url(#clip-path-70);}.cls-67{clip-path:url(#clip-path-71);}.cls-68{clip-path:url(#clip-path-72);}.cls-69{clip-path:url(#clip-path-73);}.cls-70{clip-path:url(#clip-path-74);}.cls-71{clip-path:url(#clip-path-75);}.cls-72{clip-path:url(#clip-path-76);}.cls-73{fill:#3d73b9;}.cls-73,.cls-74{fill-rule:evenodd;}.cls-74,.cls-75{fill:#1d1d1b;}</style><clipPath id="clip-path"><polyline class="cls-1" points="-340.59 -213.33 -339.01 -223.08 -336.5 -223.08 -338.07 -213.33 -340.59 -213.33"/></clipPath><clipPath id="clip-path-2"><path class="cls-1" d="M-329-222.84a6,6,0,0,0-2.25-.41c-2.48,0-4.23,1.32-4.25,3.22,0,1.4,1.25,2.18,2.2,2.64s1.31.79,1.31,1.22c0,.65-.78.95-1.51.95a5.08,5.08,0,0,1-2.36-.51l-.33-.16-.35,2.18a7.44,7.44,0,0,0,2.8.52c2.64,0,4.36-1.3,4.38-3.33,0-1.11-.66-1.95-2.11-2.65-.88-.45-1.42-.75-1.41-1.21s.45-.84,1.44-.84a4.52,4.52,0,0,1,1.88.38l.22.11.34-2.11"/></clipPath><clipPath id="clip-path-3"><path class="cls-1" d="M-325.61-216.79c.21-.56,1-2.73,1-2.73s.21-.56.34-.93l.17.85.58,2.81Zm3.1-6.28h-1.94a1.24,1.24,0,0,0-1.32.8l-3.73,8.94h2.64s.43-1.2.53-1.46h3.21c.08.34.31,1.46.31,1.46h2.33l-2-9.74Z"/></clipPath><clipPath id="clip-path-4"><path class="cls-1" d="M-342.69-223.08l-2.46,6.65-.27-1.35a7.46,7.46,0,0,0-3.48-4.09l2.25,8.53H-344l4-9.73h-2.66"/></clipPath><clipPath id="clip-path-5"><path class="cls-1" d="M-347.44-223.08h-4.05l0,.2a8.43,8.43,0,0,1,6.1,5.1l-.88-4.48a1,1,0,0,0-1.14-.82"/></clipPath><clipPath id="clip-path-11"><polyline class="cls-1" points="-180.17 -192.66 -177.03 -212.17 -172 -212.17 -175.15 -192.66 -180.17 -192.66"/></clipPath><clipPath id="clip-path-12"><path class="cls-1" d="M-156.91-211.69a12.63,12.63,0,0,0-4.51-.82c-5,0-8.46,2.65-8.49,6.44,0,2.8,2.49,4.37,4.4,5.3s2.61,1.57,2.61,2.42c0,1.31-1.57,1.9-3,1.9a10.11,10.11,0,0,1-4.74-1l-.64-.31-.71,4.37a15.36,15.36,0,0,0,5.6,1c5.28,0,8.72-2.62,8.76-6.66,0-2.23-1.32-3.91-4.22-5.3-1.76-.91-2.84-1.51-2.83-2.42s.91-1.68,2.88-1.68a8.81,8.81,0,0,1,3.76.75l.46.22.68-4.23"/></clipPath><clipPath id="clip-path-13"><path class="cls-1" d="M-150.22-199.58l2-5.45c0,.05.42-1.13.67-1.86l.34,1.68,1.17,5.63Zm6.2-12.57h-3.89a2.48,2.48,0,0,0-2.63,1.62L-158-192.65h5.27s.86-2.41,1.06-2.94h6.44c.15.68.61,2.93.61,2.93l4.65-.09L-144-212.23Z"/></clipPath><clipPath id="clip-path-14"><path class="cls-1" d="M-184.39-212.15l-4.92,13.3-.53-2.71a14.91,14.91,0,0,0-7-8.18l4.5,17.06H-187l7.92-19.47h-5.33"/></clipPath><clipPath id="clip-path-15"><path class="cls-1" d="M-193.87-212.17H-202l-.07.41c6.31,1.61,10.48,5.51,12.21,10.2l-1.76-9a2.11,2.11,0,0,0-2.27-1.65"/></clipPath><clipPath id="clip-path-16"><path class="cls-1" d="M-184.5,429.52a4.62,4.62,0,0,0,2.9,4.19,11.37,11.37,0,0,1-1.49,3c-.9,1.26-1.84,2.51-3.31,2.54s-1.91-.82-3.56-.82-2.17.79-3.53.85-2.51-1.37-3.41-2.63c-1.86-2.57-3.28-7.26-1.37-10.43a5.3,5.3,0,0,1,4.47-2.59c1.39,0,2.71.9,3.56.9s2.45-1.12,4.13-1a5.1,5.1,0,0,1,4,2.05,4.69,4.69,0,0,0-2.33,3.94m-2.72-7.69a4.48,4.48,0,0,0,1.13-3.31,5,5,0,0,0-3.19,1.57,4.21,4.21,0,0,0-1.14,3.2,4,4,0,0,0,3.2-1.46"/></clipPath><clipPath id="clip-path-17"><path class="cls-1" d="M-176.3,420.33c.56-.09,1.18-.18,1.85-.25a18.4,18.4,0,0,1,2.23-.11,9.76,9.76,0,0,1,3,.4,5.47,5.47,0,0,1,2.06,1.16,4.7,4.7,0,0,1,1.09,1.59,5.36,5.36,0,0,1,.38,2.13,5.74,5.74,0,0,1-.53,2.54,5.29,5.29,0,0,1-1.46,1.83,6.24,6.24,0,0,1-2.2,1.1,9.94,9.94,0,0,1-2.77.36,11,11,0,0,1-2.28-.19v8.05h-1.35V420.33Zm1.36,9.39a6.84,6.84,0,0,0,1.1.19c.4,0,.84,0,1.3,0a6.19,6.19,0,0,0,4-1.17,4.17,4.17,0,0,0,1.43-3.44,4.44,4.44,0,0,0-.37-1.9,3.55,3.55,0,0,0-1.07-1.33,5.1,5.1,0,0,0-1.65-.78,7.92,7.92,0,0,0-2.11-.26,14.1,14.1,0,0,0-1.59.07,8.85,8.85,0,0,0-1.07.15v8.41Z"/></clipPath><clipPath id="clip-path-18"><path class="cls-1" d="M-154.89,435.75q0,.81,0,1.62a9.2,9.2,0,0,0,.17,1.57H-156l-.2-1.9h-.06a5.52,5.52,0,0,1-.67.78,5.4,5.4,0,0,1-.94.71,5,5,0,0,1-1.21.52,5.39,5.39,0,0,1-1.49.19,4.71,4.71,0,0,1-1.78-.32,3.54,3.54,0,0,1-1.25-.84,3.32,3.32,0,0,1-.74-1.18,4.13,4.13,0,0,1-.25-1.34,4.08,4.08,0,0,1,2.07-3.66c1.38-.86,3.45-1.27,6.23-1.23v-.36a9.87,9.87,0,0,0-.1-1.22,3.72,3.72,0,0,0-.45-1.3,2.85,2.85,0,0,0-1-1,3.63,3.63,0,0,0-1.88-.42,6,6,0,0,0-1.78.27,5.8,5.8,0,0,0-1.6.74l-.43-1a6.38,6.38,0,0,1,1.91-.88,7.9,7.9,0,0,1,2.05-.27,5.21,5.21,0,0,1,2.36.48,4,4,0,0,1,1.43,1.23,4.51,4.51,0,0,1,.71,1.69,9.62,9.62,0,0,1,.19,1.86v5.28Zm-1.36-4a17.68,17.68,0,0,0-2.3.08,8.41,8.41,0,0,0-2.21.49,4.17,4.17,0,0,0-1.67,1.1,2.67,2.67,0,0,0-.67,1.93,2.48,2.48,0,0,0,.84,2.09,2.84,2.84,0,0,0,1.87.67,4.84,4.84,0,0,0,1.51-.22,4.21,4.21,0,0,0,1.15-.6,3.67,3.67,0,0,0,.82-.85,3.66,3.66,0,0,0,.51-1,3.84,3.84,0,0,0,.15-.81v-2.91Z"/></clipPath><clipPath id="clip-path-19"><path class="cls-1" d="M-152.24,425.53l3.53,8.71c.19.48.37,1,.55,1.49s.32,1,.46,1.41h.06c.13-.41.29-.87.46-1.38s.36-1,.57-1.58l3.3-8.66h1.44l-4,9.84c-.41,1-.79,2-1.15,2.83s-.72,1.62-1.08,2.3a18.52,18.52,0,0,1-1.11,1.8,7.83,7.83,0,0,1-1.26,1.37,6.9,6.9,0,0,1-1.49,1c-.45.21-.75.35-.91.4l-.46-1.09a12.37,12.37,0,0,0,1.15-.58,6.87,6.87,0,0,0,1.25-1,12.11,12.11,0,0,0,1.14-1.33,9.1,9.1,0,0,0,1.11-2,2,2,0,0,0,.18-.58,1.5,1.5,0,0,0-.18-.59l-5-12.43h1.44Z"/></clipPath><clipPath id="clip-path-20"><path class="cls-1" d="M-327.75,431.91a6.44,6.44,0,0,0,4.06,5.86,15.44,15.44,0,0,1-2.09,4.13c-1.26,1.77-2.57,3.53-4.63,3.56s-2.68-1.15-5-1.15-3,1.12-5,1.19-3.51-1.91-4.78-3.67c-2.6-3.6-4.58-10.17-1.92-14.61a7.47,7.47,0,0,1,6.26-3.64c2,0,3.8,1.26,5,1.26s3.44-1.56,5.8-1.33a7.2,7.2,0,0,1,5.53,2.88,6.53,6.53,0,0,0-3.27,5.52m-3.81-10.78A6.19,6.19,0,0,0-330,416.5a6.89,6.89,0,0,0-4.45,2.2,5.94,5.94,0,0,0-1.61,4.48,5.71,5.71,0,0,0,4.49-2.05"/></clipPath><clipPath id="clip-path-21"><path class="cls-1" d="M47.42,270.93h5l.08,0,.07,0,.07,0,.08,0,.07,0,.07,0,.08,0,.07,0,.08,0,.07.06.07.05.08.07.07.07.07.08.08.09a.86.86,0,0,1,.07.1,1.25,1.25,0,0,1,.08.12l.07.14a.87.87,0,0,1,.07.17,2.41,2.41,0,0,1,.08.25,2.5,2.5,0,0,1,0,.47,2.42,2.42,0,0,1,0,.47,2.58,2.58,0,0,1-.08.26.87.87,0,0,1-.07.17l-.07.14-.08.12a.86.86,0,0,1-.07.1l-.08.09-.07.08a.46.46,0,0,0-.07.07l-.08.06-.07.06-.07,0-.08.05-.07,0-.08,0-.07,0-.07,0-.08,0-.07,0-.07,0-.08,0h-5v-4Zm5.92-4.56a2.1,2.1,0,0,1,0,.43,2,2,0,0,1,0,.43,1.82,1.82,0,0,1-.07.25c0,.06-.05.12-.07.17l-.08.14-.07.11L53,268l-.07.09-.07.07-.08.06-.07.06-.07.05-.08.05-.07.05-.07,0-.08,0-.07,0-.08,0-.07,0-.07,0-.08,0H47.41v-3.72h4.53l.08,0,.07,0,.07,0,.08,0,.07,0,.08,0,.07,0,.07,0,.08.05.07.05.07.06.08.06.07.08a.27.27,0,0,1,.07.08l.08.1.07.11a1.25,1.25,0,0,1,.08.12c0,.06,0,.12.07.17a2.5,2.5,0,0,1,.07.26Zm9.13-19.25h0v38.13c0,.23,0,.45,0,.68a5.77,5.77,0,0,1-.08.58c0,.12,0,.25-.07.38s0,.2-.07.3,0,.19-.08.26-.05.16-.07.23l-.07.21c0,.07-.05.13-.08.19s-.05.12-.07.18l-.08.17a1,1,0,0,1-.07.15l-.07.15-.08.14-.07.13-.07.12-.08.13-.07.12-.08.11-.07.11-.07.1-.08.1-.07.1-.07.09-.08.09-.07.09-.08.09-.07.08-.07.08-.08.08-.07.08-.07.07-.08.07-.07.08-.08.06-.07.07-.07.07-.08.06-.07.06-.07.06-.08.06-.07.06-.07,0-.08.06-.07.05-.08.05-.07.05-.07.05-.08,0-.07.05-.07,0-.08.05-.07,0-.08,0-.07.05-.07,0-.08,0-.07,0-.07,0-.08,0-.07,0-.08,0-.07,0-.07,0-.08,0-.07,0-.07,0-.08,0-.07,0-.07,0-.08,0-.07,0-.08,0-.07,0-.07,0-.08,0-.07,0-.07,0-.08,0-.07,0-.08,0h-.07l-.07,0-.08,0h-.07l-.07,0h-.23l-.07,0H43.68V277.29h13l.07,0h.07l.08,0H57l.08,0,.07,0,.07,0,.08,0,.07,0,.07,0,.08,0,.07,0,.07,0,.08,0,.07,0,.08,0,.07,0,.07,0,.08,0,.07,0,.07,0,.08,0,.07,0,.08,0,.07,0,.07-.05.08,0,.07-.05.07-.05.08-.06.07-.05.08-.06.07-.06.07-.07.08-.07.07-.07.07-.08.08-.08.07-.08.08-.1.07-.09.07-.11.08-.12.07-.13L60,275c0-.05,0-.11.08-.17s0-.13.07-.2,0-.16.07-.25a2.57,2.57,0,0,0,.08-.38,4,4,0,0,0,0-.49,3.87,3.87,0,0,0,0-.48,2.45,2.45,0,0,0-.08-.37,1.37,1.37,0,0,0-.07-.24c0-.07,0-.13-.07-.19l-.08-.16a.46.46,0,0,0-.07-.14l-.07-.13a1,1,0,0,0-.08-.11l-.07-.11-.07-.09a.36.36,0,0,0-.08-.09l-.07-.09-.08-.08-.07-.07-.07-.07-.08-.06-.07-.07-.07-.06-.08,0-.07-.06-.08-.05-.07-.05-.07-.05-.08,0-.07-.05-.07,0-.08,0-.07,0-.08,0-.07,0-.07,0-.08,0-.07,0-.07,0-.08,0-.07,0-.08,0-.07,0-.07,0-.08,0-.07,0-.07,0-.08,0h-.07l-.07,0L57,270l-.07,0h-.08l-.07,0H56v-.08h.07l.08,0h.14l.08,0h.07l.08,0,.07,0,.07,0,.08,0,.07,0,.07,0,.08,0,.07,0,.08,0,.07,0,.07,0,.08,0,.07,0,.07,0,.08,0,.07,0,.07,0,.08,0,.07-.05.08,0L58,269l.07,0,.08-.06.07-.05.07-.06.08-.07.07-.06.08-.07.07-.08.07-.08.08-.08s0-.06.07-.1l.07-.09a1,1,0,0,1,.08-.11l.07-.12.08-.13s.05-.09.07-.14.05-.11.07-.17.05-.13.08-.2.05-.17.07-.26a3.21,3.21,0,0,0,.07-.43,2.17,2.17,0,0,0,0-.36,2.3,2.3,0,0,0,0-.37,3.11,3.11,0,0,0-.07-.44c0-.09,0-.17-.07-.26s0-.14-.08-.2a.87.87,0,0,0-.07-.17l-.07-.14-.08-.13-.07-.11-.08-.11-.07-.09-.07-.09-.08-.08-.07-.08-.07-.07-.08-.07-.07-.07-.08-.06-.07,0-.07-.06-.08-.05L58,263.5l-.07-.05-.08,0-.07,0-.08,0-.07,0-.07,0-.08,0-.07,0-.07,0-.08,0-.07,0-.07,0L57,263l-.07,0-.08,0-.07,0-.07,0-.08,0-.07,0-.07,0-.08,0h-.07l-.08,0H56.2l-.07,0H43.68V254.8a8.07,8.07,0,0,1,.16-1.55c0-.11,0-.21.08-.32a2.68,2.68,0,0,1,.07-.27c0-.09,0-.16.07-.24l.08-.21c0-.07,0-.13.07-.2l.08-.18a.77.77,0,0,1,.07-.16l.07-.16.08-.15.07-.14.07-.14.08-.12.07-.13.08-.12.07-.11.07-.11.08-.11.07-.1.07-.1.08-.09.07-.09.07-.09.08-.09.07-.08.08-.08.07-.08.07-.08.08-.08.07-.07.07-.07.08-.07.07-.07.08-.06.07-.07.07-.06.08-.06.07-.06.07-.06.08-.05.07-.06.08,0,.07-.05.07-.06.08-.05.07,0,.07,0,.08-.05.07,0,.08-.05.07,0,.07,0,.08,0,.07,0,.07,0,.08,0,.07,0,.07,0,.08,0,.07,0,.08,0,.07,0,.07,0,.08,0,.07,0,.07,0,.08,0,.07,0,.08,0,.07,0,.07,0,.08,0,.07,0,.07,0,.08,0,.07,0h.08l.07,0,.07,0,.08,0h.07l.07,0h.08l.07,0H62.47Z"/></clipPath><clipPath id="clip-path-22"><path class="cls-1" d="M1.5,273.58V254.75a7.35,7.35,0,0,1,.16-1.55,3,3,0,0,1,.07-.32c0-.09.05-.18.07-.27s.05-.16.08-.24.05-.14.07-.21A1.59,1.59,0,0,0,2,252l.08-.18c0-.05,0-.11.07-.17l.08-.15a1,1,0,0,1,.07-.15c0-.05.05-.1.07-.14l.08-.14a.75.75,0,0,1,.07-.12.83.83,0,0,0,.07-.13l.08-.12.07-.11.07-.11.08-.11.07-.1.08-.1.07-.09L3.2,250l.08-.09.07-.09.07-.08.08-.09.07-.07.08-.08.07-.08.07-.07.08-.07.07-.07.07-.07.08-.06.07-.07.08-.06.07-.06.07-.06.08-.06.07-.05.07-.06.08-.05.07-.05.08-.06.07,0,.07-.05.08,0,.07-.05.07,0,.08,0,.07,0,.07,0,.08,0,.07,0,.08,0,.07,0,.07,0,.08,0,.07,0,.07,0,.08,0,.07,0,.08,0,.07,0,.07,0,.08,0,.07,0,.07,0,.08,0,.07,0,.08,0,.07,0,.07,0,.08,0,.07,0,.07,0,.08,0,.07,0,.08,0,.07,0h.07l.08,0h.14l.08,0H20.33v38.12a7.93,7.93,0,0,1-.06,1c0,.16-.05.31-.08.46a3.4,3.4,0,0,1-.07.34c0,.1-.05.19-.07.29l-.08.24a1.42,1.42,0,0,1-.07.22c0,.08,0,.13-.07.2s0,.13-.08.19-.05.11-.07.17-.05.11-.08.16a1,1,0,0,1-.07.15l-.07.15-.08.13-.07.13-.07.13-.08.12-.07.11-.07.11-.08.11-.07.1-.08.1-.07.09-.07.1-.08.09-.07.09-.07.08-.08.08-.07.08-.08.08-.07.08-.07.07-.08.07-.07.07-.07.07-.08.06-.07.07-.08.06-.07.06-.07.06-.08.06-.07.06-.07,0-.08.06-.07.05-.08.05-.07.05-.07.05-.08,0-.07,0-.07.05-.08,0-.07.05-.07,0-.08,0-.07,0-.08,0-.07,0-.07,0-.08,0-.07,0-.07,0-.08,0-.07,0-.08,0-.07,0-.07,0-.08,0-.07,0-.07,0-.08,0-.07,0-.08,0-.07,0-.07,0-.08,0-.07,0-.07,0-.08,0-.07,0h-.07l-.08,0-.07,0h-.08l-.07,0h-.22l-.07,0H1.5V276.81l.16,0,.07,0H1.8l.08,0,.07,0,.07,0H2.1l.07,0,.08,0h.07l.07,0,.08,0h.07l.07,0h.08l.07,0h.15l.07,0h.08l.07,0H3.2l.08,0h.14l.08,0h.22l.07,0H4l.08,0h8.62l.07,0h.15l.07,0h.15l.07,0h.08l.07,0h.08l.07,0,.07,0h.08l.07,0,.07,0,.08,0,.07,0,.08,0,.07,0,.07,0,.08,0,.07,0,.07,0,.08,0,.07,0,.08,0,.07,0,.07,0,.08,0,.07,0,.07,0,.08,0,.07,0,.07,0,.08,0,.07,0,.08,0,.07,0,.07,0,.08,0,.07,0,.07,0,.08,0,.07,0,.08,0,.07,0,.07,0,.08-.05.07,0,.07-.05.08-.05.07-.05.08,0,.07-.05.07-.06.08-.06.07-.06.07-.06.08-.06.07-.07.08-.06.07-.08.07-.07.08-.08.07-.08.07-.08.08-.09.07-.1.07-.1.08-.1.07-.11.08-.12.07-.12.07-.14s.05-.1.08-.15a1.26,1.26,0,0,0,.07-.16.87.87,0,0,0,.07-.17,1.19,1.19,0,0,0,.08-.2c0-.07.05-.15.07-.23s0-.18.08-.27.05-.23.07-.35a4.63,4.63,0,0,0,.07-.52,6.62,6.62,0,0,0,0-.77v-8.85H12.23l-.05,8.85c0,.14,0,.28,0,.41a4.29,4.29,0,0,1-.07.5,2.45,2.45,0,0,1-.08.29,2,2,0,0,1-.07.23l-.07.18-.08.16c0,.06,0,.1-.07.15a.75.75,0,0,0-.07.12l-.08.12-.07.11-.08.09a.36.36,0,0,1-.07.1l-.07.08-.08.08-.07.08-.07.07-.08.06-.07.06-.08.06-.07.06-.07,0-.08.05-.07.05-.07,0-.08,0-.07,0-.08,0-.07,0-.07,0-.08,0-.07,0-.07,0-.08,0-.07,0-.08,0-.07,0-.07,0-.08,0H9.36l-.07,0-.08,0H9.14l-.07,0H6.28l-.08,0H5.77l-.07,0H5.62l-.07,0H5.48l-.08,0-.07,0H5.25l-.07,0-.07,0-.08,0H5l-.07,0-.08,0-.07,0-.07,0-.08,0-.07,0-.08,0-.07,0-.07,0-.08,0-.07,0-.07,0-.08,0-.07,0-.08,0-.07,0-.07,0-.08,0-.07,0-.07,0-.08,0-.07,0-.08,0-.07,0-.07,0-.08,0-.07,0-.07,0-.08,0-.07,0-.08,0-.07,0-.07,0-.08,0-.07,0-.07,0-.08,0-.07,0-.07,0-.08,0-.07,0-.08,0-.07,0-.07,0-.08,0Z"/></clipPath><clipPath id="clip-path-23"><path class="cls-1" d="M22.75,264.6l-.15.13v-10a8,8,0,0,1,.15-1.54c0-.11.05-.22.08-.32s.05-.19.07-.27.05-.16.08-.24a1.87,1.87,0,0,1,.07-.22c0-.07.05-.12.07-.19l.08-.18c0-.06.05-.11.07-.17a1.11,1.11,0,0,0,.07-.16l.08-.14.07-.15.08-.12a.54.54,0,0,1,.07-.13l.07-.13.08-.12.07-.11.07-.11.08-.11.07-.1.07-.09.08-.1.07-.09.08-.09.07-.09.07-.08a.6.6,0,0,1,.08-.08l.07-.08.07-.08.08-.07.07-.08.08-.07.07-.07.07-.06.08-.07.07-.07.07-.06.08-.06.07-.06.08-.06.07-.05.07-.06.08-.05.07-.05.07,0,.08-.05.07,0,.08-.05.07-.05.07,0,.08,0,.07-.05.07,0,.08,0,.07,0,.07,0,.08,0,.07,0,.08,0,.07,0,.07,0,.08,0,.07,0,.07,0,.08,0,.07,0,.08,0,.07,0,.07,0,.08,0,.07,0,.07,0,.08,0,.07,0,.08,0,.07,0,.07,0,.08,0,.07,0,.07,0h.08l.07,0h.08l.07,0h.07l.08,0H41.43v38.13a7.89,7.89,0,0,1-.06,1c0,.16,0,.31-.08.46a3.4,3.4,0,0,1-.07.34l-.07.29-.08.24c0,.08,0,.15-.07.22l-.08.2a.84.84,0,0,1-.07.19c0,.05-.05.11-.07.17s-.05.11-.08.16l-.07.15-.07.15-.08.13-.07.13-.07.13-.08.12-.07.11-.08.11-.07.11-.07.1-.08.1-.07.09-.07.1-.08.09-.07.08-.08.09-.07.08-.07.08-.08.08-.07.07-.07.08-.08.07-.07.07-.08.07-.07.06-.07.07-.08.06-.07.06-.07.06-.08.06-.07.06-.08,0-.07.06-.07.05-.08.05-.07.05-.07.05-.08,0-.07,0-.07.05-.08,0-.07.05-.08,0-.07,0-.07,0-.08,0-.07,0-.07,0-.08,0-.07,0-.08,0-.07,0-.07,0-.08,0-.07,0-.07,0-.08,0-.07,0-.08,0-.07,0-.07,0-.08,0-.07,0-.07,0-.08,0-.07,0-.07,0-.08,0-.07,0h-.08l-.07,0-.07,0h-.08l-.07,0H35.1l-.07,0H22.6V275.27l.15.13.08.06.07.06.07.05.08.06.07.05.08.05.07,0,.07.05.08.05.07.05.07,0,.08,0,.07,0,.08,0,.07,0,.07,0,.08,0,.07,0,.07,0,.08,0,.07,0,.07,0,.08,0,.07,0,.08,0,.07,0,.07,0,.08,0,.07,0,.07,0,.08,0,.07,0,.08,0,.07,0,.07,0,.08,0,.07,0,.07,0,.08,0,.07,0,.08,0,.07,0,.07,0,.08,0,.07,0,.07,0,.08,0,.07,0,.08,0,.07,0h.07l.08,0,.07,0,.07,0,.08,0,.07,0H27l.08,0,.07,0h.08l.07,0h.07l.08,0h.07l.07,0h.15l.08,0h.29l.07,0h8.11l.07,0h.3l.07,0h.22l.07,0h.15l.08,0h.14l.08,0h.14l.08,0h.07l.08,0h.07l.07,0h.15l.07,0h.08l.07,0h.08l.07,0,.07,0h.08l.07,0,.07,0h.08l.07,0,.07,0H39l.07,0,.08,0,.07,0h.07v-3.23l-.07,0-.07,0-.08,0-.07,0-.08,0-.07,0-.07,0-.08,0-.07,0-.07,0-.08,0-.07,0-.07,0-.08,0-.07,0-.08,0-.07,0-.07,0-.08,0-.07,0-.07,0-.08,0-.07,0-.08,0-.07,0-.07,0-.08,0-.07,0-.07,0-.08,0-.07,0-.08,0-.07,0-.07,0-.08,0-.07,0-.07,0-.08,0-.07,0-.08,0-.07,0-.07,0-.08,0-.07,0-.07,0-.08,0-.07,0H35.8l-.08,0-.07,0h-.08l-.07,0-.07,0h-.08l-.07,0h-.07l-.08,0h-.07l-.08,0h-.22l-.07,0H31.38l-.07,0h-.15l-.07,0H31l-.07,0-.08,0h-.07l-.07,0-.08,0-.07,0-.07,0-.08,0-.07,0-.08,0-.07,0-.07,0-.08,0-.07,0-.07,0-.08,0-.07,0-.08,0-.07,0-.07,0-.08,0-.07,0-.07,0-.08-.05-.07,0-.07-.05-.08,0-.07-.06-.08,0-.07-.05-.07-.06-.08-.06-.07-.06-.07-.06-.08-.07-.07-.07-.08-.07-.07-.08-.07-.08-.08-.09-.07-.09-.07-.09-.08-.11-.07-.1-.08-.12-.07-.12s-.05-.09-.07-.13-.05-.1-.08-.14l-.07-.16-.07-.18a1.82,1.82,0,0,1-.08-.19c0-.07-.05-.15-.07-.23s-.05-.18-.08-.27-.05-.23-.07-.35-.05-.35-.07-.54,0-.43,0-.66,0-.44,0-.66,0-.36.07-.54,0-.23.07-.34,0-.18.08-.27.05-.15.07-.23l.08-.2a.87.87,0,0,1,.07-.17,1.11,1.11,0,0,0,.07-.16l.08-.14s.05-.09.07-.13l.07-.12.08-.12a.86.86,0,0,1,.07-.1l.08-.11.07-.09.07-.09.08-.09.07-.08.07-.07.08-.08.07-.07.08-.06.07-.07.07-.06.08-.06.07-.06.07-.05.08,0,.07-.05.08-.05.07-.05.07,0,.08,0,.07,0,.07,0,.08,0,.07,0,.07,0,.08,0,.07,0,.08,0,.07,0,.07,0,.08,0,.07,0,.07,0,.08,0,.07,0,.08,0,.07,0,.07,0h.08l.07,0,.07,0,.08,0H31l.08,0h.07l.07,0h3.53l.08,0H35l.08,0h.15l.07,0h.07l.08,0h.07l.07,0,.08,0,.07,0h.08l.07,0,.07,0,.08,0,.07,0,.07,0,.08,0,.07,0,.07,0,.08,0,.07,0,.08,0,.07,0,.07,0,.08,0,.07,0,.07,0,.08,0,.07,0,.08,0,.07,0,.07,0,.08,0,.07,0,.07,0,.08,0,.07,0,.08,0,.07,0,.07,0,.08,0,.07,0,.07,0,.08,0,.07,0,.08,0,.07,0,.07,0,.08,0,.07,0,.07,0,.08,0,.07,0,.07,0,.08,0,.07,0,.08,0,.07,0,.07,0v-3.22l-.07,0-.07,0-.08,0H39l-.08,0-.07,0h-.07l-.08,0-.07,0H38.6l-.08,0-.07,0h-.07l-.08,0h-.07l-.08,0h-.07l-.07,0h-.08l-.07,0h-.07l-.08,0h-.15l-.07,0h-.07l-.08,0H37.2l-.08,0H37l-.07,0h-.22l-.07,0h-.37l-.08,0H28l-.08,0h-.22l-.07,0h-.08l-.07,0h-.15l-.07,0h-.08l-.07,0-.07,0H27l-.07,0-.07,0h-.08l-.07,0-.08,0-.07,0-.07,0-.08,0-.07,0-.07,0-.08,0-.07,0L26,263l-.08,0-.07,0-.08,0-.07,0-.07,0-.08,0-.07,0-.07,0-.08,0-.07,0-.08,0-.07,0-.07,0-.08,0-.07,0-.07,0-.08,0-.07,0-.08,0-.07,0-.07,0-.08,0-.07,0-.07,0-.08,0-.07,0-.07,0-.08,0-.07,0-.08,0-.07,0-.07,0-.08,0-.07,0-.07.05-.08.05-.07,0-.08.05-.07.05-.07.05-.08.06-.07.05-.07.06-.08.06Z"/></clipPath><clipPath id="clip-path-24"><rect class="cls-1" y="660.73" width="64" height="34.54"/></clipPath><clipPath id="clip-path-25"><path class="cls-1" d="M12.14,677.87a.29.29,0,0,0-.31-.3H10.78a.36.36,0,0,0-.38.32v1.74c0,.23.15.35.43.36h1a.36.36,0,0,0,.25-.1.21.21,0,0,0,.1-.2v-1.82Zm-3.09-.24a1.37,1.37,0,0,1,.31-1,1.27,1.27,0,0,1,.41-.23,1.16,1.16,0,0,1,.49-.1h1.93a1.13,1.13,0,0,1,1.3,1.24v2.54a1,1,0,0,1-.38.76,1.28,1.28,0,0,1-.88.35H10.4v1.83H9.05v-5.43Z"/></clipPath><clipPath id="clip-path-26"><path class="cls-1" d="M15.93,679.74a.18.18,0,0,0,.11.17.44.44,0,0,0,.25.08h1c.24,0,.36-.08.37-.25v-.34c0-.19-.13-.29-.38-.29h-1a.71.71,0,0,0-.28.06.42.42,0,0,0-.07.27v.3Zm1.76-1.9c0-.18-.12-.27-.37-.26H14.6v-1.24h3.07c.89,0,1.34.4,1.36,1.15v2.6a1.18,1.18,0,0,1-.34.81,1.22,1.22,0,0,1-.88.33H16c-.9,0-1.36-.37-1.37-1.1v-1a1.08,1.08,0,0,1,1-1.16h2.08v-.12Z"/></clipPath><clipPath id="clip-path-27"><path class="cls-1" d="M22.83,681.82a.45.45,0,0,0,.27-.1.24.24,0,0,0,.11-.2v-.29H21.48a1.61,1.61,0,0,1-.54-.08,1.34,1.34,0,0,1-.43-.26,1.46,1.46,0,0,1-.29-.41,1.18,1.18,0,0,1-.09-.49v-3.66h1.35v3.26c0,.26.12.4.36.4h1a.44.44,0,0,0,.29-.11.22.22,0,0,0,.12-.2v-3.35h1.34v5.39a1.38,1.38,0,0,1-.35,1,1.19,1.19,0,0,1-.92.37H20.13v-1.23h2.7"/></clipPath><clipPath id="clip-path-28"><path class="cls-1" d="M25.61,680H28c.22,0,.34-.09.34-.24v-.11a.2.2,0,0,0,0-.11.23.23,0,0,0-.2-.14H26.94a1.38,1.38,0,0,1-.91-.32.91.91,0,0,1-.4-.72v-.92c0-.72.45-1.08,1.32-1.1h2.79v1.24H27.37c-.27,0-.41.08-.41.23v.12c0,.15.14.23.43.23h1.19a1.2,1.2,0,0,1,.81.33,1,1,0,0,1,.35.76v.9a1.11,1.11,0,0,1-.39.76,1,1,0,0,1-.38.26,1.88,1.88,0,0,1-.53.07H25.61V680"/></clipPath><clipPath id="clip-path-29"><path class="cls-1" d="M32.06,679.74a.18.18,0,0,0,.11.17.38.38,0,0,0,.24.08h1c.23,0,.36-.08.36-.25v-.34c0-.19-.12-.29-.37-.29h-1a.64.64,0,0,0-.28.06.33.33,0,0,0-.07.27v.3Zm1.75-1.9c0-.18-.11-.27-.36-.26H30.72v-1.24h3.07c.89,0,1.35.4,1.36,1.15v2.6a1.18,1.18,0,0,1-.34.81,1.21,1.21,0,0,1-.88.33H32.08c-.91,0-1.36-.37-1.38-1.1v-1a1.08,1.08,0,0,1,1-1.16h2.08v-.12Z"/></clipPath><clipPath id="clip-path-30"><path class="cls-1" d="M36.25,675.63a1,1,0,0,1,.42-.8,1.69,1.69,0,0,1,1-.31h.86v1.19H38c-.29,0-.43.13-.44.36v.26h1v1.25h-1v3.65H36.25v-5.59"/></clipPath><clipPath id="clip-path-31"><path class="cls-1" d="M42.4,677.82v0a.18.18,0,0,0-.08-.16.46.46,0,0,0-.23-.06h-1a.5.5,0,0,0-.29.09.27.27,0,0,0-.14.23v.5l1.7-.57Zm-1.67,1.75v.07a.36.36,0,0,0,.09.24A.2.2,0,0,0,41,680h2.78v1.24h-3a2.7,2.7,0,0,1-.63-.07,1.27,1.27,0,0,1-.43-.23.93.93,0,0,1-.3-.41,1.55,1.55,0,0,1-.09-.57v-2.47a1.09,1.09,0,0,1,1-1.15.82.82,0,0,1,.27,0H42.5a1.12,1.12,0,0,1,1.28.93,1,1,0,0,1,0,.25v1l-3.05,1.07Z"/></clipPath><clipPath id="clip-path-32"><path class="cls-1" d="M46.64,681.23a3.53,3.53,0,0,1-.56-.05,1.2,1.2,0,0,1-.53-.22,1.15,1.15,0,0,1-.39-.49,1.71,1.71,0,0,1-.11-.59v-2.31a1.21,1.21,0,0,1,.07-.5.92.92,0,0,1,.28-.42,1.36,1.36,0,0,1,.51-.29,2.86,2.86,0,0,1,.58-.06h2.07v.29h-2a1.67,1.67,0,0,0-.85.2.8.8,0,0,0-.31.74v2.31a1.26,1.26,0,0,0,.08.47.89.89,0,0,0,.72.58,2.61,2.61,0,0,0,.48.05h1.93v.29h-2"/></clipPath><clipPath id="clip-path-33"><path class="cls-1" d="M53.89,678.23H51.17a1.09,1.09,0,0,0-.76.27.9.9,0,0,0-.29.72V680a1.74,1.74,0,0,0,.05.39.6.6,0,0,0,.26.33,1.3,1.3,0,0,0,.77.26h1.65a.92.92,0,0,0,1-.75.81.81,0,0,0,0-.22v-1.74Zm.32,1.66a2.81,2.81,0,0,1,0,.5,1.11,1.11,0,0,1-.27.45,1.47,1.47,0,0,1-1,.39H51.23a1.55,1.55,0,0,1-1-.34,1.12,1.12,0,0,1-.41-.92v-.74a1.2,1.2,0,0,1,1.13-1.29,1.31,1.31,0,0,1,.28,0H53.9v-.33a1,1,0,0,0-.26-.7.79.79,0,0,0-.39-.27,2.73,2.73,0,0,0-.5,0H49.81v-.29h2.78a5.34,5.34,0,0,1,.69.05,1,1,0,0,1,.3.11,1.13,1.13,0,0,1,.27.22,1.48,1.48,0,0,1,.36,1v2.22Z"/></clipPath><clipPath id="clip-path-34"><path class="cls-1" d="M57.25,676.59c-.75,0-1.12.38-1.11,1.1v3.54h-.33v-3.54a1.21,1.21,0,0,1,1.08-1.38,1.89,1.89,0,0,1,.41,0h.36v.29h-.41"/></clipPath><clipPath id="clip-path-35"><path class="cls-1" d="M62.72,676.59H60.16a2.07,2.07,0,0,0-.5.06.91.91,0,0,0-.45.25.86.86,0,0,0-.26.37,1.17,1.17,0,0,0-.06.45V680a.78.78,0,0,0,.37.76,1.56,1.56,0,0,0,.41.15,2.73,2.73,0,0,0,.5.05h1.12a1.89,1.89,0,0,0,1-.26.94.94,0,0,0,.41-.84V676.6Zm.32,3.27c0,.93-.58,1.39-1.66,1.37h-1.2a3.82,3.82,0,0,1-.68-.06,1.36,1.36,0,0,1-.6-.33,1.15,1.15,0,0,1-.27-.48,1.66,1.66,0,0,1-.06-.54v-2.1a1.3,1.3,0,0,1,1.22-1.42h2.93v-1.59H63v5.15Z"/></clipPath><clipPath id="clip-path-36"><path class="cls-1" d="M1.54,676.15l.31-.1a2,2,0,0,1,2-1.45,2,2,0,0,1,2,1.45,1.75,1.75,0,0,1,.75.33,3.54,3.54,0,0,0,0-.46,2.67,2.67,0,0,0-2.75-2.24A2.64,2.64,0,0,0,1.1,676c0,.11,0,.23,0,.35a1.7,1.7,0,0,1,.44-.24"/></clipPath><clipPath id="clip-path-37"><path class="cls-1" d="M2.17,676.34a1.16,1.16,0,0,0-.49.1,1.27,1.27,0,0,0-.41.23,1.37,1.37,0,0,0-.31,1v2.3a1.37,1.37,0,0,0,.31,1,1.52,1.52,0,0,0,.41.24,1.58,1.58,0,0,0,.49.1h3.3A1.14,1.14,0,0,0,6.77,680v-2.4a1.13,1.13,0,0,0-1.3-1.24Z"/></clipPath><clipPath id="clip-path-38"><path class="cls-1" d="M54.38,827.24a.72.72,0,0,1-.72-.72v-3.17H53.4c-1.64,0-2.25.27-2.25,1.76v9.25a2.71,2.71,0,0,1-.35,1.45c-.45.69-1.34,1-2.75,1s-2.3-.31-2.74-1a2.62,2.62,0,0,1-.36-1.44v-9.25c0-1.5-.61-1.77-2.25-1.77h-.51c-1.65,0-2.26.27-2.26,1.77v9.25a6.91,6.91,0,0,0,1,3.76c1.25,2,3.68,3,7.12,3h0c3.45,0,5.87-1,7.13-3a6.9,6.9,0,0,0,1-3.76v-7.13H54.39"/></clipPath><clipPath id="clip-path-39"><path class="cls-1" d="M62,822.13h-2.7a.53.53,0,0,1-.53-.53v-2.73a.53.53,0,0,1,.53-.54H62a.54.54,0,0,1,.53.54v2.73a.53.53,0,0,1-.53.53"/></clipPath><clipPath id="clip-path-40"><path class="cls-1" d="M58.37,818.33H56.54a.36.36,0,0,1-.36-.36v-1.86a.36.36,0,0,1,.36-.36h1.83a.36.36,0,0,1,.36.36V818a.36.36,0,0,1-.36.36"/></clipPath><clipPath id="clip-path-41"><path class="cls-1" d="M12,829c0,2.19-.56,3.38-3.51,3.38H3.9V826.7c0-.79.3-1.08,1.08-1.08H8.46c2.22,0,3.51.55,3.51,3.35Zm-3.51-5.63H4.53c-2.1,0-3,.93-3,3v13.47c0,.81.26,1.07,1.07,1.07h.27c.81,0,1.07-.26,1.07-1.07v-5.24H8.46c4,0,5.92-1.79,5.92-5.63s-1.88-5.63-5.92-5.63Z"/></clipPath><clipPath id="clip-path-42"><path class="cls-1" d="M22.84,834.87v1.84c0,1.51-.55,2.38-3.41,2.38-1.88,0-2.8-.68-2.8-2.09s.92-2.13,3.28-2.13Zm-3.41-7.66a14.17,14.17,0,0,0-2.9.27c-.65.14-.92.32-.92,1.07v.21a1.14,1.14,0,0,0,.13.63.57.57,0,0,0,.52.25,1.45,1.45,0,0,0,.41-.06,14.54,14.54,0,0,1,2.87-.28c2.35,0,3.31.65,3.31,2.24V833h-3c-3.81,0-5.58,1.28-5.58,4s1.83,4.14,5.15,4.14c3.95,0,5.71-1.34,5.71-4.36v-5.25c0-2.91-1.87-4.33-5.74-4.33Z"/></clipPath><clipPath id="clip-path-43"><path class="cls-1" d="M38.19,827.84a1,1,0,0,0-.8-.24h-.24a1.07,1.07,0,0,0-1.26.87.59.59,0,0,0,0,.13l-2.2,9.15c-.28,1.13-.66,1.33-1.32,1.33-.82,0-1.14-.19-1.46-1.33L28.4,828.6a1.11,1.11,0,0,0-1.22-1h-.3a.94.94,0,0,0-.8.24,1,1,0,0,0,0,.85l2.52,9.22c.47,1.77,1,3.23,3.13,3.23a3.21,3.21,0,0,0,1.06-.16c-.64,2-1.29,2.89-3.2,3.08-.39,0-.64.09-.78.28a.91.91,0,0,0-.06.72l.06.24c.11.55.3.89.92.89h.21c2.84-.19,4.37-1.72,5.27-5.3l3.05-12.2a1,1,0,0,0-.05-.84"/></clipPath><clipPath id="clip-path-44"><path class="cls-1" d="M58,821.7H54.38a.71.71,0,0,0-.71.72v.51h.25c1.64,0,2.25.27,2.25,1.76v2.13H58a.71.71,0,0,0,.71-.72v-3.68a.71.71,0,0,0-.71-.72"/></clipPath><clipPath id="clip-path-45"><path class="cls-1" d="M289.42-142.62h-15c-2.07.07-4.63,1.73-5.1,3.79l-7.1,31.66a2.93,2.93,0,0,0,1.92,3.67,3.26,3.26,0,0,0,.93.13H280.8a5.05,5.05,0,0,0,4.44-3.78l7.1-31.67a2.93,2.93,0,0,0-1.93-3.67,3,3,0,0,0-1-.13"/></clipPath><clipPath id="clip-path-46"><path class="cls-1" d="M262.17-107.17l7.1-31.66c.47-2.06,3-3.73,5.1-3.79H257.65c-2.07,0-4.67,1.72-5.14,3.79l-7.1,31.67a2.92,2.92,0,0,0,1.93,3.66,2.63,2.63,0,0,0,.92.13H265a2.92,2.92,0,0,1-3-2.87,3.2,3.2,0,0,1,.13-.92"/></clipPath><clipPath id="clip-path-47"><path class="cls-1" d="M245.41-107.17l7.1-31.66c.47-2.07,3.07-3.75,5.14-3.8H243.87c-2.08,0-4.74,1.7-5.22,3.8l-7.1,31.67a3.43,3.43,0,0,0-.08.56v.59a2.84,2.84,0,0,0,2.93,2.64h13.86a2.93,2.93,0,0,1-3-2.87,2.88,2.88,0,0,1,.13-.92"/></clipPath><clipPath id="clip-path-48"><path class="cls-1" d="M257.94-119.55h.26a.5.5,0,0,0,.48-.24l.67-1h1.82l-.38.68H263l-.28,1H260.1a1.23,1.23,0,0,1-1.1.64h-1.35l.29-1.08Zm-.3,1.47h4.77L262.1-117h-1.91l-.3,1.08h1.87l-.31,1.12h-1.86l-.44,1.6c-.11.26,0,.38.42.36h1.52l-.28,1H257.9q-.84,0-.57-1l.55-2h-1.19l.3-1.12h1.19l.3-1.08h-1.14l.3-1.12Zm7.61-2.74-.08.65a3.49,3.49,0,0,1,1.72-.68h3l-1.16,4.21q-.13.72-1.23.72H264.1l-.8,3c-.05.16,0,.24.19.24h.68l-.25.92h-1.71c-.66,0-.93-.2-.82-.6l2.26-8.42Zm2.55,1.19h-2.69l-.33,1.13a2.32,2.32,0,0,1,1.2-.34h1.6l.22-.79Zm-1,2.63q.3,0,.33-.24l.16-.6h-2.7l-.22.84ZM265-115.64h1.55l0,.68H267c.21,0,.31-.07.31-.2l.12-.44h1.3l-.18.64a1.11,1.11,0,0,1-1.16.84h-.82V-113c0,.19.15.28.49.28h.78l-.25.92h-1.87a.65.65,0,0,1-.77-.76l.11-3.12Z"/></clipPath><clipPath id="clip-path-49"><path class="cls-1" d="M246.17-126.43a3.89,3.89,0,0,1-1.46,2.41,4.76,4.76,0,0,1-2.91.83,3.13,3.13,0,0,1-2.45-.86,2.19,2.19,0,0,1-.55-1.55,3.84,3.84,0,0,1,.09-.83l1.27-6.15h1.9l-1.24,6.08a1.8,1.8,0,0,0,0,.46,1.17,1.17,0,0,0,.23.77,1.3,1.3,0,0,0,1.1.44,2.28,2.28,0,0,0,1.45-.44,2,2,0,0,0,.73-1.23l1.25-6.08h1.9l-1.27,6.15"/></clipPath><clipPath id="clip-path-50"><path class="cls-1" d="M254.19-128.85h1.49l-1.17,5.48H253l1.17-5.48m.47-2h1.51l-.28,1.33h-1.51l.28-1.33"/></clipPath><clipPath id="clip-path-51"><path class="cls-1" d="M257-123.78a2,2,0,0,1-.59-1.53,2.3,2.3,0,0,1,0-.37,2.4,2.4,0,0,1,.06-.4,3.71,3.71,0,0,1,1.13-2.12,3.09,3.09,0,0,1,2.1-.79,2.24,2.24,0,0,1,1.6.57,2.06,2.06,0,0,1,.58,1.55c0,.12,0,.25,0,.38l-.06.41A3.63,3.63,0,0,1,260.7-124a3.12,3.12,0,0,1-2.1.77,2.21,2.21,0,0,1-1.59-.56m2.85-1.09a2.65,2.65,0,0,0,.56-1.31,2.74,2.74,0,0,0,.05-.28c0-.09,0-.17,0-.26a1.1,1.1,0,0,0-.26-.78.94.94,0,0,0-.73-.29,1.31,1.31,0,0,0-1,.44,2.85,2.85,0,0,0-.58,1.33,2.51,2.51,0,0,1,0,.27,2.26,2.26,0,0,0,0,.26,1,1,0,0,0,.26.77.91.91,0,0,0,.73.28,1.3,1.3,0,0,0,1-.44"/></clipPath><clipPath id="clip-path-52"><path class="cls-1" d="M271.62-119.51l.36-1.27h1.82l-.08.46a4.46,4.46,0,0,1,1.6-.46h2.26l-.36,1.27h-.35l-1.7,6h.35l-.33,1.2h-.36l-.15.52h-1.76l.15-.52h-3.49l.34-1.2h.35l1.7-6Zm2,0-.46,1.64a7.41,7.41,0,0,1,1.47-.39c.15-.57.35-1.24.35-1.24Zm-.68,2.4-.46,1.71a5,5,0,0,1,1.48-.47c.17-.66.35-1.24.35-1.24Zm.34,3.64.35-1.24h-1.36l-.35,1.24Zm4.41-7.39h1.72l.07.63c0,.17.08.24.29.24h.3l-.31,1.09h-1.26c-.48,0-.73-.16-.75-.57l-.06-1.39Zm-.5,2.31h5.55l-.33,1.16H280.6l-.3,1.08h1.77l-.33,1.16h-2l-.45.68h1l.22,1.36c0,.13.15.2.35.2h.3l-.31,1.12h-1.06c-.55,0-.83-.16-.86-.56l-.25-1.24-.87,1.32a1,1,0,0,1-1,.52h-1.62l.32-1.12h.5a.66.66,0,0,0,.53-.28l1.38-2h-1.77l.32-1.16h1.92l.31-1.07h-1.92l.33-1.16Z"/></clipPath><clipPath id="clip-path-53"><path class="cls-1" d="M247.93-128.85h1.35l-.15.79.19-.22a2.1,2.1,0,0,1,1.6-.71,1.46,1.46,0,0,1,1.23.5,1.66,1.66,0,0,1,.2,1.39l-.74,3.74h-1.39l.68-3.39a1.17,1.17,0,0,0-.06-.78.66.66,0,0,0-.6-.25,1.3,1.3,0,0,0-.9.33,1.61,1.61,0,0,0-.48.94l-.62,3.15h-1.4l1.09-5.49"/></clipPath><clipPath id="clip-path-54"><path class="cls-1" d="M263.39-128.85h1.35l-.15.79.19-.22a2.1,2.1,0,0,1,1.6-.71,1.46,1.46,0,0,1,1.23.5,1.66,1.66,0,0,1,.2,1.39l-.74,3.74h-1.39l.67-3.39a1.11,1.11,0,0,0-.05-.78.66.66,0,0,0-.6-.25,1.3,1.3,0,0,0-.9.33,1.68,1.68,0,0,0-.49.94l-.62,3.15h-1.38l1.09-5.49"/></clipPath><clipPath id="clip-path-55"><path class="cls-1" d="M270.06-132.25H274a2.65,2.65,0,0,1,1.74.51,1.84,1.84,0,0,1,.6,1.47v0c0,.12,0,.26,0,.41s-.05.29-.08.45a3.5,3.5,0,0,1-1.19,2,3.35,3.35,0,0,1-2.21.77h-2.1l-.66,3.22h-1.81l1.81-8.89m1,4.13h1.75a1.7,1.7,0,0,0,1.08-.32,1.63,1.63,0,0,0,.52-1c0-.08,0-.16,0-.22a1.21,1.21,0,0,0,0-.19.72.72,0,0,0-.33-.68,1.92,1.92,0,0,0-1.05-.22h-1.48l-.54,2.6"/></clipPath><clipPath id="clip-path-56"><path class="cls-1" d="M284.46-122.3A8.87,8.87,0,0,1,283-120a2.94,2.94,0,0,1-2.5,1l.14-.94c1.29-.4,2-2.22,2.39-3l-.48-5.9,1,0h.84l.09,3.71,1.58-3.71h1.59l-3.2,6.55"/></clipPath><clipPath id="clip-path-57"><path class="cls-1" d="M280-128.4l-.63.43a2,2,0,0,0-2.43-.3c-1.59.74-2.91,6.44,1.46,4.56l.25.3,1.72,0,1.12-5.17-1.49.13m-1,2.83c-.27.82-.89,1.36-1.37,1.21s-.66-.94-.38-1.77.9-1.36,1.38-1.21.65.95.37,1.77"/></clipPath><clipPath id="clip-path-58"><path class="cls-1" d="M284.32,171.5a7.56,7.56,0,0,1,3.34.76l.48.25-.71.63-1.05-1.09-1.78,1.58-1.06-1.15-3.32,3,2.13,2.33-.84.73,2.1,2.33-.83.72,3,3.31,1.77-1.62,1.54,1.74a9.6,9.6,0,0,1-1,.66,7.59,7.59,0,1,1-3.76-14.15"/></clipPath><clipPath id="clip-path-59"><polyline class="cls-1" points="282.93 178.59 284.74 176.97 286.37 178.77 284.56 180.39 282.93 178.59"/></clipPath><clipPath id="clip-path-60"><polyline class="cls-1" points="284.22 181.7 286.03 180.08 287.66 181.88 285.85 183.5 284.22 181.7"/></clipPath><clipPath id="clip-path-61"><polyline class="cls-1" points="281.63 175.51 283.44 173.89 285.08 175.69 283.26 177.31 281.63 175.51"/></clipPath><clipPath id="clip-path-62"><polyline class="cls-1" points="284.96 174.64 286.32 173.42 287.54 174.77 286.18 175.99 284.96 174.64"/></clipPath><clipPath id="clip-path-63"><polyline class="cls-1" points="287.38 180.21 288.74 178.99 289.96 180.34 288.6 181.56 287.37 180.21"/></clipPath><clipPath id="clip-path-64"><polyline class="cls-1" points="288.57 182.94 289.93 181.72 291.16 183.06 289.8 184.28 288.58 182.94"/></clipPath><clipPath id="clip-path-65"><polyline class="cls-1" points="289.12 176.69 290.03 175.88 290.84 176.78 289.94 177.59 289.12 176.69"/></clipPath><clipPath id="clip-path-66"><polyline class="cls-1" points="287.96 174.01 288.87 173.2 289.68 174.1 288.78 174.91 287.96 174.01"/></clipPath><clipPath id="clip-path-67"><polyline class="cls-1" points="290.28 179.36 291.19 178.55 292 179.45 291.1 180.26 290.28 179.36"/></clipPath><clipPath id="clip-path-68"><polyline class="cls-1" points="286.21 177.36 287.57 176.14 288.79 177.49 287.43 178.71 286.21 177.36"/></clipPath><clipPath id="clip-path-69"><polyline class="cls-1" points="234.56 177.76 234.5 177.76 233.35 182.07 232.41 182.07 231 175.94 231.97 175.94 232.95 180.51 233.01 180.51 234.14 175.94 234.91 175.94 236.12 180.51 236.18 180.51 237.07 175.94 238.09 175.94 236.68 182.07 235.74 182.07 234.56 177.76"/></clipPath><clipPath id="clip-path-70"><path class="cls-1" d="M242,181.12v.66a3.18,3.18,0,0,1-1.54.4c-1.47,0-2.07-.9-2.07-2.27s.67-2.26,2-2.26c1.09,0,1.76.7,1.76,2.11v.32h-2.84c0,1,.43,1.49,1.33,1.49a2.63,2.63,0,0,0,1.38-.45Zm-2.69-1.62h2c0-.91-.49-1.27-1-1.27s-.94.4-1,1.27Z"/></clipPath><clipPath id="clip-path-71"><path class="cls-1" d="M243.77,178a2.61,2.61,0,0,1,1.18-.32c1.08,0,1.66.74,1.66,2.12,0,1.62-.78,2.4-2,2.4a4,4,0,0,1-1.7-.42v-6l.9-.21Zm0,3.46a2,2,0,0,0,.8.14c.64,0,1.13-.4,1.13-1.8,0-1.09-.4-1.45-1-1.45a1.92,1.92,0,0,0-1,.29v2.82Z"/></clipPath><clipPath id="clip-path-72"><polyline class="cls-1" points="250.57 180.77 250.61 180.77 252.47 175.94 253.55 175.94 253.55 182.07 252.61 182.07 252.61 177.63 252.53 177.63 250.76 182.07 250.2 182.07 248.43 177.73 248.35 177.73 248.35 182.07 247.56 182.07 247.56 175.94 248.62 175.94 250.57 180.77"/></clipPath><clipPath id="clip-path-73"><path class="cls-1" d="M254.51,179.91c0-1.51.84-2.26,2-2.26s2,.75,2,2.26-.79,2.26-2,2.26S254.51,181.39,254.51,179.91Zm3.06,0c0-1.16-.48-1.66-1.07-1.66s-1.08.49-1.08,1.66.46,1.66,1.08,1.66S257.57,181.09,257.57,179.91Z"/></clipPath><clipPath id="clip-path-74"><path class="cls-1" d="M259.31,178.29a4.34,4.34,0,0,1,2.22-.64c1,0,1.43.4,1.43,1.29v3.13h-.9v-2.93c0-.68-.34-.8-.79-.8a2.5,2.5,0,0,0-1.06.31v3.42h-.9v-3.78"/></clipPath><clipPath id="clip-path-75"><path class="cls-1" d="M267.37,181.12v.66a3.18,3.18,0,0,1-1.54.4c-1.46,0-2.06-.9-2.06-2.27s.67-2.26,2-2.26c1.09,0,1.76.7,1.76,2.11v.32h-2.84c0,1,.43,1.49,1.32,1.49a2.6,2.6,0,0,0,1.38-.45Zm-2.69-1.62h2c-.05-.91-.49-1.27-1-1.27s-.94.4-1,1.27Z"/></clipPath><clipPath id="clip-path-76"><path class="cls-1" d="M270.89,177.8h.93l-1.57,4.31c-.44,1.19-1,1.82-2,1.82v-.71c.59,0,1-.47,1.16-1.11l-1.67-4.31h1l1.11,3.17h.05l1-3.17"/></clipPath></defs><g id="g20"><path id="path22" class="cls-73" d="M31.75,50H52.21c4.67,0,4.71-5,4.24-7.41-.26-1.65-3.06-1.63-3.37,0v1.91a1.6,1.6,0,0,1-1.59,1.59H12.27a1.61,1.61,0,0,1-1.59-1.59V42.62c-.31-1.63-3.1-1.65-3.36,0C6.84,45.06,6.89,50,11.56,50ZM17.29,2.47H48.83a4.16,4.16,0,0,1,4,4.27v2A2,2,0,1,1,49,8.8V7.69a1.3,1.3,0,0,0-1.3-1.3H16.06a1.3,1.3,0,0,0-1.3,1.3V8.78c0,2.86-3.71,2.84-3.71.06V6.74a4.18,4.18,0,0,1,4-4.27Z"/></g><g id="g24"><path id="path26" class="cls-74" d="M52.06,25.9a6.27,6.27,0,0,1,3.7,5.59,6.48,6.48,0,0,1-6.66,6.24H38.82a1.69,1.69,0,0,1-1.74-1.62V16.55a1.71,1.71,0,0,1,1.71-1.71h8.56A6.53,6.53,0,0,1,52.06,25.9M44.4,24.31h3.26v0a3.12,3.12,0,0,0,2.63-3.07h0a3.1,3.1,0,0,0-3.1-3.1H40.62V34.33H49a3.21,3.21,0,0,0,.2-6.41H44.4a1.8,1.8,0,0,1,0-3.6h0"/></g><g id="g28"><path id="path30" class="cls-75" d="M18.59,56a.55.55,0,0,1,.55-.55.55.55,0,0,1,.55.55v3h0a2.47,2.47,0,0,1-2.47,2.47h0A2.47,2.47,0,0,1,14.75,59h0V56a.55.55,0,0,1,1.1-.08V59h0a1.38,1.38,0,0,0,1.38,1.37h0A1.37,1.37,0,0,0,18.6,59h0Z"/></g><g id="g32"><path id="path34" class="cls-75" d="M23.81,60.38a.55.55,0,0,1,.55.55.55.55,0,0,1-.55.55H22.27a2.06,2.06,0,0,1-2.06-2.06h0V56a.55.55,0,1,1,1.09,0v3.38h0a1,1,0,0,0,1,1Z"/></g><g id="g36"><path id="path38" class="cls-75" d="M35.44,35.78a2.06,2.06,0,1,1-4.08.59s0-.1,0-.16L29.65,20.67l-6,15.2h0v.07h0V36h0v0h0a2.05,2.05,0,0,1-.51.59h0l0,0a1.48,1.48,0,0,1-.35.25h0l0,0h0l0,0h-.2a2.06,2.06,0,0,1-.6.12h-.15a2.23,2.23,0,0,1-.68-.14h-.17l0,0h0l0,0h0a1.9,1.9,0,0,1-.33-.22h0l-.07-.06h0l-.05,0-.12,0h0l-.06-.07h0a1.66,1.66,0,0,1-.22-.32v0l0,0h0l0,0h0v-.12h0v0L13.84,20.67,12.15,36.21a2.06,2.06,0,1,1-4.1-.43l2-18.32h0a3.58,3.58,0,0,1,.38-1.24A3.41,3.41,0,0,1,13,14.45h.11a2.26,2.26,0,0,1,.52,0h0a2.57,2.57,0,0,1,.62.08,3.39,3.39,0,0,1,2.4,2.07l5.11,12.91,5.09-13a3.4,3.4,0,0,1,3-2.16h.64a3.43,3.43,0,0,1,2.56,1.78,4,4,0,0,1,.25.6,3.56,3.56,0,0,1,.13.65h0Z"/></g><g id="g40"><path id="path42" class="cls-75" d="M14.54,60.87a.56.56,0,0,1-.45.64.55.55,0,0,1-.64-.44.17.17,0,0,0,0-.07L13,57l-1.68,3.9a.54.54,0,0,1-.72.28.5.5,0,0,1-.29-.28h0L8.6,57l-.48,4a.54.54,0,0,1-.58.52A.56.56,0,0,1,7,60.94s0,0,0-.07l.55-4.61a.89.89,0,0,1,.49-.68l.11,0h0l.16,0h0a1,1,0,0,1,.77.25l.11.12.06.11,0,.06,1.42,3.31L12.21,56a.93.93,0,0,1,.65-.52l.16,0h.17a.9.9,0,0,1,.69.44h0a.77.77,0,0,1,.07.16.19.19,0,0,1,0,.1v.07h0Z"/></g><g id="g44"><path id="path46" class="cls-75" d="M26.21,60.93a.56.56,0,0,1-1.11,0h0V56.58H23.54a.55.55,0,0,1,0-1.1h4.23a.55.55,0,0,1,.55.55.54.54,0,0,1-.55.55H26.21Z"/></g><g id="g48"><path id="path50" class="cls-75" d="M29.65,60.93a.56.56,0,0,1-1.11,0h0V56a.56.56,0,0,1,1.11,0Z"/></g><g id="g52"><path id="path54" class="cls-75" d="M40.94,60.87a.56.56,0,0,1-.51.59.55.55,0,0,1-.58-.46l-.2-1.55H37.76a.57.57,0,0,1-.6-.51.56.56,0,0,1,.51-.59h1.86l-.05-.41h0v0a2.86,2.86,0,0,0-.07-.28,1.45,1.45,0,0,0-.11-.29,1.26,1.26,0,0,0-1.12-.74h0l-.27,0a1.06,1.06,0,0,0-.25.09,1.58,1.58,0,0,0-.77,1.23L36.55,61a.55.55,0,1,1-1.09-.12h0l.34-3.06a2.67,2.67,0,0,1,1.36-2.09,2.22,2.22,0,0,1,.49-.18,2.33,2.33,0,0,1,.53-.06h0a2.33,2.33,0,0,1,2.1,1.35,3.08,3.08,0,0,1,.19.47,3.58,3.58,0,0,1,.09.45,0,0,0,0,1,0,.05h0Z"/></g><g id="g56"><path id="path58" class="cls-75" d="M42.62,60.93a.54.54,0,0,1-.5.59.55.55,0,0,1-.6-.5V56.39h0V56.3a.61.61,0,0,1,0-.18h0l0-.1h0a.8.8,0,0,1,.43-.36l.08,0h.2a.78.78,0,0,1,.58.3l2.92,3.74V56a.55.55,0,0,1,.55-.55.55.55,0,0,1,.55.55v4.54a.75.75,0,0,1-.28.6l-.12.08-.07,0h0l0,0h0a.76.76,0,0,1-.59,0l-.07,0-.11-.08a.46.46,0,0,1-.07-.07l0,0h0L42.62,57.3Z"/></g><g id="g60"><path id="path62" class="cls-75" d="M51.23,60.38a.55.55,0,0,1,.55.55.55.55,0,0,1-.55.55H49.6a2.17,2.17,0,0,1-2.17-2.17h0V57.66h0a2.18,2.18,0,0,1,2.17-2.17h1.63a.55.55,0,0,1,.55.55.55.55,0,0,1-.55.55H49.6a1.07,1.07,0,0,0-.75.32,1,1,0,0,0-.33.76h0v1.66h0a1.07,1.07,0,0,0,1.07,1.07h1.63Z"/></g><g id="g64"><path id="path66" class="cls-75" d="M54.42,56.58h0a1.55,1.55,0,0,0-1.05.41A1.4,1.4,0,0,0,53,58h0v1h0a1.33,1.33,0,0,0,.42,1,1.44,1.44,0,0,0,1,.41h0a1.44,1.44,0,0,0,1-.41,1.34,1.34,0,0,0,.43-1h0V58h0a1.4,1.4,0,0,0-.42-1,1.55,1.55,0,0,0-1.05-.41m0-1.1h0a2.61,2.61,0,0,1,1.81.72A2.45,2.45,0,0,1,57,58h0v1h0a2.46,2.46,0,0,1-.76,1.77,2.65,2.65,0,0,1-1.81.72h0a2.61,2.61,0,0,1-1.8-.72A2.46,2.46,0,0,1,51.85,59h0V58h0a2.45,2.45,0,0,1,.76-1.76,2.57,2.57,0,0,1,1.8-.72Z"/></g><g id="g68"><path id="path70" class="cls-75" d="M31.21,56.58v3.8h2.12a.69.69,0,0,0,.7-.69h0a.68.68,0,0,0-.19-.47l0,0a.69.69,0,0,0-.49-.21H32.6a.55.55,0,1,1,0-1.1h.25a.68.68,0,0,0,.42-.19h0a.67.67,0,0,0,.19-.47h0a.65.65,0,0,0-.65-.64h-1.6ZM30.1,58.45v-2.4h0a.5.5,0,0,1,0-.21.53.53,0,0,1,.13-.2h0a.51.51,0,0,1,.36-.15H32.8a1.75,1.75,0,0,1,1.75,1.75h0a1.74,1.74,0,0,1-.27.94,2,2,0,0,1,.33.24l0,0a1.79,1.79,0,0,1,.49,1.23h0a1.79,1.79,0,0,1-1.79,1.79H30.65a.55.55,0,0,1-.55-.55Z"/></g></svg>