<svg id="Calque_1" data-name="Calque 1" xmlns="http://www.w3.org/2000/svg" xmlns:xlink="http://www.w3.org/1999/xlink" viewBox="0 0 64 48"><defs><style>.cls-1{fill:none;}.cls-2{clip-path:url(#clip-path);}.cls-3{clip-path:url(#clip-path-2);}.cls-4{clip-path:url(#clip-path-3);}.cls-5{clip-path:url(#clip-path-4);}.cls-6{clip-path:url(#clip-path-5);}.cls-7{clip-path:url(#clip-path-11);}.cls-8{clip-path:url(#clip-path-12);}.cls-9{clip-path:url(#clip-path-13);}.cls-10{clip-path:url(#clip-path-14);}.cls-11{clip-path:url(#clip-path-15);}.cls-12{clip-path:url(#clip-path-21);}.cls-13{clip-path:url(#clip-path-22);}.cls-14{clip-path:url(#clip-path-23);}.cls-15{clip-path:url(#clip-path-24);}.cls-16{clip-path:url(#clip-path-25);}.cls-17{clip-path:url(#clip-path-26);}.cls-18{clip-path:url(#clip-path-27);}.cls-19{clip-path:url(#clip-path-28);}.cls-20{clip-path:url(#clip-path-29);}.cls-21{clip-path:url(#clip-path-30);}.cls-22{clip-path:url(#clip-path-31);}.cls-23{clip-path:url(#clip-path-32);}.cls-24{clip-path:url(#clip-path-33);}.cls-25{clip-path:url(#clip-path-34);}.cls-26{clip-path:url(#clip-path-35);}.cls-27{clip-path:url(#clip-path-36);}.cls-28{clip-path:url(#clip-path-37);}.cls-29{clip-path:url(#clip-path-38);}.cls-30{clip-path:url(#clip-path-39);}.cls-31{clip-path:url(#clip-path-40);}.cls-32{clip-path:url(#clip-path-41);}.cls-33{clip-path:url(#clip-path-42);}.cls-34{clip-path:url(#clip-path-43);}.cls-35{clip-path:url(#clip-path-44);}.cls-36{clip-path:url(#clip-path-45);}.cls-37{clip-path:url(#clip-path-46);}.cls-38{clip-path:url(#clip-path-47);}.cls-39{fill:#b3b1af;}.cls-40{fill:#d13138;isolation:isolate;}</style><clipPath id="clip-path"><polyline class="cls-1" points="93.42 -700.24 96.56 -719.72 101.58 -719.72 98.44 -700.24 93.42 -700.24"/></clipPath><clipPath id="clip-path-2"><path class="cls-1" d="M116.64-719.23a12.31,12.31,0,0,0-4.49-.82c-5,0-8.46,2.64-8.49,6.42,0,2.8,2.49,4.37,4.4,5.3s2.61,1.56,2.6,2.41c0,1.31-1.56,1.9-3,1.9a10,10,0,0,1-4.73-1l-.64-.31-.71,4.36a15.12,15.12,0,0,0,5.6,1c5.27,0,8.69-2.61,8.74-6.65,0-2.22-1.32-3.9-4.22-5.29-1.75-.91-2.83-1.5-2.82-2.42s.91-1.67,2.88-1.67a8.65,8.65,0,0,1,3.75.75l.45.22.68-4.22"/></clipPath><clipPath id="clip-path-3"><path class="cls-1" d="M123.33-707.14l2-5.45c0,.05.41-1.13.67-1.86l.34,1.68,1.16,5.63Zm6.19-12.56h-3.88a2.47,2.47,0,0,0-2.63,1.62l-7.46,17.85h5.28s.85-2.4,1-2.93h6.43c.15.68.61,2.92.61,2.92h4.66l-4.07-19.47Z"/></clipPath><clipPath id="clip-path-4"><path class="cls-1" d="M89.21-719.7,84.3-706.42l-.53-2.7a15,15,0,0,0-7-8.17l4.49,17h5.31l7.91-19.44H89.21"/></clipPath><clipPath id="clip-path-5"><path class="cls-1" d="M79.74-719.71h-8.1l-.06.4c6.29,1.61,10.46,5.51,12.19,10.19l-1.76-9a2.1,2.1,0,0,0-2.27-1.64"/></clipPath><clipPath id="clip-path-11"><polyline class="cls-1" points="22.84 -700.24 25.98 -719.72 31 -719.72 27.86 -700.24 22.84 -700.24"/></clipPath><clipPath id="clip-path-12"><path class="cls-1" d="M46.07-719.23a12.37,12.37,0,0,0-4.5-.82c-5,0-8.46,2.64-8.49,6.42,0,2.8,2.5,4.37,4.4,5.3s2.61,1.56,2.61,2.41c0,1.31-1.57,1.9-3,1.9a10.07,10.07,0,0,1-4.73-1l-.64-.31L31-701a15.07,15.07,0,0,0,5.59,1c5.27,0,8.7-2.61,8.74-6.65,0-2.22-1.32-3.9-4.22-5.29-1.75-.91-2.83-1.5-2.81-2.42s.9-1.67,2.87-1.67a8.72,8.72,0,0,1,3.76.75l.45.22.68-4.22"/></clipPath><clipPath id="clip-path-13"><path class="cls-1" d="M52.75-707.14l2-5.45c0,.05.42-1.13.67-1.86l.34,1.68,1.16,5.63Zm6.19-12.56H55.06a2.48,2.48,0,0,0-2.63,1.62L45-700.23h5.27l1-2.93h6.43c.15.68.61,2.92.61,2.92H63L58.93-719.7Z"/></clipPath><clipPath id="clip-path-14"><path class="cls-1" d="M18.63-719.7l-4.91,13.28-.53-2.7a14.91,14.91,0,0,0-6.95-8.17l4.49,17h5.32L24-719.7H18.63"/></clipPath><clipPath id="clip-path-15"><path class="cls-1" d="M9.16-719.71H1.07l-.07.4c6.3,1.61,10.46,5.51,12.19,10.19l-1.76-9a2.1,2.1,0,0,0-2.27-1.64"/></clipPath><clipPath id="clip-path-21"><path class="cls-1" d="M634.48-610.56a10.27,10.27,0,0,0,6.44,9.31,24.59,24.59,0,0,1-3.32,6.54c-2,2.8-4.07,5.59-7.34,5.65s-4.24-1.83-7.92-1.83-4.82,1.77-7.85,1.89-5.56-3-7.57-5.83c-4.12-5.71-7.27-16.13-3-23.17a11.78,11.78,0,0,1,9.92-5.76c3.1-.06,6,2,7.92,2s5.45-2.47,9.19-2.11a11.41,11.41,0,0,1,8.77,4.57,10.36,10.36,0,0,0-5.18,8.75m-6-17.1A9.82,9.82,0,0,0,631-635a10.91,10.91,0,0,0-7.06,3.48,9.38,9.38,0,0,0-2.55,7.12,9.06,9.06,0,0,0,7.12-3.26"/></clipPath><clipPath id="clip-path-22"><path class="cls-1" d="M565.78-610.56a10.27,10.27,0,0,0,6.44,9.31,24.59,24.59,0,0,1-3.32,6.54c-2,2.8-4.07,5.59-7.34,5.65s-4.24-1.83-7.92-1.83-4.82,1.77-7.85,1.89-5.56-3-7.57-5.83c-4.12-5.71-7.27-16.13-3-23.17a11.78,11.78,0,0,1,9.92-5.76c3.1-.06,6,2,7.92,2s5.45-2.47,9.19-2.11a11.41,11.41,0,0,1,8.77,4.57,10.36,10.36,0,0,0-5.18,8.75m-6-17.1a9.82,9.82,0,0,0,2.49-7.34,10.91,10.91,0,0,0-7.06,3.48,9.38,9.38,0,0,0-2.55,7.12,9.06,9.06,0,0,0,7.12-3.26"/></clipPath><clipPath id="clip-path-23"><path class="cls-1" d="M442.2-203.06h5l.08,0,.07,0,.08,0,.07,0,.08,0,.07,0,.08,0,.07,0,.08.05.07.06.08.06.07.06.08.07.07.08.08.09.07.11a.62.62,0,0,1,.08.12s.05.09.07.14l.08.17c0,.09.05.18.07.26a2,2,0,0,1,.05.48,2,2,0,0,1-.05.48,2.5,2.5,0,0,1-.07.26c0,.06-.05.12-.08.17l-.07.14-.08.12-.07.11-.08.09-.07.08-.08.07-.07.06-.08.06-.07.06-.08.05-.07,0-.08,0-.07,0-.08,0-.07,0-.08,0-.07,0-.08,0h-5v-4.06Zm6-4.63a2.12,2.12,0,0,1,0,.44,2.1,2.1,0,0,1,0,.43,2,2,0,0,1-.08.26.87.87,0,0,1-.07.17.64.64,0,0,1-.08.14l-.07.11-.08.1-.07.08-.08.08-.07.06-.08.06-.07.06-.08,0-.07,0-.08,0-.07,0-.08,0-.07,0-.07,0-.08,0-.07,0h-4.61v-3.77h4.53l.08,0,.07,0,.08,0,.07,0,.07,0,.08,0,.07,0,.08,0,.07,0,.08.05.07,0,.08.06.07.07.08.07.07.09.08.09.07.12a.41.41,0,0,1,.08.13.87.87,0,0,1,.07.17,2,2,0,0,1,.08.26Zm9.27-19.56h0v38.75q0,.34,0,.69c0,.19,0,.39-.07.59s-.05.25-.08.38,0,.21-.07.31,0,.19-.08.27-.05.16-.07.23l-.08.21c0,.07-.05.13-.07.2l-.08.18c0,.06-.05.11-.07.17l-.08.15-.07.15-.08.15-.07.13-.08.12-.07.13-.08.12-.07.12a1,1,0,0,0-.08.11l-.07.1-.08.11-.07.09-.08.1-.07.09-.08.09-.07.09-.08.08-.07.09a.6.6,0,0,0-.08.08l-.07.07-.08.08-.07.07-.08.08-.07.06-.07.07-.08.07-.07.06-.08.07-.07.06-.08.06-.07.06-.08.05-.07.06-.08.05-.07,0-.08.06-.07.05-.08,0-.07,0-.08,0-.07,0-.08.05-.07,0-.08,0-.07,0-.08,0-.07,0-.08,0-.07,0-.08,0-.07,0-.08,0-.07,0-.08,0-.07,0-.08,0-.07,0-.08,0-.07,0-.08,0-.07,0-.08,0-.07,0-.08,0-.07,0-.08,0-.07,0-.08,0-.07,0-.08,0h-.07l-.08,0-.07,0h-.08l-.07,0h-.15l-.08,0H438.39v-15.8h13.18l.08,0h.07l.08,0h.07l.08,0H452l.08,0,.07,0,.08,0,.07,0,.08,0,.07,0,.08,0,.07,0,.08,0,.07,0,.08,0,.07,0,.08,0,.07,0,.08,0,.07,0,.08,0,.07,0,.08,0,.07-.05.08,0,.07-.05.08,0,.07-.05.07-.05.08-.06.07-.06.08-.06.07-.07.08-.07.07-.07.08-.08.07-.08.08-.09.07-.1.08-.1.07-.11a.62.62,0,0,0,.08-.12s.05-.08.07-.13a.64.64,0,0,0,.08-.14c0-.05.05-.11.07-.17a1.19,1.19,0,0,0,.08-.2c0-.07.05-.17.07-.26a2.7,2.7,0,0,0,.08-.39,4.07,4.07,0,0,0,0-.5,3.87,3.87,0,0,0,0-.48,2.57,2.57,0,0,0-.08-.38,1.68,1.68,0,0,0-.07-.24,1.67,1.67,0,0,0-.08-.2.77.77,0,0,0-.07-.16s0-.1-.08-.14-.05-.09-.07-.13l-.08-.12-.07-.1-.08-.1-.07-.09-.08-.09-.07-.08-.08-.07-.07-.07-.08-.07-.07-.06-.08-.06-.07-.06-.08-.06-.07-.05-.07-.05-.08,0-.07,0-.08-.05-.07,0-.08,0-.07,0-.08,0-.07,0-.08,0-.07,0-.08,0-.07,0-.08,0-.07,0-.08,0-.07,0-.08,0-.07,0-.08,0-.07,0-.08,0-.07,0H452l-.07,0-.08,0h-.07l-.08,0h-.07l-.08,0h-.67v-.09h.15l.07,0h.08l.07,0h.08l.07,0,.08,0,.07,0,.08,0,.07,0,.08,0,.07,0,.08,0,.07,0,.08,0,.07,0,.08,0,.07,0,.08,0,.07,0,.08,0,.07,0,.08,0,.07,0,.08,0,.07-.05L453-205l.07-.06.08,0,.07-.06.08-.07.07-.07.08-.07.07-.07.08-.09.07-.08.08-.09.07-.11a.41.41,0,0,0,.07-.11.44.44,0,0,0,.08-.11s0-.09.07-.13a1.09,1.09,0,0,0,.08-.15l.07-.17a1.31,1.31,0,0,0,.08-.21c0-.06.05-.17.07-.25a3.54,3.54,0,0,0,.08-.45c0-.12,0-.24,0-.36s0-.25,0-.38a3.54,3.54,0,0,0-.08-.45c0-.08,0-.17-.07-.26a1.8,1.8,0,0,0-.08-.21.77.77,0,0,0-.07-.16l-.08-.15a.54.54,0,0,0-.07-.13l-.08-.12a.61.61,0,0,0-.07-.1l-.07-.1-.08-.09-.07-.08-.08-.08-.07-.07-.08-.07-.07-.07-.08-.06-.07-.06-.08-.05-.07-.06-.08-.05-.07,0-.08,0-.07,0-.08,0-.07,0-.08,0-.07,0-.08,0-.07,0-.08,0-.07,0-.08,0-.07,0-.08,0-.07,0-.08,0-.07,0-.08,0-.07,0-.08,0h-.07l-.08,0-.07,0h-.08l-.07,0H438.4v-8a8.38,8.38,0,0,1,.16-1.58l.08-.32c0-.09.05-.18.07-.28s.05-.16.08-.24,0-.14.07-.21l.08-.2c0-.07.05-.12.07-.19l.08-.17.07-.16.08-.15c0-.05.05-.09.07-.14l.08-.14.07-.13.08-.13.07-.12.08-.11.07-.11.08-.11.07-.1.08-.1.07-.1.08-.09.07-.09.08-.09.07-.09.08-.08.07-.08.08-.08.07-.07.08-.08a.46.46,0,0,1,.07-.07l.08-.07.07-.07.08-.07.07-.06.07-.07.08-.06.07-.06.08-.06.07,0,.08-.06.07-.05.08-.06.07,0,.08-.05.07,0L442-226l.07-.05.08,0,.07,0,.08,0,.07,0,.08,0,.07,0,.08,0,.07,0,.08,0,.07,0,.08,0,.07,0,.08,0,.07,0,.08,0,.07,0,.08,0,.07,0,.08,0,.07,0,.08,0,.07,0,.08,0,.07,0,.08,0,.07,0,.08,0,.07,0,.08,0h.07l.08,0,.07,0h.08l.07,0h.08l.07,0h.15l.08,0h12.48Z"/></clipPath><clipPath id="clip-path-24"><path class="cls-1" d="M395.52-200.36V-219.5a8.38,8.38,0,0,1,.16-1.58c0-.11.05-.22.08-.32s.05-.19.07-.28.05-.16.08-.24,0-.14.07-.22l.08-.19c0-.07.05-.13.07-.19s.05-.11.08-.17l.07-.16.08-.15c0-.05.05-.1.07-.14l.08-.14.07-.13.08-.13.07-.12.08-.11.07-.11A1,1,0,0,1,397-224l.07-.1.08-.1a.86.86,0,0,1,.07-.1l.08-.09.07-.09.08-.09.07-.09.08-.08.07-.08.08-.08.07-.08.08-.07.07-.07.08-.07.07-.07.08-.07.07-.06.08-.06.07-.07.08-.06.07-.06.08-.06.07-.05.08,0,.07-.06.08-.05.07,0,.07-.05.08-.05.07,0,.08,0,.07-.05.08,0,.07,0,.08,0,.07,0,.08,0,.07,0,.08,0,.07,0,.08,0,.07,0,.08,0,.07,0,.08,0,.07,0,.08,0,.07,0,.08,0,.07,0,.08,0,.07,0,.08,0,.07,0,.08,0,.07,0,.08,0,.07,0,.08,0h.07l.08,0,.07,0,.08,0h.15l.07,0h.15l.08,0h12.53v38.75a8.26,8.26,0,0,1-.06,1c0,.16,0,.31-.07.46s0,.24-.08.35-.05.2-.07.29-.05.17-.08.25-.05.15-.07.22l-.08.21c0,.07,0,.12-.07.18l-.08.18c0,.06-.05.11-.07.16l-.08.16-.07.14-.08.14-.07.13-.08.13-.07.12-.08.12-.07.11-.08.11-.07.1-.08.1a.86.86,0,0,1-.07.1l-.08.1-.07.09-.08.09-.07.08-.08.09-.07.08-.08.08-.07.07-.08.08-.07.07-.08.07-.07.07-.08.07-.07.06-.08.07-.07.06-.08.06-.07.06-.08.06-.07.05-.08.06-.07.05-.08,0-.07.05-.07,0-.08.05-.07.05-.08,0-.07,0-.08,0-.07,0-.08,0-.07,0-.08,0-.07,0-.08,0-.07,0-.08,0-.07,0-.08,0-.07,0-.08,0-.07,0-.08,0-.07,0-.08,0-.07,0-.08,0-.07,0-.08,0-.07,0-.08,0-.07,0-.08,0-.07,0-.08,0-.07,0h-.08l-.07,0-.08,0h-.07l-.08,0h-.07l-.08,0H395.52v-16.33l.16,0,.08,0,.07,0h.08l.07,0,.08,0,.07,0h.08l.07,0,.08,0h.07l.08,0h.07l.08,0,.07,0h.08l.07,0H397l.07,0h.15l.08,0h.07l.08,0h.15l.07,0h.15l.08,0h.3l.07,0h.6l.08,0h.22l.07,0H407l.08,0h.15l.07,0h.08l.07,0h.08l.07,0h.08l.07,0,.08,0,.07,0H408l.07,0,.08,0,.07,0,.08,0,.07,0,.08,0,.07,0,.08,0,.07,0,.08,0,.07,0,.08,0,.07,0,.08,0,.07,0,.08,0,.07,0,.08,0,.07,0,.08,0,.07,0,.08,0,.07,0,.07,0,.08,0,.07,0,.08,0,.07,0,.08,0,.07,0,.08-.05.07,0,.08,0,.07,0,.08,0,.07-.05.08,0,.07-.05.08-.05.07-.06L411-198l.07-.06.08-.06.07-.06.08-.07.07-.07.08-.06.07-.08.08-.07.07-.08.08-.08.07-.09.08-.09.07-.1.08-.1.07-.1.08-.11.07-.12.08-.13c0-.05.05-.09.07-.14l.08-.15.07-.16.08-.18c0-.06.05-.13.07-.2a2.09,2.09,0,0,1,.08-.23l.07-.28c0-.12,0-.23.08-.35s.05-.36.07-.54a6.62,6.62,0,0,0,0-.77v-9h-6.66l-.06,9c0,.14,0,.27,0,.41a4.46,4.46,0,0,1-.07.51,2.45,2.45,0,0,1-.08.29c0,.08,0,.16-.07.23s-.05.13-.08.19a1.22,1.22,0,0,0-.07.17l-.08.14c0,.05-.05.09-.07.13l-.08.12-.07.11-.08.1-.07.09-.08.09-.07.08-.08.07-.07.07-.08.07-.07.06-.08.06-.07.06-.08,0-.07.05-.08,0-.07,0-.08,0-.07,0-.08,0-.07,0-.08,0-.07,0-.08,0-.07,0-.08,0-.07,0-.08,0-.07,0-.08,0-.07,0-.08,0h-.07l-.08,0h-.07l-.08,0h-3l-.07,0h-.08l-.06,0-.08,0h-.07l-.08,0h-.07l-.08,0h-.07l-.08,0-.07,0h-.08l-.07,0-.08,0-.07,0-.08,0-.07,0h-.08l-.07,0-.08,0-.07,0-.08,0-.07,0-.08,0-.07,0-.08,0-.07,0-.08,0-.07,0-.08,0-.07,0-.08,0-.07,0-.08,0-.07,0-.08,0-.07,0-.08,0-.07,0-.08,0-.07,0-.08,0-.07,0-.08,0-.07,0-.08,0-.07,0-.08,0-.07,0-.08,0-.07,0-.08,0-.07,0-.07,0-.08,0-.07,0-.08,0-.07,0-.08,0-.07,0-.08,0Z"/></clipPath><clipPath id="clip-path-25"><path class="cls-1" d="M417.13-209.49l-.16.13v-10.15a7.54,7.54,0,0,1,.16-1.57c0-.11.05-.22.07-.33s.05-.18.08-.27.05-.16.07-.24,0-.15.08-.22.05-.13.07-.2l.08-.18c0-.06.05-.12.07-.17s.05-.11.08-.16l.07-.15.08-.15.07-.13.08-.13.07-.12.08-.12.07-.12.08-.11.07-.11.08-.1.07-.1.08-.1.07-.09.08-.09.07-.09.08-.08.07-.09.08-.08.07-.08.08-.07.07-.08.08-.07.07-.07.08-.07.07-.06.08-.07.07-.06.08-.07.07-.06.08-.06.07-.05.08-.06.07,0,.07-.06.08-.05.07,0,.08-.05.07-.05.08,0,.07,0,.08,0,.07,0,.08,0,.07,0,.08,0,.07,0,.08,0,.07,0,.08,0,.07,0,.08,0,.07,0,.08,0,.07,0,.08,0,.07,0,.08,0,.07,0,.08,0,.07,0,.08,0,.07,0,.08,0,.07,0,.08,0,.07,0h.08l.07,0,.08,0,.07,0,.08,0h.07l.08,0h.07l.08,0h.15l.07,0h12.54v38.75a8.26,8.26,0,0,1-.06,1c0,.16-.05.31-.08.46s-.05.24-.07.35,0,.2-.08.29l-.07.25c0,.08-.05.15-.08.22s-.05.13-.07.21a1.59,1.59,0,0,1-.08.18l-.07.18-.08.16-.07.16-.08.14-.07.14-.08.13-.07.13-.08.12-.07.12-.08.11-.07.11-.08.1-.07.1-.08.1-.07.09-.08.1-.07.08-.08.09-.07.09-.08.08-.07.08-.08.07-.07.08-.08.07-.07.07-.08.07-.07.07-.08.06-.07.07-.08.06-.07.06-.08.06-.07.06-.08.05-.07.06-.08.05-.07,0-.08.05-.07,0-.08.05-.07.05-.08,0-.07,0-.07,0-.08,0-.07,0-.08,0-.07,0-.08,0-.07,0-.08,0-.07,0-.08,0-.07,0-.08,0-.07,0-.08,0-.07,0-.08,0-.07,0-.08,0-.07,0-.08,0-.07,0-.08,0-.07,0-.08,0-.07,0-.08,0-.07,0-.08,0-.07,0h-.08l-.07,0-.08,0h-.15l-.07,0H417v-17.89l.16.13.07.06.08.06.07,0,.08.06.07.05.08,0,.07.06.08.05.07,0,.08.05.07,0,.08,0,.07,0,.08,0,.07,0,.08,0,.07,0,.08,0,.07,0,.08,0,.07,0,.08,0,.07,0,.08,0,.07,0,.07,0,.08,0,.07,0,.08,0,.07,0,.08,0,.07,0,.08,0,.07,0,.08,0,.07,0,.08,0,.07,0,.08,0,.07,0,.08,0,.07,0,.08,0,.07,0,.08,0,.07,0,.08,0,.07,0,.08,0,.07,0,.08,0,.07,0,.08,0,.07,0,.08,0h.07l.08,0,.07,0h.08l.07,0,.08,0h.07l.08,0h.07l.08,0h.15l.07,0h.23l.07,0h8.31l.08,0h.3l.07,0h.23l.07,0h.15l.08,0H432l.07,0h.08l.07,0h.08l.07,0h.15l.08,0h.07l.08,0h.07l.08,0,.07,0H433l.07,0h.07l.08,0,.07,0h.08l.07,0,.08,0h.07l.08,0,.07,0,.08,0h.07l.08,0v-3.28l-.08,0-.07,0-.08,0-.07,0-.08,0-.07,0-.08,0-.07,0-.08,0-.07,0-.08,0-.07,0-.07,0-.08,0-.07,0-.08,0-.07,0-.08,0-.07,0-.08,0-.07,0-.08,0-.07,0-.08,0-.07,0-.08,0-.07,0-.08,0-.07,0-.08,0-.07,0-.08,0-.07,0-.08,0-.07,0-.08,0-.07,0-.08,0-.07,0-.08,0-.07,0-.08,0-.07,0-.08,0-.07,0-.08,0-.07,0h-.08l-.07,0-.08,0h-.07l-.08,0-.07,0-.08,0h-.15l-.07,0h-.08l-.07,0h-.15l-.08,0h-3.58l-.08,0h-.07l-.08,0-.07,0h-.08l-.07,0-.08,0-.07,0-.08,0-.07,0-.08,0-.07,0-.08,0-.07,0-.08,0-.07,0-.08,0-.07,0-.08,0-.07,0-.08,0-.07,0-.08,0-.07,0-.08,0-.07,0-.08,0-.07,0-.08-.05-.07,0-.08-.06-.07-.05-.08-.06-.07,0-.08-.06-.07-.06L423-200l-.07-.07-.08-.07-.07-.08-.08-.07-.07-.09a.6.6,0,0,1-.08-.08l-.07-.09-.08-.1-.07-.1a1,1,0,0,0-.08-.11l-.07-.12-.08-.13-.07-.13s-.05-.1-.08-.14l-.07-.16a1.42,1.42,0,0,0-.08-.18c0-.06,0-.13-.07-.2s-.05-.15-.08-.23-.05-.18-.07-.27-.05-.24-.07-.36a4.85,4.85,0,0,1-.08-.55c0-.21,0-.44,0-.67s0-.45,0-.67a4.85,4.85,0,0,1,.08-.55c0-.12,0-.24.07-.35s.05-.18.07-.27.05-.16.08-.23.05-.13.07-.2a1.59,1.59,0,0,1,.08-.18l.07-.16.08-.15s.05-.09.07-.12l.08-.13.07-.12.08-.11.07-.1.08-.1.07-.09.08-.09.07-.08.08-.08.07-.07.08-.07L423-208l.08-.07.07-.06.08-.06.07-.06.08-.05.07,0,.08-.05.07,0,.08-.05.07,0,.08-.05.07,0,.08,0,.07,0,.08,0,.07,0,.08,0,.07,0,.08,0,.07,0,.08,0,.07,0,.08,0,.07,0,.08,0,.07,0,.08,0,.07,0,.08,0,.07,0,.08,0h.07l.08,0,.07,0,.08,0h.15l.07,0h3.36l.08,0h.22l.08,0h.15l.07,0h.08l.07,0,.08,0h.07l.08,0,.07,0h.08l.07,0,.08,0,.07,0,.08,0,.07,0,.08,0,.07,0,.08,0,.07,0,.08,0,.07,0,.08,0,.07,0,.08,0,.07,0,.08,0,.07,0,.08,0,.07,0,.08,0,.07,0,.08,0,.07,0,.08,0,.07,0,.08,0,.07,0,.08,0,.07,0,.08,0,.07,0,.08,0,.07,0,.08,0,.07,0,.08,0,.07,0,.07,0,.08,0,.07,0,.08,0,.07,0,.08,0,.07,0,.08,0,.07,0,.08,0,.07,0,.08,0v-3.28h-.08l-.07,0-.08,0-.07,0-.08,0h-.07l-.08,0-.07,0h-.08l-.07,0h-.08l-.07,0-.07,0h-.08l-.07,0-.08,0h-.07l-.08,0h-.07l-.08,0h-.15l-.07,0h-.08l-.07,0H432l-.07,0h-.15l-.08,0h-.15l-.07,0h-.15l-.08,0H431l-.07,0h-8.24l-.08,0h-.29l-.08,0h-.15l-.07,0h-.08l-.07,0h-.08l-.07,0h-.08l-.07,0-.08,0h-.07l-.08,0-.07,0h-.08l-.07,0-.08,0-.07,0-.08,0-.07,0-.08,0-.07,0-.08,0-.07,0-.08,0-.07,0-.08,0-.07,0-.08,0-.07,0-.08,0-.07,0-.08,0-.07,0-.08,0-.07,0-.08,0-.07,0-.08,0-.07,0-.08,0-.07,0-.08,0-.07,0-.08,0-.07,0-.08,0-.07,0-.08,0-.07,0-.08,0-.07,0-.08,0-.07,0-.08,0-.07,0-.08,0-.07,0-.08.05-.07,0-.07.05-.08.05-.07,0-.08.06-.07.05-.08,0-.07.06-.08.06-.07.06Z"/></clipPath><clipPath id="clip-path-26"><path class="cls-1" d="M372.37-203.06h5.05l.07,0,.08,0,.07,0,.07,0,.08,0,.07,0,.08,0,.07,0,.08.05.07.06.08.06.07.06.08.07.07.08.08.09.07.11a.36.36,0,0,1,.08.12s.05.09.07.14a1.3,1.3,0,0,1,.08.17c0,.09.05.18.07.26a2,2,0,0,1,.06.48,2,2,0,0,1-.06.48,2.5,2.5,0,0,1-.07.26.89.89,0,0,1-.08.17.46.46,0,0,1-.07.14l-.08.12-.07.11-.08.09-.07.08-.08.07-.07.06-.08.06-.07.06-.08.05-.07,0-.08,0-.07,0-.08,0-.07,0-.07,0-.08,0-.07,0h-5.05v-4.06Zm6-4.63a2.12,2.12,0,0,1,.05.44,2.1,2.1,0,0,1-.05.43,2,2,0,0,1-.07.26.89.89,0,0,1-.08.17s-.05.1-.07.14a1,1,0,0,1-.08.11.86.86,0,0,1-.07.1l-.08.08-.07.08-.08.06-.07.06-.08.06-.07,0-.08,0-.07,0-.08,0-.07,0-.08,0-.07,0-.08,0-.07,0h-4.6v-3.77h4.52l.08,0,.07,0,.08,0,.07,0,.08,0,.07,0,.08,0,.07,0,.08,0,.07.05.08,0,.07.06.08.07.07.07.08.09.07.09.08.12a.76.76,0,0,1,.07.13s.05.11.08.17a2,2,0,0,1,.07.26Zm9.28-19.56h0v38.75q0,.34,0,.69c0,.19-.05.39-.08.59s0,.25-.07.38,0,.21-.08.31l-.07.27c0,.08-.05.16-.08.23s-.05.14-.07.21l-.08.2-.07.18-.08.17-.07.15-.08.15-.07.15-.08.13-.07.12-.08.13-.07.12-.08.12-.07.11-.08.1-.07.11-.08.09-.07.1-.08.09-.07.09-.08.09-.07.08-.08.09-.07.08-.08.07-.07.08-.08.07-.07.08-.08.06-.07.07-.08.07-.07.06-.08.07-.07.06-.08.06-.07.06-.08.05-.07.06-.08.05-.07,0-.08.06-.07.05-.08,0-.07,0-.08,0-.07,0-.08.05-.07,0-.08,0-.07,0-.08,0-.07,0-.07,0-.08,0-.07,0-.08,0-.07,0-.08,0-.07,0-.08,0-.07,0-.08,0-.07,0-.08,0-.07,0-.08,0-.07,0-.08,0-.07,0-.08,0-.07,0-.08,0-.07,0-.08,0-.07,0h-.08l-.07,0-.08,0h-.07l-.08,0h-.15l-.07,0H368.57v-15.8h13.18l.07,0h.08l.07,0h.08l.07,0h.08l.07,0,.07,0,.08,0,.07,0,.08,0,.07,0,.08,0,.07,0,.08,0,.07,0,.08,0,.07,0,.08,0,.07,0,.08,0,.07,0,.08,0,.07,0,.08,0,.07-.05.08,0,.07-.05.08,0,.07-.05.08-.05.07-.06.08-.06.07-.06.08-.07.07-.07.08-.07.07-.08.08-.08.07-.09.08-.1a.86.86,0,0,0,.07-.1,1,1,0,0,0,.08-.11.63.63,0,0,0,.07-.12l.08-.13s.05-.09.07-.14.05-.11.08-.17.05-.13.07-.2l.08-.26c0-.13.05-.26.07-.39a4,4,0,0,0,0-.5,3.88,3.88,0,0,0,0-.48c0-.13,0-.25-.07-.38a1.69,1.69,0,0,0-.08-.24c0-.07,0-.13-.07-.2s0-.11-.08-.16l-.07-.14-.08-.13a1.27,1.27,0,0,0-.07-.12l-.08-.1a.86.86,0,0,0-.07-.1l-.08-.09-.07-.09a.6.6,0,0,1-.08-.08l-.07-.07-.08-.07-.07-.07-.08-.06-.07-.06-.08-.06-.07-.06-.08-.05-.07-.05-.08,0-.07,0-.08-.05-.07,0-.08,0-.07,0-.08,0-.07,0-.08,0-.07,0-.08,0-.07,0-.08,0-.07,0-.08,0-.07,0-.08,0-.07,0-.08,0-.07,0-.08,0-.07,0h-.07l-.08,0-.07,0H382l-.07,0h-.08l-.07,0h-.67v-.09h.14l.08,0h.07l.08,0h.07l.08,0,.07,0,.08,0,.07,0,.08,0,.07,0,.08,0,.07,0,.08,0,.07,0,.07,0,.08,0,.07,0,.08,0,.07,0,.08,0,.07,0,.08,0,.07,0,.08,0,.07-.05.08-.05.07-.06.08,0,.07-.06.08-.07.07-.07.08-.07.07-.07.08-.09.07-.08.08-.09.07-.11a1,1,0,0,0,.08-.11l.07-.11.08-.13.07-.15s0-.12.08-.17.05-.14.07-.21a1.47,1.47,0,0,0,.08-.25,3.5,3.5,0,0,0,.07-.45c0-.12,0-.24,0-.36s0-.25,0-.38a3.5,3.5,0,0,0-.07-.45c0-.08,0-.17-.08-.26s-.05-.14-.07-.21l-.08-.16c0-.06-.05-.1-.07-.15l-.08-.13-.07-.12-.08-.1-.07-.1-.08-.09-.07-.08-.08-.08-.07-.07-.08-.07-.07-.07-.08-.06-.07-.06-.08-.05-.07-.06-.08-.05-.07,0-.08,0-.07,0-.08,0-.07,0-.08,0-.07,0-.08,0-.07,0-.08,0-.07,0-.07,0-.08,0-.07,0-.08,0-.07,0-.08,0-.07,0-.08,0-.07,0h-.08l-.07,0-.08,0h-.07l-.08,0H368.57v-8a7.64,7.64,0,0,1,.17-1.58c0-.11,0-.21.07-.32s.05-.18.08-.28a1.68,1.68,0,0,1,.07-.24l.08-.21a1.18,1.18,0,0,1,.07-.2l.08-.19a1.22,1.22,0,0,1,.07-.17l.08-.16a1,1,0,0,1,.07-.15l.08-.14.07-.14.07-.13.08-.13.07-.12.08-.11.07-.11.08-.11.07-.1.08-.1.07-.1.08-.09.07-.09.08-.09.07-.09.08-.08.07-.08.08-.08.07-.07.08-.08.07-.07.08-.07.07-.07.08-.07.07-.06.08-.07.07-.06.08-.06.07-.06.08,0,.07-.06.08-.05.07-.06.08,0,.07-.05.08,0,.07-.05.08-.05.07,0,.08,0,.07,0,.08,0,.07,0,.08,0,.07,0,.08,0,.07,0,.08,0,.07,0,.08,0,.07,0,.08,0,.07,0,.08,0,.07,0,.08,0,.07,0,.08,0,.07,0,.08,0,.07,0,.08,0,.07,0,.08,0,.07,0,.07,0,.08,0h.07l.08,0,.07,0h.08l.07,0h.08l.07,0h.15l.08,0h12.49Z"/></clipPath><clipPath id="clip-path-27"><path class="cls-1" d="M325.7-200.36V-219.5a7.63,7.63,0,0,1,.16-1.58,3,3,0,0,1,.07-.32,2.29,2.29,0,0,1,.08-.28c0-.09.05-.16.07-.24l.08-.22c0-.07,0-.12.07-.19s0-.13.08-.19.05-.11.07-.17l.08-.16.07-.15c0-.05.05-.1.08-.14s.05-.09.07-.14l.08-.13.07-.13.08-.12.07-.11.08-.11a.41.41,0,0,1,.07-.11l.08-.1.07-.1a.39.39,0,0,1,.08-.1l.07-.09.07-.09.08-.09.07-.09.08-.08.07-.08.08-.08L328-225,328-225l.07-.07.08-.07.07-.07.08-.07.07-.06.08-.06.07-.07.08-.06.07-.06.08-.06.07-.05.08,0,.07-.06.08-.05.07,0,.08-.05.07-.05.08,0,.07,0,.08-.05.07,0,.08,0,.07,0,.08,0,.07,0,.08,0,.07,0,.08,0,.07,0,.08,0,.07,0,.08,0,.07,0,.08,0,.07,0,.08,0,.07,0,.08,0,.07,0,.08,0,.07,0,.08,0,.07,0,.08,0,.07,0,.08,0,.07,0h.08l.07,0,.08,0,.07,0H332l.08,0h.15l.07,0h12.54v38.75a6.63,6.63,0,0,1-.07,1c0,.16,0,.31-.07.46a3.59,3.59,0,0,1-.08.35,2.46,2.46,0,0,1-.07.29c0,.09-.05.17-.08.25a1.42,1.42,0,0,1-.07.22,1.72,1.72,0,0,0-.07.21l-.08.18a1.34,1.34,0,0,0-.07.18l-.08.16a1.11,1.11,0,0,0-.07.16l-.08.14-.07.14-.08.13-.07.13-.08.12-.07.12-.08.11-.07.11-.08.1-.07.1-.08.1a.86.86,0,0,0-.07.1l-.08.09-.07.09-.08.08-.07.09-.08.08-.07.08-.08.07-.07.08-.08.07-.07.07-.08.07-.07.07-.08.06-.07.07-.08.06-.07.06-.08.06-.07.06-.08.05-.07.06-.08.05-.07,0-.08.05-.07,0-.08.05-.07.05-.08,0-.07,0-.08,0-.07,0-.08,0-.07,0-.08,0-.07,0-.08,0-.07,0-.08,0-.07,0-.08,0-.07,0-.08,0-.07,0-.08,0-.07,0-.08,0-.07,0-.07,0-.08,0-.07,0-.08,0-.07,0-.08,0-.07,0-.08,0-.07,0-.08,0h-.07l-.08,0-.07,0h-.08l-.07,0h-.08l-.07,0H325.7v-16.33l.16,0,.07,0,.08,0h.07l.08,0,.07,0,.08,0h.07l.08,0,.07,0h.08l.07,0h.08l.07,0,.08,0H327l.08,0h.07l.08,0h.15l.07,0h.07l.08,0h.15l.07,0H328l.08,0h.3l.07,0h.6l.08,0h.22l.08,0h7.79l.07,0h.15l.08,0h.07l.08,0h.07l.08,0h.07l.08,0,.07,0,.08,0h.07l.07,0,.08,0,.07,0,.08,0,.07,0,.08,0,.07,0,.08,0,.07,0,.08,0,.07,0,.08,0,.07,0,.08,0,.07,0,.08,0,.07,0,.08,0,.07,0,.08,0,.07,0,.08,0,.07,0,.08,0,.07,0,.08,0,.07,0,.08,0,.07,0,.08,0,.07-.05.08,0,.07,0,.08,0,.07,0,.08-.05.07,0,.08-.05.07-.05.08-.06.07-.05.08-.06.07-.06.08-.06.07-.07.08-.07.07-.06.08-.08.07-.07.08-.08.07-.08.08-.09.07-.09.08-.1.07-.1.08-.1.07-.11.08-.12s.05-.09.07-.13a1,1,0,0,1,.08-.14l.07-.15a1.19,1.19,0,0,1,.08-.16l.07-.18c0-.06.05-.13.07-.2a2.09,2.09,0,0,0,.08-.23c0-.08.05-.19.07-.28s.06-.23.08-.35a5,5,0,0,0,.07-.54,6.62,6.62,0,0,0,0-.77v-9h-6.66l-.06,9a2.82,2.82,0,0,1,0,.41,4.46,4.46,0,0,1-.07.51,2.45,2.45,0,0,1-.08.29,1.55,1.55,0,0,1-.07.23,1.08,1.08,0,0,1-.08.19,1.22,1.22,0,0,1-.07.17l-.08.14a.54.54,0,0,1-.07.13.75.75,0,0,0-.07.12l-.08.11a.36.36,0,0,0-.07.1l-.08.09-.07.09-.08.08a.46.46,0,0,0-.07.07l-.08.07-.07.07-.08.06-.07.06-.08.06-.07,0-.08.05-.07,0-.08,0-.07,0-.08,0-.07,0-.08,0-.07,0-.08,0-.07,0-.08,0-.07,0-.08,0-.07,0-.08,0-.07,0-.08,0-.07,0h-.08l-.07,0h-.08l-.07,0h-3l-.07,0h-.08l-.06,0-.08,0H330l-.08,0h-.07l-.08,0h-.07l-.08,0-.07,0h-.07l-.08,0-.07,0-.08,0-.07,0-.08,0h-.07l-.08,0-.07,0-.08,0-.07,0-.08,0-.07,0-.08,0-.07,0-.08,0-.07,0-.08,0-.07,0-.08,0-.07,0-.08,0-.07,0-.08,0-.07,0-.08,0-.07,0-.08,0-.07,0-.08,0-.07,0-.08,0-.07,0-.08,0-.07,0-.08,0-.07,0-.08,0-.07,0-.08,0-.07,0-.08,0-.07,0-.08,0-.07,0-.08,0-.07,0-.08,0-.07,0-.08,0Z"/></clipPath><clipPath id="clip-path-28"><path class="cls-1" d="M347.3-209.49l-.16.13v-10.15a7.54,7.54,0,0,1,.16-1.57c0-.11.05-.22.08-.33a1.76,1.76,0,0,1,.07-.27l.08-.24c0-.08.05-.15.07-.22l.08-.2c0-.07.05-.12.07-.18s.05-.12.08-.17a.77.77,0,0,1,.07-.16L348-223a1,1,0,0,1,.07-.15l.08-.13a.83.83,0,0,1,.07-.13l.08-.12.07-.12.08-.12.07-.11.08-.11.07-.1.07-.1.08-.1.07-.09.08-.09.07-.09.08-.08.07-.09.08-.08.07-.08.08-.07.07-.08.08-.07.07-.07.08-.07.07-.06.08-.07.07-.06.08-.07.07-.06.08-.06.07-.05.08-.06.07,0,.08-.06.07-.05.08,0,.07-.05.08-.05.07,0,.08,0,.07,0,.08,0,.07,0,.08,0,.07,0,.08,0,.07,0,.08,0,.07,0,.08,0,.07,0,.08,0,.07,0,.08,0,.07,0,.08,0,.07,0,.08,0,.07,0,.08,0,.07,0,.08,0,.07,0,.08,0,.07,0,.08,0h.07l.08,0,.07,0,.08,0,.07,0h.08l.07,0h.07l.08,0h.15l.07,0h12.54v38.75a8.26,8.26,0,0,1-.06,1c0,.16-.05.31-.08.46s0,.24-.07.35-.05.2-.08.29a1.49,1.49,0,0,1-.07.25c0,.08-.05.15-.08.22a1.72,1.72,0,0,1-.07.21,1.59,1.59,0,0,1-.08.18,1.34,1.34,0,0,1-.07.18l-.07.16-.08.16-.07.14-.08.14-.07.13-.08.13-.07.12-.08.12-.07.11-.08.11-.07.1-.08.1-.07.1-.08.09-.07.1-.08.08-.07.09-.08.09-.07.08-.08.08-.07.07-.08.08-.07.07-.08.07-.07.07-.08.07-.07.06-.08.07-.07.06-.08.06-.07.06-.08.06-.07.05-.08.06-.07.05-.08,0-.07.05-.08,0-.07.05-.08.05-.07,0-.08,0-.07,0-.08,0-.07,0-.08,0-.07,0-.08,0-.07,0-.08,0-.07,0-.08,0-.07,0-.08,0-.07,0-.08,0-.07,0-.08,0-.07,0-.08,0-.07,0-.08,0-.07,0-.08,0-.07,0-.07,0-.08,0-.07,0-.08,0-.07,0-.08,0h-.07l-.08,0-.07,0h-.15l-.08,0H347.14v-17.89l.16.13.08.06.07.06.07,0,.08.06.07.05.08,0,.07.06.08.05.07,0,.08.05.07,0,.08,0,.07,0,.08,0,.07,0,.08,0,.07,0,.08,0,.07,0,.08,0,.07,0,.08,0,.07,0,.08,0,.07,0,.08,0,.07,0,.08,0,.07,0,.08,0,.07,0,.08,0,.07,0,.08,0,.07,0,.08,0,.07,0,.08,0,.07,0,.08,0,.07,0,.08,0,.07,0,.08,0,.07,0,.08,0,.07,0,.08,0,.07,0,.08,0,.07,0,.08,0,.07,0,.08,0,.07,0h.08l.07,0,.08,0h.07l.08,0,.07,0H352l.07,0h.08l.07,0h.15l.07,0h.23l.07,0H361l.07,0h.3l.08,0h.22l.07,0h.15l.08,0h.15l.07,0h.08l.07,0h.08l.07,0h.15l.08,0h.07l.08,0H363l.08,0,.07,0h.08l.07,0h.08l.07,0,.08,0h.07l.08,0,.07,0h.08l.07,0,.08,0,.07,0h.08l.07,0v-3.28l-.07,0-.08,0-.07,0-.08,0-.07,0-.08,0-.07,0-.08,0-.07,0-.08,0-.07,0-.08,0-.07,0-.08,0-.07,0-.08,0-.07,0-.08,0-.07,0-.08,0-.07,0-.08,0-.07,0-.08,0-.07,0-.08,0-.07,0-.08,0-.07,0-.08,0-.07,0-.08,0-.07,0-.08,0-.07,0-.07,0-.08,0-.07,0-.08,0-.07,0-.08,0-.07,0-.08,0-.07,0-.08,0-.07,0-.08,0h-.07l-.08,0-.07,0h-.08l-.07,0-.08,0-.07,0H360l-.08,0h-.07l-.08,0h-.15l-.07,0h-3.59l-.08,0h-.07l-.08,0-.07,0h-.08l-.07,0-.08,0-.07,0-.08,0-.07,0-.08,0-.07,0-.08,0-.07,0-.08,0-.07,0-.07,0-.08,0-.07,0-.08,0-.07,0-.08,0-.07,0-.08,0-.07,0-.08,0-.07,0-.08,0-.07-.05-.08,0-.07-.06-.08-.05-.07-.06-.08,0-.07-.06-.08-.06-.07-.07-.08-.07-.07-.07-.08-.08-.07-.07-.08-.09-.07-.08-.08-.09-.07-.1-.08-.1-.07-.11-.08-.12-.07-.13-.08-.13-.07-.14c0-.05-.05-.11-.08-.16l-.07-.18c0-.06-.05-.13-.08-.2s-.05-.15-.07-.23-.05-.18-.08-.27-.05-.24-.07-.36-.06-.36-.08-.55,0-.44,0-.67,0-.45,0-.67.05-.37.08-.55,0-.24.07-.35,0-.18.08-.27l.07-.23.08-.2.07-.18c0-.06.05-.11.08-.16l.07-.15a1.25,1.25,0,0,1,.08-.12l.07-.13.08-.12.07-.11.08-.1.07-.1.08-.09.07-.09.08-.08.07-.08.08-.07.07-.07.08-.07.07-.07.08-.06.07-.06.08-.06.07-.05.08,0,.07-.05.08,0,.07-.05.08,0,.07-.05.08,0,.07,0,.08,0,.07,0,.08,0,.07,0,.08,0,.07,0,.08,0,.07,0,.07,0,.08,0,.07,0,.08,0,.07,0,.08,0,.07,0,.08,0,.07,0,.08,0h.07l.08,0,.07,0,.08,0h.15l.07,0h3.37l.07,0h.23l.07,0h.15l.08,0H360l.08,0,.07,0h.08l.07,0,.08,0h.07l.08,0,.07,0,.08,0,.07,0,.08,0,.07,0,.08,0,.07,0,.08,0,.07,0,.08,0,.07,0,.08,0,.07,0,.07,0,.08,0,.07,0,.08,0,.07,0,.08,0,.07,0,.08,0,.07,0,.08,0,.07,0,.08,0,.07,0,.08,0,.07,0,.08,0,.07,0,.08,0,.07,0,.08,0,.07,0,.08,0,.07,0,.08,0,.07,0,.08,0,.07,0,.08,0,.07,0,.08,0,.07,0,.08,0,.07,0,.08,0,.07,0v-3.28h-.07l-.08,0-.07,0-.08,0-.07,0h-.08l-.07,0-.08,0h-.07l-.08,0h-.07l-.08,0-.07,0h-.08l-.07,0-.08,0h-.07l-.08,0h-.07l-.08,0h-.15l-.07,0h-.08l-.07,0h-.08l-.07,0H362l-.08,0h-.15l-.07,0h-.15l-.07,0h-.3l-.08,0h-8.24l-.07,0h-.3l-.08,0h-.15l-.07,0h-.08l-.07,0h-.08l-.07,0h-.08l-.07,0-.08,0h-.07l-.08,0-.07,0h-.08l-.07,0-.08,0-.07,0-.08,0-.07,0-.07,0-.08,0-.07,0-.08,0-.07,0-.08,0-.07,0-.08,0-.07,0-.08,0-.07,0-.08,0-.07,0-.08,0-.07,0-.08,0-.07,0-.08,0-.07,0-.08,0-.07,0-.08,0-.07,0-.08,0-.07,0-.08,0-.07,0-.08,0-.07,0-.08,0-.07,0-.08,0-.07,0-.08,0-.07,0-.08,0-.07,0-.08,0-.07.05-.08,0-.07.05-.08.05-.07,0-.08.06-.07.05-.08,0-.07.06-.08.06-.07.06Z"/></clipPath><clipPath id="clip-path-29"><path class="cls-1" d="M440.06,132.49A2.52,2.52,0,0,0,442.6,130h0a2.54,2.54,0,0,0-2.54-2.54h0a2.54,2.54,0,0,0,0,5.08Zm-19.49,1.38a18,18,0,0,1-2.94,5V128.56l-5.33,1.05v18.76h5.33v-5.8a20.2,20.2,0,0,1,2.3,5.8h6.38c-.63-2.63-3.39-7.46-3.39-7.46a23.32,23.32,0,0,0,3.74-7Zm14-.19c-4.77.15-7.19,2.29-7.19,6.54v8.16h5.2v-6.65c0-2.55.34-3.64,3.36-3.75v-4.23a7,7,0,0,0-1.37-.07Zm-31.2,2.26c-.65-.05-2.16-.14-2.16-1.5,0-1.64,2.17-1.64,3-1.64a17.72,17.72,0,0,1,4.62.82s.74.26,1.37.52l.05,0v-4.49l-.08,0a18.5,18.5,0,0,0-6.76-1.07c-5.82,0-7.88,3.39-7.88,6.29,0,1.68.72,5.62,7.38,6.07.57,0,2.07.12,2.07,1.53,0,1.16-1.23,1.84-3.29,1.84a16.33,16.33,0,0,1-5.79-1.12v4.63a27,27,0,0,0,6.88.78c5.69,0,8.23-3.21,8.23-6.38,0-3.61-2.85-6-7.63-6.27Zm34.11,12.44h5.16V133.89h-5.16Zm14.88-18.89v18.89h5.16V128.57l-5.16.92Zm-7.54,0,5.16-.92v19.8h-5.16V129.49Z"/></clipPath><clipPath id="clip-path-30"><path class="cls-1" d="M370.66,132.49A2.53,2.53,0,0,0,373.2,130h0a2.54,2.54,0,0,0-2.54-2.54h0a2.54,2.54,0,1,0,0,5.08Zm-19.5,1.38a17.72,17.72,0,0,1-2.94,5V128.56l-5.32,1.05v18.76h5.32v-5.8a19.94,19.94,0,0,1,2.31,5.8h6.38c-.63-2.63-3.39-7.46-3.39-7.46a23.29,23.29,0,0,0,3.73-7Zm14-.19c-4.77.15-7.2,2.29-7.2,6.54v8.16h5.21v-6.65c0-2.55.33-3.64,3.36-3.75v-4.23a7,7,0,0,0-1.37-.07ZM334,135.94c-.66-.05-2.17-.14-2.17-1.5,0-1.64,2.18-1.64,3-1.64a17.72,17.72,0,0,1,4.62.82s.74.26,1.37.52l.06,0v-4.49l-.08,0a18.53,18.53,0,0,0-6.76-1.07c-5.82,0-7.88,3.39-7.88,6.29,0,1.68.72,5.62,7.38,6.07.56,0,2.06.12,2.06,1.53,0,1.16-1.22,1.84-3.29,1.84a16.42,16.42,0,0,1-5.79-1.12v4.63a27.06,27.06,0,0,0,6.88.78c5.69,0,8.24-3.21,8.24-6.38,0-3.61-2.85-6-7.63-6.27Zm34.11,12.44h5.16V133.89h-5.16ZM383,129.49v18.89h5.16V128.57l-5.16.92Zm-7.54,0,5.16-.92v19.8h-5.16V129.49Z"/></clipPath><clipPath id="clip-path-31"><path class="cls-1" d="M552.61,229a23.24,23.24,0,0,1,10.16,2.34q.72.33,1.44.75L562.08,234l-3.21-3.28-5.41,4.78L550.24,232l-10.08,9,6.47,7.06-2.54,2.22,6.36,7.08-2.52,2.2L557,269.63l5.4-4.93,4.66,5.28a24.78,24.78,0,0,1-3.05,2,23.05,23.05,0,1,1-11.42-43"/></clipPath><clipPath id="clip-path-32"><polyline class="cls-1" points="548.39 250.55 553.9 245.62 558.86 251.09 553.36 256.03 548.4 250.56"/></clipPath><clipPath id="clip-path-33"><polyline class="cls-1" points="552.31 260 557.82 255.07 562.78 260.54 557.27 265.46 552.31 259.99"/></clipPath><clipPath id="clip-path-34"><polyline class="cls-1" points="544.45 241.21 549.96 236.28 554.92 241.75 549.41 246.68 544.45 241.21"/></clipPath><clipPath id="clip-path-35"><polyline class="cls-1" points="554.56 238.55 558.69 234.86 562.4 238.96 558.26 242.67 554.56 238.56"/></clipPath><clipPath id="clip-path-36"><polyline class="cls-1" points="561.9 255.47 566.04 251.76 569.74 255.87 565.61 259.57 561.89 255.47"/></clipPath><clipPath id="clip-path-37"><polyline class="cls-1" points="565.54 263.75 569.67 260.05 573.39 264.15 569.26 267.85 565.55 263.75"/></clipPath><clipPath id="clip-path-38"><polyline class="cls-1" points="567.2 244.77 569.96 242.31 572.44 245.04 569.68 247.5 567.2 244.77"/></clipPath><clipPath id="clip-path-39"><polyline class="cls-1" points="563.68 236.64 566.43 234.18 568.92 236.92 566.16 239.38 563.68 236.64"/></clipPath><clipPath id="clip-path-40"><polyline class="cls-1" points="570.72 252.9 573.48 250.43 575.96 253.17 573.2 255.63 570.72 252.9"/></clipPath><clipPath id="clip-path-41"><polyline class="cls-1" points="558.37 246.81 562.5 243.1 566.21 247.2 562.08 250.91 558.35 246.81"/></clipPath><clipPath id="clip-path-42"><path class="cls-1" d="M757.71-92.19a1.3,1.3,0,0,1-1.3-1.3v-5.74h-.48c-3,0-4.08.49-4.08,3.19v16.76a4.61,4.61,0,0,1-.64,2.61c-.81,1.25-2.41,1.81-5,1.82s-4.17-.57-5-1.82a4.78,4.78,0,0,1-.64-2.61V-96c0-2.7-1.1-3.19-4.08-3.19h-.93c-3,0-4.08.49-4.08,3.19v16.76a12.58,12.58,0,0,0,1.78,6.82C735.59-68.9,740-67,746.23-67h0c6.24,0,10.64-1.9,12.91-5.46A12.58,12.58,0,0,0,761-79.28v-12.9h-3.24"/></clipPath><clipPath id="clip-path-43"><path class="cls-1" d="M771.45-101.44h-4.89a1,1,0,0,1-1-1v-5a1,1,0,0,1,1-1h4.89a1,1,0,0,1,1,1v5a1,1,0,0,1-1,1"/></clipPath><clipPath id="clip-path-44"><path class="cls-1" d="M764.94-108.33h-3.32A.65.65,0,0,1,761-109v-3.36a.65.65,0,0,1,.65-.66h3.32a.65.65,0,0,1,.65.66V-109a.65.65,0,0,1-.65.65"/></clipPath><clipPath id="clip-path-45"><path class="cls-1" d="M764.29-102.22h-6.58a1.31,1.31,0,0,0-1.3,1.3v.92h.46c3,0,4.08.49,4.08,3.2v3.85h3.34a1.3,1.3,0,0,0,1.3-1.3v-6.67a1.3,1.3,0,0,0-1.3-1.3"/></clipPath><clipPath id="clip-path-46"><path class="cls-1" d="M343.77-97.91a10.59,10.59,0,0,1,1.94-.58c1.26-5.19,6.36-8.88,12.23-8.86s11,3.68,12.23,8.87a9.46,9.46,0,0,1,4.58,2,14.45,14.45,0,0,0-.12-2.79c-.84-7.78-8.09-13.69-16.73-13.65-8.94,0-16.34,6.28-16.78,14.35a19.46,19.46,0,0,0,0,2.16,11.16,11.16,0,0,1,2.64-1.47"/></clipPath><clipPath id="clip-path-47"><path class="cls-1" d="M347.64-96.77a8.08,8.08,0,0,0-3,.61,8.26,8.26,0,0,0-2.47,1.41,8.45,8.45,0,0,0-1.93,5.87v14A8.41,8.41,0,0,0,342.17-69a8.32,8.32,0,0,0,2.47,1.43,8.28,8.28,0,0,0,3,.61h20.14q7.8-.08,7.93-7.61V-89.17q-.13-7.55-7.93-7.6Z"/></clipPath></defs><path class="cls-39" d="M30.71,36.64c-2.83,0-5.66,0-8.48,0-.76,0-.88-.23-.74-.93.36-1.7.62-3.43,1-5.14A6.92,6.92,0,0,1,27.7,24.9c2.74-.79,5.48-1.59,8.25-2.25,2-.48,3.17-1.55,3.28-3.67,0-.79.17-1.56.23-2.35a1.12,1.12,0,0,0-1-1.29,29.75,29.75,0,0,0-7.66-.1,2.38,2.38,0,0,0-2.07,1.85,21,21,0,0,0-.59,2.81.59.59,0,0,1-.7.58c-.9,0-1.8,0-2.71,0-.33,0-.64,0-.56-.53A31.09,31.09,0,0,1,25,16a6.12,6.12,0,0,1,5.54-4.39,31.31,31.31,0,0,1,8.86-.05,4.63,4.63,0,0,1,3.52,2.32,3.23,3.23,0,0,1,.43,1.58,20.17,20.17,0,0,1-.7,5.78,6.1,6.1,0,0,1-4.35,4.49c-2.67.81-5.37,1.52-8.06,2.28a6.53,6.53,0,0,1-.76.2c-2.36.37-3.29,1.9-3.45,4.13-.05.74.4.56.77.56H39.46c1.35,0,1.35,0,1.09,1.34a5.08,5.08,0,0,0-.19,1.2c0,1-.42,1.2-1.34,1.18C36.25,36.61,33.48,36.64,30.71,36.64Z"/><path class="cls-40" d="M19,11.91c-2.55-.51-5.12-.22-7.29-.3s-3.94,0-5.72,0c-.61,0-.9.09-1,.81C4.41,16,3.78,19.59,3.18,23.18,2.47,27.46,1.76,31.74,1,36c-.1.59.11.7.64.68a22.07,22.07,0,0,1,2.44,0c.62,0,.8-.22.89-.77.4-2.59.86-5.17,1.24-7.76.1-.63.32-.77,1-.76a86.07,86.07,0,0,0,8.65-.07c3.4-.33,5.14-1.88,5.86-5.23a53.58,53.58,0,0,0,.83-5.35C22.85,14,21.74,12.47,19,11.91Zm-.47,5.34c-.21,1.62-.53,3.22-.85,4.82A1.91,1.91,0,0,1,16,23.51a26.61,26.61,0,0,1-4.45.2c-1.45,0-2.65,0-3.84,0-.53,0-.65-.18-.56-.67.41-2.35.79-4.71,1.18-7.06,0-.3,0-.58.49-.57,2.79.07,5.59-.16,8.38.16C18.35,15.72,18.67,16.08,18.51,17.25Z"/><path class="cls-39" d="M61.48,27.35a6.13,6.13,0,0,0-1,0c-.92.14-.94-.27-.81-1,.82-4.66,1.59-9.34,2.38-14,.09-.5,0-.75-.62-.73-1.16,0-2.33,0-3.5,0a1.21,1.21,0,0,0-1,.5c-4.32,4.65-8.62,9.32-13,13.94a4.31,4.31,0,0,0-1.34,2.73,9.21,9.21,0,0,1-.28,1.72c-.15.57,0,.71.59.71,1.87,0,3.73,0,5.6,0s3.68,0,5.51,0c.72,0,.91.17.76.9-.27,1.3-.42,2.63-.67,4-.08.44,0,.65.46.63.94,0,1.87,0,2.8,0,.46,0,.6-.18.65-.61.11-.83.27-1.66.44-2.49s-.06-1.78.52-2.22,1.58-.17,2.39-.13,1.26-.17,1.24-1.07A5.43,5.43,0,0,1,62.82,29C63.16,27.35,63.16,27.35,61.48,27.35Zm-4.35-9.62L55.81,25.9c0,.28-.08.57-.13.86a.6.6,0,0,1-.68.6c-2.45,0-4.9,0-7.59,0L57,17.2C57.38,17.25,57.17,17.52,57.13,17.73Z"/></svg>