<svg id="Calque_1" data-name="Calque 1" xmlns="http://www.w3.org/2000/svg" xmlns:xlink="http://www.w3.org/1999/xlink" viewBox="0 0 64 48"><defs><style>.cls-1{fill:none;}.cls-2{fill:#ededed;}.cls-3{clip-path:url(#clip-path);}.cls-4{fill:#393a41;}</style><clipPath id="clip-path"><rect class="cls-1" x="9.3" y="20.18" width="44.94" height="7.64"/></clipPath></defs><path class="cls-2" d="M57.84,36.36H1.66L5.93,11.64H62.34Z"/><g class="cls-3"><path class="cls-4" d="M20.3,20.18a4.28,4.28,0,0,0-4.44,4.16,3.47,3.47,0,0,0,3.71,3.48A4.31,4.31,0,0,0,24,23.6,3.4,3.4,0,0,0,20.3,20.18Zm-.57,5.71a1.55,1.55,0,0,1-1.64-1.64,2.1,2.1,0,0,1,2-2.16,1.58,1.58,0,0,1,1.63,1.67A2.05,2.05,0,0,1,19.73,25.89Z"/><path class="cls-4" d="M35.48,20.18a4.27,4.27,0,0,0-4.42,4.16,3.47,3.47,0,0,0,3.71,3.48A4.32,4.32,0,0,0,39.2,23.6,3.41,3.41,0,0,0,35.48,20.18Zm-.55,5.71a1.55,1.55,0,0,1-1.64-1.64,2.1,2.1,0,0,1,2-2.16A1.58,1.58,0,0,1,37,23.76,2.07,2.07,0,0,1,34.93,25.89Z"/><path class="cls-4" d="M46.62,22.59c0-1.37-1-2.25-2.94-2.25H41l-1.18,7.32h2.25l.37-2.31h.1l1.19,2.31h2.58L44.67,25.1A2.64,2.64,0,0,0,46.62,22.59ZM43,23.8H42.7L43,22.27h.3c.7,0,1.07.21,1.07.69S43.79,23.8,43,23.8Z"/><path class="cls-4" d="M13.28,23.27c-.86-.45-1-.56-1-.8s.34-.44.8-.44a2.91,2.91,0,0,1,2.17.84,5,5,0,0,1,.95-1.69,6.37,6.37,0,0,0-3.16-1c-1.91,0-3,1.05-3,2.32,0,1.09.8,1.65,1.75,2.15s1.08.6,1.08.87S12.45,26,12,26a3.81,3.81,0,0,1-2.34-1.06l-.33,2a4.3,4.3,0,0,0,2.71.88c2,0,3.05-1,3.05-2.33C15.06,24.41,14.38,23.83,13.28,23.27Z"/><path class="cls-4" d="M29.93,23.55H27.29l.21-1.28h2.83A5.1,5.1,0,0,1,32,20.34H27.34A2,2,0,0,0,25.29,22l-.9,5.64h2.25l.37-2.3h2.67l.2-1.26C29.89,23.91,29.91,23.74,29.93,23.55Z"/><path class="cls-4" d="M46.68,20.34a2.73,2.73,0,0,1,1,1.93h1.88l-.86,5.39H51l.86-5.39h2.08l.31-1.93Z"/></g></svg>