<svg xmlns="http://www.w3.org/2000/svg" viewBox="0 0 64 48"><path fill="#b3b1af" d="M30.71 36.64h-8.48c-.76 0-.88-.23-.74-.93.36-1.7.62-3.43 1-5.14a6.92 6.92 0 0 1 5.21-5.67c2.74-.79 5.48-1.59 8.25-2.25 2-.48 3.17-1.55 3.28-3.67 0-.79.17-1.56.23-2.35a1.12 1.12 0 0 0-1-1.29 29.8 29.8 0 0 0-7.66-.1 2.38 2.38 0 0 0-2.07 1.85 21 21 0 0 0-.59 2.81.59.59 0 0 1-.7.58h-2.71c-.33 0-.64 0-.56-.53A31 31 0 0 1 25 16a6.12 6.12 0 0 1 5.54-4.39 31.3 31.3 0 0 1 8.86-.05 4.63 4.63 0 0 1 3.52 2.32 3.23 3.23 0 0 1 .43 1.58 20.2 20.2 0 0 1-.7 5.78 6.1 6.1 0 0 1-4.35 4.49c-2.67.81-5.37 1.52-8.06 2.28a7 7 0 0 1-.76.2c-2.36.37-3.29 1.9-3.45 4.13-.05.74.4.56.77.56h12.66c1.35 0 1.35 0 1.09 1.34a5 5 0 0 0-.19 1.2c0 1-.42 1.2-1.34 1.18-2.77-.01-5.54.02-8.31.02"/><path fill="#d13138" d="M19 11.91c-2.55-.51-5.12-.22-7.29-.3s-3.94 0-5.72 0c-.61 0-.9.09-1 .81-.58 3.58-1.21 7.17-1.81 10.76C2.47 27.46 1.76 31.74 1 36c-.1.59.11.7.64.68a22 22 0 0 1 2.44 0c.62 0 .8-.22.89-.77.4-2.59.86-5.17 1.24-7.76.1-.63.32-.77 1-.76a86 86 0 0 0 8.65-.07c3.4-.33 5.14-1.88 5.86-5.23a54 54 0 0 0 .83-5.35c.3-2.74-.81-4.27-3.55-4.83m-.47 5.34c-.21 1.62-.53 3.22-.85 4.82A1.91 1.91 0 0 1 16 23.51a26.6 26.6 0 0 1-4.45.2H7.71c-.53 0-.65-.18-.56-.67.41-2.35.79-4.71 1.18-7.06 0-.3 0-.58.49-.57 2.79.07 5.59-.16 8.38.16 1.15.15 1.47.51 1.31 1.68Z"/><path fill="#b3b1af" d="M61.48 27.35a6 6 0 0 0-1 0c-.92.14-.94-.27-.81-1 .82-4.66 1.59-9.34 2.38-14 .09-.5 0-.75-.62-.73h-3.5a1.21 1.21 0 0 0-1 .5c-4.32 4.65-8.62 9.32-13 13.94a4.3 4.3 0 0 0-1.34 2.73 9 9 0 0 1-.28 1.72c-.15.57 0 .71.59.71h11.11c.72 0 .91.17.76.9-.27 1.3-.42 2.63-.67 4-.08.44 0 .65.46.63h2.8c.46 0 .6-.18.65-.61.11-.83.27-1.66.44-2.49s-.06-1.78.52-2.22 1.58-.17 2.39-.13 1.26-.17 1.24-1.07a5.4 5.4 0 0 1 .22-1.23c.34-1.65.34-1.65-1.34-1.65m-4.35-9.62-1.32 8.17c0 .28-.08.57-.13.86a.6.6 0 0 1-.68.6h-7.59L57 17.2c.38.05.17.32.13.53"/></svg>