<svg xmlns="http://www.w3.org/2000/svg" viewBox="0 0 64 48">
    <path
        d="m45.87 13.28 1.4-3.7h6.2v-6.7h-42.4v42.4h42.4v-6.7h-5.9L45.37 36l-2.2 2.5h-16.6V25.18h-5.5L28 9.68h6.7l1.6 3.5v-3.5h8.3l1.3 3.6Zm-4.6 2.5v-1.5l.6 1.5 2.8 7.4h2.6l2.8-7.4.5-1.5v8.8h2.9v-11.3h-4.8l-2.2 5.7-.6 1.6-.6-1.6-2.2-5.7h-4.8V23h3v-7.2ZM35.07 23h3.3l-5-11.3h-3.9l-5 11.3h3.3l.9-2.2h5.5l.9 2.2Zm-4.2-7.4.6-1.4.6 1.4 1.2 2.9h-3.5l1.1-2.9Zm-2 9.6v11.3h9.4V34h-6.6v-2h6.4v-2.4h-6.4v-2h6.6v-2.4Zm20 11.1h3.7l-5.3-5.6 5.3-5.6h-3.7l-3.4 3.7-3.4-3.7h-3.8l5.3 5.7-5.3 5.6h3.6l3.4-3.7 3.6 3.6Zm1.4-5.5 3.2 3.3v-6.5l-3.2 3.2Z"
        style="fill:#006fcf" />
</svg>