<svg xmlns="http://www.w3.org/2000/svg" viewBox="0 0 64 48">
    <defs>
        <clipPath id="clip-path" />
        <clipPath id="clip-path-2" />
        <clipPath id="clip-path-3" />
        <clipPath id="clip-path-4" />
        <clipPath id="clip-path-5" />
        <clipPath id="clip-path-6" />
        <clipPath id="clip-path-7" />
        <clipPath id="clip-path-8" />
        <clipPath id="clip-path-9" />
        <clipPath id="clip-path-10" />
        <clipPath id="clip-path-11" />
        <clipPath id="clip-path-12" />
        <clipPath id="clip-path-13" />
        <clipPath id="clip-path-14" />
        <clipPath id="clip-path-15" />
        <clipPath id="clip-path-16" />
        <clipPath id="clip-path-17" />
        <clipPath id="clip-path-18" />
        <clipPath id="clip-path-19" />
        <clipPath id="clip-path-20" />
        <clipPath id="clip-path-21" />
        <clipPath id="clip-path-22" />
    </defs>
    <path
        d="m24.65 14.48-8 19.08h-5.22L7.5 18.34a2.11 2.11 0 0 0-1.17-1.68A20.22 20.22 0 0 0 1.45 15l.12-.56H10a2.31 2.31 0 0 1 2.28 1.95l2.08 11 5.13-13ZM45.1 27.33c0-5-7-5.31-6.92-7.56 0-.69.67-1.41 2.09-1.6a9.41 9.41 0 0 1 4.87.85L46 15a13.32 13.32 0 0 0-4.62-.85c-4.88 0-8.31 2.6-8.34 6.31 0 2.75 2.45 4.28 4.32 5.2s2.57 1.53 2.56 2.37c0 1.28-1.53 1.84-3 1.86a10.4 10.4 0 0 1-5.08-1.2L31 32.85a15.05 15.05 0 0 0 5.49 1c5.19 0 8.58-2.57 8.6-6.54M58 33.56h4.57l-4-19.08h-4.22a2.26 2.26 0 0 0-2.11 1.4l-7.4 17.68H50l1-2.85h6.33Zm-5.53-6.76 2.6-7.16 1.5 7.16ZM31.7 14.48l-4.08 19.08h-4.94l4.09-19.08Z"
        style="fill:#1a1f71" />
</svg>